<svg width="84" height="68" viewBox="0 0 84 68" fill="none" xmlns="http://www.w3.org/2000/svg">
<path fill-rule="evenodd" clip-rule="evenodd" d="M31.4349 39.9531H52.5182V32.7083C52.5182 29.4791 51.3776 26.7708 49.2318 24.875C47.3203 23.1927 44.7422 22.2656 41.9766 22.2656C36.8985 22.2656 31.4349 25.5312 31.4349 32.7083V39.9531ZM52.7943 40.5104H31.1589C31.0026 40.5104 30.8776 40.3854 30.8776 40.2344V32.7083C30.8776 29.3125 32.0807 26.4583 34.3516 24.4583C36.3672 22.6823 39.0755 21.7083 41.9766 21.7083C44.8776 21.7083 47.586 22.6823 49.5964 24.4583C51.8724 26.4583 53.0703 29.3125 53.0703 32.7083V40.2344C53.0703 40.3854 52.9453 40.5104 52.7943 40.5104Z" fill="#265C67"/>
<mask id="mask0_22_1883" style="mask-type:luminance" maskUnits="userSpaceOnUse" x="37" y="45" width="10" height="5">
<path d="M37.2995 45.1146H46.6328V49.9271H37.2995V45.1146Z" fill="white"/>
</mask>
<g mask="url(#mask0_22_1883)">
<path fill-rule="evenodd" clip-rule="evenodd" d="M41.9766 49.8854C39.7943 49.8854 38.0234 48.1094 38.0234 45.9219C38.0234 45.7656 38.1484 45.6458 38.2995 45.6458C38.4557 45.6406 38.5807 45.7656 38.5807 45.9219C38.5807 47.7969 40.1016 49.3281 41.9766 49.3281C43.8464 49.3281 45.3724 47.7969 45.3724 45.9219C45.3724 45.7656 45.4922 45.6458 45.6484 45.6458C45.7995 45.6406 45.9245 45.7656 45.9245 45.9219C45.9245 48.1094 44.1536 49.8854 41.9766 49.8854Z" fill="#265C67"/>
</g>
<mask id="mask1_22_1883" style="mask-type:luminance" maskUnits="userSpaceOnUse" x="37" y="18" width="10" height="6">
<path d="M37.2995 18.0729H46.6328V23.7813H37.2995V18.0729Z" fill="white"/>
</mask>
<g mask="url(#mask1_22_1883)">
<path fill-rule="evenodd" clip-rule="evenodd" d="M45.2943 22.7292C45.1432 22.7292 45.0182 22.6042 45.0182 22.4479V20.6823C45.0182 19.5625 44.1068 18.6511 42.9922 18.6511H40.9558C39.8412 18.6511 38.9349 19.5625 38.9349 20.6823V22.4479C38.9349 22.6042 38.8099 22.7292 38.6537 22.7292C38.5026 22.7292 38.3776 22.6042 38.3776 22.4479V20.6823C38.3776 19.2552 39.5339 18.0938 40.9558 18.0938H42.9922C44.4141 18.0938 45.5703 19.2552 45.5703 20.6823V22.4479C45.5703 22.6042 45.4505 22.7292 45.2943 22.7292Z" fill="#265C67"/>
</g>
<mask id="mask2_22_1883" style="mask-type:luminance" maskUnits="userSpaceOnUse" x="27" y="39" width="30" height="8">
<path d="M27.5651 39.7812H56.4349V46.4479H27.5651V39.7812Z" fill="white"/>
</mask>
<g mask="url(#mask2_22_1883)">
<path fill-rule="evenodd" clip-rule="evenodd" d="M30.6537 40.5104C29.2526 40.5104 28.1172 41.651 28.1172 43.0521C28.1172 44.4531 29.2526 45.5938 30.6537 45.5938H53.3464C54.7422 45.5938 55.8829 44.4531 55.8829 43.0521C55.8829 41.651 54.7422 40.5104 53.3464 40.5104H30.6537ZM53.3464 46.151H30.6537C28.9454 46.151 27.5599 44.7656 27.5599 43.0521C27.5599 41.3438 28.9454 39.9531 30.6537 39.9531H53.3464C55.0495 39.9531 56.4349 41.3438 56.4349 43.0521C56.4349 44.7656 55.0495 46.151 53.3464 46.151Z" fill="#265C67"/>
</g>
</svg>
