<svg width="84" height="68" viewBox="0 0 84 68" fill="none" xmlns="http://www.w3.org/2000/svg">
<mask id="mask0_22_1957" style="mask-type:luminance" maskUnits="userSpaceOnUse" x="24" y="16" width="36" height="36">
<path d="M24.2422 16.0781H59.7578V51.9219H24.2422V16.0781Z" fill="white"/>
</mask>
<g mask="url(#mask0_22_1957)">
<path d="M40.6745 51.2917H43.6484V47.901C43.6484 47.7396 43.7682 47.6094 43.9245 47.5885C45.1328 47.4323 46.3099 47.1146 47.4349 46.651C47.5755 46.5885 47.7474 46.6458 47.8255 46.7812L49.5234 49.7188L52.0964 48.2344L50.3984 45.2917C50.3203 45.1562 50.3568 44.9792 50.4818 44.8854C51.4453 44.1458 52.3099 43.2812 53.0495 42.3177C53.1432 42.1927 53.3203 42.1562 53.4557 42.2396L56.3932 43.9323L57.8828 41.3594L54.9453 39.6615C54.8099 39.5833 54.7526 39.4167 54.8099 39.2708C55.2786 38.1458 55.5964 36.9688 55.7474 35.7604C55.7682 35.6042 55.9036 35.4896 56.0599 35.4896H59.4557V32.5156H56.0599C55.9036 32.5156 55.7682 32.3958 55.7474 32.2396C55.5964 31.0312 55.2786 29.8542 54.8099 28.7292C54.7526 28.5833 54.8099 28.4167 54.9453 28.3385L57.8828 26.6406L56.3932 24.0677L53.4557 25.7656C53.3203 25.8438 53.1432 25.8073 53.0495 25.6823C52.3099 24.7188 51.4453 23.8542 50.4818 23.1146C50.3568 23.0208 50.3203 22.8437 50.3984 22.7083L52.0964 19.7708L49.5234 18.2812L47.8255 21.2188C47.7474 21.3542 47.5755 21.4115 47.4297 21.3542C46.3099 20.8854 45.1276 20.5677 43.9245 20.4115C43.7682 20.3906 43.6484 20.2604 43.6484 20.099V16.7083H40.6745V20.099C40.6745 20.2604 40.5599 20.3906 40.4036 20.4115C39.1953 20.5677 38.013 20.8854 36.8932 21.349C36.7474 21.4115 36.5807 21.3542 36.5026 21.2188L34.8047 18.2812L32.2266 19.7708L33.9245 22.7083C34.0078 22.8437 33.9714 23.0208 33.8464 23.1146C32.8828 23.8542 32.0182 24.7188 31.2786 25.6823C31.1849 25.8073 31.0078 25.8438 30.8724 25.7656L27.9297 24.0677L26.4453 26.6406L29.3828 28.3385C29.5182 28.4167 29.5755 28.5833 29.513 28.7292C29.0495 29.8542 28.7318 31.0312 28.5755 32.2396C28.5547 32.3958 28.4245 32.5156 28.263 32.5156H24.8724V35.4896H28.263C28.4245 35.4896 28.5547 35.6042 28.5755 35.7604C28.7318 36.9688 29.0443 38.151 29.513 39.2708C29.5755 39.4167 29.5182 39.5833 29.3828 39.6615L26.4453 41.3594L27.9297 43.9323L30.8724 42.2396C31.0078 42.1562 31.1797 42.1927 31.2786 42.3177C32.0182 43.2812 32.8828 44.1458 33.8464 44.8854C33.9714 44.9792 34.0078 45.1562 33.9245 45.2917L32.2266 48.2344L34.8047 49.7188L36.5026 46.7812C36.5807 46.6458 36.7474 46.5885 36.8932 46.651C38.013 47.1146 39.1953 47.4323 40.4036 47.5885C40.5599 47.6094 40.6745 47.7396 40.6745 47.901V51.2917ZM43.9661 51.9219H40.362C40.1901 51.9219 40.0443 51.7812 40.0443 51.6094V48.1719C38.9714 48.0156 37.9193 47.7344 36.9089 47.3333L35.1901 50.3073C35.1068 50.4583 34.9141 50.5052 34.763 50.4219L31.6432 48.6198C31.5703 48.5781 31.5182 48.5104 31.4974 48.4271C31.4714 48.349 31.487 48.2604 31.5286 48.1927L33.2422 45.2135C32.3984 44.5365 31.6224 43.7656 30.9505 42.9167L27.9714 44.6354C27.9036 44.6771 27.8151 44.6875 27.737 44.6667C27.6536 44.6458 27.5859 44.5938 27.5443 44.5208L25.7422 41.401C25.7005 41.3281 25.6901 41.2448 25.7109 41.1615C25.7318 41.0833 25.7839 41.0104 25.8568 40.9688L28.8307 39.2552C28.4297 38.2448 28.1484 37.1927 27.9922 36.1146H24.5547C24.3828 36.1146 24.2422 35.974 24.2422 35.8021V32.1979C24.2422 32.026 24.3828 31.8854 24.5547 31.8854H27.9922C28.1484 30.8073 28.4297 29.7552 28.8307 28.7448L25.8568 27.0312C25.7839 26.9896 25.7318 26.9219 25.7109 26.8385C25.6901 26.7604 25.7005 26.6719 25.7422 26.599L27.5443 23.4792C27.5859 23.4062 27.6536 23.3542 27.737 23.3333C27.8151 23.3125 27.9036 23.3229 27.9714 23.3646L30.9505 25.0833C31.6276 24.2344 32.3984 23.4635 33.2422 22.7865L31.5286 19.8125C31.487 19.7396 31.4714 19.651 31.4974 19.5729C31.5182 19.4896 31.5703 19.4219 31.6432 19.3802L34.763 17.5781C34.8359 17.5365 34.9193 17.526 35.0026 17.5469C35.0807 17.5677 35.1484 17.625 35.1901 17.6927L36.9089 20.6667C37.9193 20.2708 38.9714 19.9844 40.0443 19.8281V16.3958C40.0443 16.2187 40.1901 16.0781 40.362 16.0781H43.9661C44.138 16.0781 44.2786 16.2187 44.2786 16.3958V19.8281C45.3516 19.9844 46.4089 20.2708 47.4193 20.6667L49.1328 17.6927C49.1745 17.625 49.2422 17.5677 49.3255 17.5469C49.4036 17.526 49.4922 17.5365 49.5651 17.5781L52.6849 19.3802C52.7578 19.4219 52.8099 19.4896 52.8307 19.5729C52.8516 19.651 52.8411 19.7396 52.7995 19.8125L51.0807 22.7865C51.9297 23.4635 52.7005 24.2344 53.3776 25.0833L56.3516 23.3646C56.4245 23.3229 56.5078 23.3125 56.5911 23.3333C56.6693 23.3542 56.7422 23.4062 56.7839 23.4792L58.5859 26.599C58.6693 26.75 58.6172 26.9427 58.4661 27.0312L55.4974 28.7448C55.8932 29.7552 56.1745 30.8073 56.3359 31.8854H59.7682C59.9453 31.8854 60.0859 32.026 60.0859 32.1979V35.8021C60.0859 35.974 59.9453 36.1146 59.7682 36.1146H56.3359C56.1745 37.1927 55.8932 38.2448 55.4974 39.2552L58.4661 40.9688C58.6172 41.0573 58.6693 41.25 58.5859 41.401L56.7839 44.5208C56.7422 44.5938 56.6693 44.6458 56.5911 44.6667C56.5078 44.6875 56.4245 44.6771 56.3516 44.6354L53.3776 42.9167C52.7005 43.7656 51.9297 44.5365 51.0807 45.2135L52.7995 48.1927C52.8411 48.2604 52.8516 48.349 52.8307 48.4271C52.8099 48.5104 52.7578 48.5781 52.6849 48.6198L49.5651 50.4219C49.4141 50.5104 49.2214 50.4583 49.1328 50.3073L47.4193 47.3333C46.4089 47.7344 45.3568 48.0156 44.2786 48.1719V51.6094C44.2786 51.7812 44.138 51.9219 43.9661 51.9219Z" fill="#265C67"/>
</g>
<path d="M42.164 24.099C36.7005 24.099 32.2578 28.5417 32.2578 34C32.2578 39.4635 36.7005 43.9062 42.164 43.9062C47.6224 43.9062 52.0651 39.4635 52.0651 34C52.0651 28.5417 47.6224 24.099 42.164 24.099ZM42.164 44.5312C36.3567 44.5312 31.6276 39.8073 31.6276 34C31.6276 28.1927 36.3567 23.4688 42.164 23.4688C47.9713 23.4688 52.6953 28.1927 52.6953 34C52.6953 39.8073 47.9713 44.5312 42.164 44.5312Z" fill="#265C67"/>
</svg>
