<svg width="84" height="68" viewBox="0 0 84 68" fill="none" xmlns="http://www.w3.org/2000/svg">
<mask id="mask0_14_191" style="mask-type:luminance" maskUnits="userSpaceOnUse" x="28" y="31" width="29" height="19">
<path d="M28.2786 31.3568H56.2786V49.9297H28.2786V31.3568Z" fill="white"/>
</mask>
<g mask="url(#mask0_14_191)">
<path d="M55.1431 49.8463H28.815C28.6588 49.8463 28.5338 49.7213 28.5338 49.5651V31.789C28.5338 31.6328 28.6588 31.5078 28.815 31.5078C28.966 31.5078 29.091 31.6328 29.091 31.789V49.2838H54.8619V31.789C54.8619 31.6328 54.9869 31.5078 55.1431 31.5078C55.2942 31.5078 55.4192 31.6328 55.4192 31.789V49.5651C55.4192 49.7213 55.2942 49.8463 55.1431 49.8463Z" fill="#265C67"/>
</g>
<mask id="mask1_14_191" style="mask-type:luminance" maskUnits="userSpaceOnUse" x="30" y="36" width="12" height="14">
<path d="M30.9453 36.6901H41.612V49.9297H30.9453V36.6901Z" fill="white"/>
</mask>
<g mask="url(#mask1_14_191)">
<path d="M40.6797 49.8463C40.5286 49.8463 40.4036 49.7213 40.4036 49.5651V37.5651H32.8151V49.5651C32.8151 49.7213 32.6901 49.8463 32.5391 49.8463C32.3828 49.8463 32.2578 49.7213 32.2578 49.5651V37.2838C32.2578 37.1276 32.3828 36.9974 32.5391 36.9974H40.6797C40.8359 36.9974 40.9609 37.1276 40.9609 37.2838V49.5651C40.9609 49.7213 40.8359 49.8463 40.6797 49.8463Z" fill="#265C67"/>
</g>
<path d="M39.0026 44.5911C38.8516 44.5911 38.7266 44.4609 38.7266 44.3047V42.5391C38.7266 42.3828 38.8516 42.2578 39.0026 42.2578C39.1589 42.2578 39.2839 42.3828 39.2839 42.5391V44.3047C39.2839 44.4609 39.1589 44.5911 39.0026 44.5911Z" fill="#265C67"/>
<path d="M44.7109 44.039H51.1067V37.5651H44.7109V44.039ZM51.3879 44.6068H44.4348C44.2786 44.6068 44.1536 44.4818 44.1536 44.3255V37.2838C44.1536 37.1276 44.2786 36.9974 44.4348 36.9974H51.3879C51.5442 36.9974 51.6692 37.1276 51.6692 37.2838V44.3255C51.6692 44.4818 51.5442 44.6068 51.3879 44.6068Z" fill="#265C67"/>
<path d="M47.9089 44.6068C47.7578 44.6068 47.6328 44.4818 47.6328 44.3255V37.2838C47.6328 37.1276 47.7578 36.9974 47.9089 36.9974C48.0651 36.9974 48.1901 37.1276 48.1901 37.2838V44.3255C48.1901 44.4818 48.0651 44.6068 47.9089 44.6068Z" fill="#265C67"/>
<path d="M51.3879 41.0859H44.4348C44.2786 41.0859 44.1536 40.9609 44.1536 40.8047C44.1536 40.6484 44.2786 40.5182 44.4348 40.5182H51.3879C51.5442 40.5182 51.6692 40.6484 51.6692 40.8047C51.6692 40.9609 51.5442 41.0859 51.3879 41.0859Z" fill="#265C67"/>
<mask id="mask2_14_191" style="mask-type:luminance" maskUnits="userSpaceOnUse" x="26" y="18" width="32" height="15">
<path d="M26.0703 18.0703H57.9297V32.6901H26.0703V18.0703Z" fill="white"/>
</mask>
<g mask="url(#mask2_14_191)">
<path d="M27.1068 31.5078H56.8515L41.9765 18.8255L27.1068 31.5078ZM57.6172 32.0703H26.3411C26.2213 32.0703 26.1172 31.9974 26.0807 31.888C26.0651 31.8568 26.0599 31.8203 26.0599 31.7891C26.0599 31.7109 26.0963 31.6276 26.1588 31.5755L41.7995 18.237C41.9036 18.1484 42.0547 18.1484 42.1588 18.237L57.7943 31.5755C57.8828 31.6484 57.9193 31.7734 57.8776 31.888C57.8359 31.9974 57.7318 32.0703 57.6172 32.0703Z" fill="#265C67"/>
</g>
</svg>
