<svg width="177" height="120" viewBox="0 0 177 120" fill="none" xmlns="http://www.w3.org/2000/svg">
<mask id="mask0_22_6057" style="mask-type:luminance" maskUnits="userSpaceOnUse" x="8" y="0" width="163" height="106">
<path d="M8.69788 0H170.031V105.573H8.69788V0Z" fill="white"/>
</mask>
<g mask="url(#mask0_22_6057)">
<path fill-rule="evenodd" clip-rule="evenodd" d="M32.5416 49.5833C34.8176 48.9896 33.9218 46.7604 33.2447 45.1875C32.5676 43.6094 33.5416 40.7344 33.5416 40.7344C33.5416 40.7344 32.3228 41.9271 31.9999 42.7135C31.6718 43.5 31.5364 44.5052 32.026 46.026C32.5155 47.5469 31.7551 49.4479 32.5416 49.5833ZM88.2082 32.6406C89.5624 32.3125 89.6197 29.0573 89.7812 26.0156C89.9426 22.974 89.8905 21.9948 88.8072 21.2344C87.7239 20.474 87.5051 18.1927 87.5051 18.1927C87.5051 18.1927 87.3437 21.0156 87.5051 22.1042C87.6666 23.1875 87.1249 25.5781 86.8541 26.7188C86.5832 27.8594 87.2343 32.4792 88.2082 32.6406ZM113.729 21.0729C114.542 21.0417 114.109 17.651 114.135 16.2083C114.161 14.7708 113.239 13.849 113.239 13.849C113.239 13.849 112.969 16.3438 112.698 17.4844C112.427 18.625 112.917 21.0156 113.729 21.0729ZM9.65095 92.9271C9.65095 92.9271 9.6197 90.9167 10.8697 90.0469C12.1145 89.1771 13.552 87.7135 13.6041 83.6927C13.6562 79.6771 12.8176 78.8594 12.3853 78.2083C11.953 77.5573 13.1718 75.3021 13.5207 73.8073C13.8749 72.3177 13.3332 71.9375 13.8749 70.8229C14.4166 69.7083 15.6093 68.6198 15.6093 68.6198C15.6093 68.6198 14.7395 70.7135 16.3957 70.8229C18.0468 70.9323 19.1041 68.5938 19.6457 66.7188C20.1874 64.849 20.5676 61.8854 20.1041 59.7708C19.6457 57.651 19.9947 57.0781 20.7812 56.4844C21.5676 55.8854 22.4895 53.849 22.0832 52.6562C21.677 51.4583 21.1874 51.2969 22.0312 49.2604C22.8697 47.224 26.1457 44.6979 26.1457 44.6979C26.1457 44.6979 24.0312 49.9635 25.1978 53.3854C26.3645 56.8073 28.4791 54.9635 28.4791 54.9635C28.4791 54.9635 27.9062 57.1875 28.5312 58.6823C29.1562 60.1771 29.427 59.4167 29.3957 60.9375C29.3697 62.4583 28.6926 64.9844 31.2135 64.875C33.7343 64.7656 33.3228 62.974 33.3228 62.974C33.3228 62.974 34.5468 63.625 34.8437 61.2604C35.1405 58.901 34.9791 56.0469 34.9218 55.3177C34.8697 54.5833 36.3853 53.0625 36.3853 53.0625C36.3853 53.0625 35.6301 56.5365 36.927 57C38.2291 57.4635 38.526 57.1875 39.5312 57.8125C40.5312 58.4375 40.7499 59.3073 41.9947 58.5469C43.2395 57.7865 44.9999 53.9844 44.3228 51.4583C43.6457 48.9323 42.6978 48.0104 42.2082 46.9792C41.7239 45.9479 42.1822 44.9219 42.9426 44.2344C43.703 43.5521 45.2707 39.5365 44.1353 37.9375C42.9947 36.3333 42.5885 35.5729 42.5885 35.5729C42.5885 35.5729 44.3489 33.5365 45.5989 30.9583C46.8437 28.375 46.1405 26.2604 47.1405 24.0052C48.1457 21.75 48.7655 21.8333 49.4166 20.9896C50.0676 20.1458 50.6874 18.5729 50.6874 18.5729C50.6874 18.5729 50.7447 19.6302 49.9322 21.6146C49.1197 23.599 49.6614 26.2292 50.4999 26.8021C51.3385 27.3698 51.9114 26.9635 51.9114 26.9635C51.9114 26.9635 51.6093 29.026 50.7187 31.2812C49.8228 33.5365 50.7187 36.4688 51.776 38.6146C52.828 40.7604 54.3176 40.7604 55.1301 39.4583C55.9478 38.151 57.5155 34.625 57.3541 32.099C57.1926 29.5729 56.9218 28.7552 56.677 27.8854C56.4322 27.0208 58.0312 25.7969 57.8957 24.5208C57.7603 23.2448 56.026 20.474 55.703 18.0833C55.3749 15.6927 56.026 12.2188 57.4374 10.1823C58.8437 8.14584 60.0103 5.59375 60.0364 5.40104C60.0624 5.21354 59.6041 8.08854 60.4947 11.2969C61.3905 14.5 62.177 14.7708 63.1249 15.0156C64.0728 15.2604 63.6666 16.4844 62.8541 18.599C62.0416 20.7188 62.0937 23.3802 62.828 24.6302C63.5572 25.8802 63.828 25.5521 63.9635 27.1302C64.0989 28.7031 64.6405 31.2552 66.7551 31.2812C68.8645 31.3073 69.5989 28.5417 69.0832 26.6094C68.5676 24.6823 70.276 24.4635 70.5728 22.6458C70.8697 20.8281 70.7655 19.9583 71.0624 18.8698C71.3593 17.7865 73.3124 17.651 73.3124 17.651C73.3124 17.651 71.4687 22.6719 72.0103 24.7656C72.552 26.8542 73.8801 28.5938 73.8801 28.5938C73.8801 28.5938 73.7707 30.0885 74.2291 31.2812C74.6926 32.4792 73.6614 33.1823 72.9062 35.1667C72.1457 37.1458 72.9062 41.4948 74.9635 41.9531C77.0207 42.4167 77.7239 40.4635 77.9426 39.2135C78.1614 37.9635 78.078 36.1406 78.078 36.1406C78.078 36.1406 78.5676 37.6094 78.5364 38.8594C78.5103 40.1094 79.651 39.7552 79.677 40.8698C79.703 41.9792 78.2655 44.5365 77.7499 45.7812C77.2395 47.0312 76.8593 48.9062 77.8593 50.5885C78.8645 52.276 81.4114 52.3021 82.4947 49.3958C83.578 46.4896 83.1405 44.0208 82.4947 43.2604C81.8437 42.5 82.3853 42.2812 83.0103 41.3021C83.6301 40.3229 84.578 37.8802 84.7395 37.1771C84.9062 36.4688 84.578 39.2917 85.2291 41.0052C85.8801 42.7135 87.9635 42.2812 87.9635 42.2812C87.9635 42.2812 88.453 45.3229 88.427 47.1667C88.401 49.0156 88.776 49.6406 89.6197 50.2656C90.4582 50.8906 91.052 51.6771 91.2707 52.9792C91.4895 54.2812 91.9478 54.9375 92.9218 54.4219C93.8957 53.901 94.3853 52.7344 94.4947 51.7292C94.6041 50.724 94.5207 47.875 94.5207 47.875C94.5207 47.875 95.1718 49.125 95.2499 51.0781C95.3332 53.0365 96.0103 53.7969 97.0155 53.1406C98.0155 52.4896 98.3957 52.9792 98.2343 54.7708C98.0676 56.5625 98.1249 57.7604 98.5832 58.8438C99.0468 59.9323 101.021 60.8281 102.271 59.8229C103.516 58.8177 103.76 56.5365 103.542 55.151C103.328 53.7656 104.083 55.3958 104.708 55.4219C105.328 55.4531 105.224 54.8542 105.953 54.5C106.682 54.1458 105.87 57.026 106.713 57.9479C107.552 58.875 109.531 57.7344 110.531 56.3177C111.531 54.9062 111.562 53.6302 111.318 53.0052C111.073 52.3802 112.588 51.5417 112.646 49.099C112.698 46.651 112.917 43.9375 111.937 42.0365C110.963 40.1354 110.614 40.6771 110.75 38.75C110.885 36.8229 111.667 34.9219 112.208 33.2917C112.755 31.6615 112.995 30.1406 112.995 30.1406C112.995 30.1406 113.62 31.8802 113.51 33.7812C113.401 35.6823 115.161 36.5208 115.896 36.0365C116.625 35.5469 118.417 31.7708 118.25 29.7344C118.088 27.6979 117.469 25.4427 117.276 23.9479C117.088 22.4583 118.521 21.8333 119.094 20.3906C119.661 18.9531 119.849 16.2083 119.797 14.9323C119.739 13.6563 120.609 11.1302 120.609 11.1302C120.609 11.1302 120.474 14.1198 121.125 16.8906C121.776 19.6615 121.719 20.1198 122.557 20.7188C123.401 21.3177 123.156 22.6458 122.859 24.5208C122.557 26.3958 121.505 29.4375 121.828 31.6615C122.151 33.8906 123.724 34.5156 124.536 34.1354C125.349 33.7552 125.891 31.9896 125.891 31.9896C125.891 31.9896 126.625 33.099 126.516 35.5469C126.406 37.9896 127.031 40.3542 127.437 41.7396C127.844 43.125 127.219 43.9375 126.812 46.2448C126.406 48.5521 127.271 49.2865 128.708 49.1771C130.146 49.0677 132.557 46.625 132.828 42.6615C133.099 38.6979 133.448 35.5729 132.422 33.9167C131.391 32.2604 131.906 31.474 131.771 29.9219C131.635 28.375 131.609 24.0313 131.771 22.974C131.932 21.9115 132.255 20.0938 133.557 18.0052C134.859 15.9115 136.104 13.3594 136.104 13.3594C136.104 13.3594 135.453 17.2708 136.917 17.4583C138.38 17.651 139.87 15.1771 139.682 11.8646C139.49 8.55208 138.651 7.59896 138.354 6.76042C138.057 5.91667 139.437 5.45833 140.927 3.33854C142.417 1.21875 142.875 0 142.875 0C142.875 0 142.823 2.38542 142.307 5.45833C141.792 8.52604 142.901 10.6979 144.094 11.4323C145.286 12.1667 145.911 12.5417 145.937 14.0625C145.963 15.5833 145.073 18.8698 145.042 20.6615C145.016 22.4583 145.26 23.8438 145.344 25.2812C145.422 26.7188 144.771 28.2969 144.88 30.224C144.99 32.151 145.099 34.349 146.125 34.7031C147.156 35.0573 148.187 31.1719 148.187 31.1719C148.187 31.1719 149.161 33.401 148.865 35.1094C148.562 36.8229 148.672 36.7396 149.078 37.8542C149.484 38.9688 149.594 40.7344 149.516 42.3594C149.432 43.9896 148.755 44.6146 148.646 46.0833C148.536 47.5469 149.187 51 149.516 51.8646C149.838 52.7344 149.62 51.4062 150.651 52.2448C151.682 53.0885 151.463 54.0365 151.786 54.7188C152.115 55.3958 153.115 54.9635 153.495 56.3177C153.875 57.6771 153.495 58.5729 153.766 59.3906C154.036 60.2031 156.016 56.9167 156.583 53.9844C157.151 51.0521 156.911 48.5781 156.151 46.9219C155.391 45.2656 155.932 44.5625 156.771 43.8542C157.615 43.151 158.266 41.901 158.266 41.901C158.266 41.901 158.37 44.1823 159.453 43.9896C160.536 43.8021 161.38 41.0052 160.838 38.4531C160.297 35.901 159.484 34.8958 159.891 33.3438C160.297 31.7969 163.625 28.2656 163.625 28.2656C163.625 28.2656 162.302 34.8646 162.844 36.1406C163.385 37.4167 164.141 36.901 164.469 37.8802C164.792 38.8594 164.224 43.6927 164.708 44.8333C165.198 45.974 166.255 47.7656 166.307 49.3958C166.365 51.026 165.958 53.2812 165.901 54.2812C165.849 55.2865 164.25 57.599 163.411 59.1198C162.573 60.6354 162 62.8906 162.083 65.4427C162.161 67.9948 162.76 69.3802 163.25 69.9271C163.734 70.4688 163.49 69.4375 164.276 69.2188C165.062 69 165.088 70.4688 166.068 68.4844C167.042 66.5052 167.286 64.0312 167.286 64.0312C167.286 64.0312 167.635 67.3438 167.771 69.5156C167.906 71.6927 167.958 72.0729 168.531 72.5312C169.099 72.9948 169.182 74.974 168.745 76.7969C168.312 78.6146 167.797 81.5208 167.88 82.849C167.963 84.1823 168.531 83.8021 168.583 84.9427C168.641 86.0833 168.068 86.8698 168.234 88.0104C168.396 89.151 168.99 88.7188 169.208 90.6198C169.422 92.5208 152.224 99.7969 152.224 99.7969C152.224 99.7969 26.5259 115.224 9.65095 92.9271Z" fill="#F2581A"/>
</g>
<path fill-rule="evenodd" clip-rule="evenodd" d="M75.6145 71.8906C75.6145 71.8906 74.4739 67.0573 75.2343 65.8646C75.9947 64.6667 76.0468 65.1042 78.703 63.6927C81.3541 62.2813 84.552 59.9427 86.5051 59.5104C88.453 59.0729 89.5364 59.1823 90.2395 60.2708C90.9478 61.3542 91.401 61.9948 93.5468 62.6615C95.6926 63.3229 97.9895 63.7448 99.3958 64.9427C100.807 66.1354 101.292 69.6667 101.187 71.8385C101.078 74.0104 101.781 79.4427 100.318 81.776C98.8541 84.1146 82.4947 85.5781 80.4374 84.4375C78.3749 83.2969 74.9635 75.0417 75.6145 71.8906Z" fill="#EF2E21"/>
<path fill-rule="evenodd" clip-rule="evenodd" d="M13.6875 92.7917C13.6302 92.8177 13.8229 90.8906 15.0937 89.3438C16.3697 87.7917 16.9895 86.4375 16.8541 85.1302C16.7187 83.8281 15.4739 82.2292 15.6093 80.5729C15.7447 78.9167 16.776 79.9167 17.1822 77.8281C17.5885 75.7344 17.8854 74.625 17.8854 74.625C17.8854 74.625 18.2083 76.4688 17.9114 77.9635C17.6145 79.4583 17.6666 80.1094 18.1302 80.2188C18.5885 80.3281 19.2135 78.5625 19.2135 78.5625C19.2135 78.5625 19.0208 79.9479 20.5104 80.599C22.0052 81.25 23.3281 80.9219 24.0885 78.75C24.8489 76.5781 25.5 73.6458 25.3645 72.8281C25.2291 72.0156 26.6614 72.8594 26.7968 74.4896C26.9322 76.1146 26.4166 77.8021 26.9583 78.8594C27.5 79.9167 28.4218 78.8073 28.6666 78.5052C28.9114 78.2083 28.75 79.5104 29.8854 80.8958C31.026 82.2813 31.9166 81.849 33 80.7083C34.0833 79.5677 34.7604 80.3542 35.6041 80.2708C36.4427 80.1875 37.6093 78.0156 37.4166 75.1927C37.2291 72.3698 37.5 68.0781 38.3645 66.2031C39.2343 64.3333 39.8802 63.8958 40.802 63.2969C41.7239 62.7031 42.7291 61.75 42.7291 61.75C42.7291 61.75 41.8333 64.0573 42.0781 65.2813C42.3229 66.5052 43.5677 66.4479 44.3229 65.526C45.0833 64.6042 45.302 64.7656 45.302 64.7656C45.302 64.7656 45.5156 67.2344 46.8697 67.099C48.2239 66.9635 49.7968 64.6823 50.3125 62.1875C50.8281 59.6875 51.151 58.9531 50.4218 58.4115C49.6875 57.8698 49.8802 57.3229 50.125 55.9115C50.3645 54.5 50.4739 53.3854 51.2864 52.1927C52.0989 50.9948 52.4791 50.6979 52.4791 50.6979C52.4791 50.6979 51.9114 55.1771 52.5052 55.5313C53.1041 55.8854 53.5885 55.3958 53.5885 55.3958C53.5885 55.3958 53.2395 57.6771 54.5104 57.7604C55.7864 57.8385 56.1927 56.5625 56.1927 56.5625C56.1927 56.5625 55.8645 58.0573 56.3541 58.901C56.8385 59.7396 55.9218 61.2083 55.3229 62.9167C54.7291 64.6302 54.3489 68.1302 55.5677 70.3073C56.7864 72.4792 58.0052 72.0417 58.1666 71.9063C58.3281 71.7708 58.0312 73.2917 58.7916 74.2969C59.5468 75.3021 60.0937 75.1667 60.1979 76.0625C60.3072 76.9583 59.8177 77.6667 60.9062 79.375C61.9895 81.0833 63.2083 80.6771 63.8854 79.2917C64.5625 77.9063 65.6979 74.1094 65.6458 72.9688C65.5885 71.8281 66.9166 73.349 67.4843 71.7708C68.0572 70.1979 68.2187 66.8854 67.7864 64.4115C67.3489 61.9427 67.4322 57.9479 66.6197 56.2917C65.8072 54.6354 65.4843 53.5781 65.7239 52.2448C65.9687 50.9167 67.2968 49.4479 67.9479 48.2813C68.5989 47.1146 68.8958 45.1198 68.8697 44.4219C68.8437 43.7188 70.5468 43.0417 70.5468 43.0417C70.5468 43.0417 69.4635 46.1927 69.3854 48.8802C69.302 51.5677 69.3541 52.5729 70.4114 52.7604C71.4687 52.9531 72.1718 51.8906 72.1718 51.8906C72.1718 51.8906 71.7656 55.2344 73.2031 56.2917C74.6406 57.349 75.3437 56.1302 75.3437 56.1302C75.3437 56.1302 75.7239 57.7604 76.3437 59.0885C76.9687 60.4219 77.3489 59.9323 78.052 60.7188C78.7552 61.5052 78.5104 62.7031 79.4062 62.2917C80.302 61.8854 80.2187 60.1198 81.1666 59.224C82.1145 58.3281 82.5208 57.7031 82.6562 56.8906C82.7916 56.0729 82.6562 55.0729 82.6562 55.0729C82.6562 55.0729 83.4166 56.2083 83.552 57.5677C83.6875 58.9271 84.9583 58.5729 85.2291 59.1146C85.4999 59.6615 84.6093 62.8646 83.901 64.9531C83.1979 67.0469 83.0364 67.1823 83.5781 68.5104C84.1197 69.8438 85.8802 71.7708 87.2083 72.099C88.5364 72.4219 88.4791 71.7708 89.6197 71.5C90.7552 71.2292 91.3802 68.3229 91.3802 68.3229C91.3802 68.3229 90.8906 70.7656 91.9739 71.6615C93.0572 72.5573 94.7395 71.2552 95.0364 69.2448C95.3333 67.2344 94.7916 66.5573 94.7395 65.4167C94.6875 64.276 96.2812 63.7865 97.6093 62.9167C98.9375 62.0521 99.5052 61.8594 99.5052 61.8594C99.5052 61.8594 98.3437 66.1771 98.3958 66.9115C98.4531 67.6458 99.5052 66.9375 99.5052 66.9375C99.5052 66.9375 99.3697 68.4583 99.2916 70.5208C99.2083 72.5885 99.9687 73.5104 101.432 73.8333C102.891 74.1615 103.87 73.5938 104.115 72.3958C104.354 71.2031 104.302 70.5521 105.198 70.5521C106.088 70.5521 106.385 71.3906 106.713 73.1563C107.036 74.9219 106.713 79.1302 107.661 80.2969C108.609 81.4635 111.182 81.0573 111.427 78.2344C111.672 75.4115 111.479 74.7292 110.802 72.6406C110.125 70.5521 110.016 70.276 110.479 69.651C110.937 69.026 111.615 68.2969 111.833 67.6979C112.047 67.099 111.911 68.974 111.885 70.25C111.859 71.526 113.161 72.4792 114.109 71.6094C115.057 70.7396 116.141 68.7292 116.521 66.8854C116.896 65.0365 116.87 64.0573 116.708 63.026C116.547 61.9948 117.682 61.724 117.656 60.4479C117.63 59.1719 117.385 56.8906 117.437 55.0156C117.495 53.1406 117.682 52.651 118.792 51.1042C119.906 49.5573 120.203 49.8854 120.771 48.7135C121.344 47.5469 121.937 46.2448 121.854 46.5417C121.776 46.8438 121.719 47.9531 121.099 49.9375C120.474 51.9219 120.99 55.3698 121.776 56.6198C122.557 57.8698 123.24 57.3802 123.781 56.6198C124.323 55.8594 124.536 56.4427 124.156 58.3438C123.781 60.2448 124.698 61.8177 125.703 63.0938C126.703 64.3698 128.302 63.7448 129.713 63.3958C131.12 63.0417 132.151 64.0729 133.693 61.9531C135.24 59.8333 135.724 56.0052 135.104 54.026C134.479 52.0417 133.937 53.0208 133.802 51.8229C133.667 50.6302 135.047 47.5052 135.047 47.5052C135.047 47.5052 135.51 49.625 136.427 48.8125C137.349 47.9948 138.161 45.1198 138.328 43.3802C138.49 41.6406 138.734 40.0365 138.38 38.8438C138.026 37.651 140.411 35.2344 140.411 35.2344C140.411 35.2344 139.844 38 139.573 40.7188C139.302 43.4323 139.599 45.1979 140.333 46.474C141.062 47.75 141.823 47.3958 142.5 48.6198C143.177 49.8438 142.391 52.9115 143.687 53.9948C144.99 55.0833 145.964 54.4583 145.964 54.4583C145.964 54.4583 146.401 55.8698 145.479 57.6094C144.557 59.349 144.042 62.4427 144.448 64.125C144.854 65.8125 145.505 67.7656 147.156 68.0625C148.812 68.3646 151.302 68.4427 152.385 66.7083C153.469 64.9688 153.281 64.4531 153.333 63.4219C153.391 62.3906 155.583 62.4427 155.583 62.4427C155.583 62.4427 153.849 65.9167 154.906 67.6563C155.964 69.3958 157.885 67.7917 158.427 64.9948C158.969 62.1979 158.995 58.2865 158.995 58.2865C158.995 58.2865 160.135 63.474 160.214 65.7292C160.297 67.9844 159.13 70.375 158.536 72C157.937 73.6302 159.214 73.9583 159.755 74.7708C160.297 75.5885 161.187 74.4167 161.187 74.4167C161.187 74.4167 161.87 75.2604 161.786 77C161.703 78.7344 161.026 79.1719 161.271 80.2865C161.516 81.3958 164.953 80.6927 163.979 86.5573C163.005 92.4219 158.234 96.1146 158.234 96.1146C158.234 96.1146 112.62 105.458 99.3958 101.984C86.177 98.5052 78.6458 87.6406 76.4791 86.5052C74.3125 85.3646 73.9895 84.3281 72.6354 82.8646C71.2812 81.3958 69.7604 81.1823 68.302 81.9427C66.8385 82.6979 67.3802 83.1875 66.5104 84.3854C65.6458 85.5781 64.9427 85.1458 63.6927 85.2552C62.4479 85.3646 63.9635 85.4167 62.0156 87.9167C60.0625 90.4115 60.0625 90.1406 58.2239 90.25C56.3802 90.3594 53.5625 88.0208 44.5677 93.6719C35.5781 99.3229 19.9739 106.49 13.6875 92.7917Z" fill="#F9CB08"/>
<path fill-rule="evenodd" clip-rule="evenodd" d="M67.4062 82.1146C67.2291 82.5781 66.6718 89.4375 68.8958 90.5781C71.1145 91.7188 79.677 85.1458 79.625 84.7656C79.5677 84.3854 74.7447 77.1094 74.7447 77.1094C74.7447 77.1094 68.5156 79.8229 67.4062 82.1146Z" fill="#4C1517"/>
<path fill-rule="evenodd" clip-rule="evenodd" d="M69.0051 82.1042C69.0051 82.1042 68.5728 85.1458 69.1666 87.0469C69.7603 88.9479 69.5468 90.7396 69.5468 92.5313C69.5468 94.3229 66.6718 101.766 64.9947 102.417C63.3176 103.068 58.276 96.1146 57.8437 93.8333C57.4114 91.5521 66.8905 81.8854 69.0051 82.1042Z" fill="#151312"/>
<path fill-rule="evenodd" clip-rule="evenodd" d="M75.6145 71.8906C75.6145 71.8906 74.4739 67.0573 75.2343 65.8646C75.9947 64.6667 76.0468 65.1042 78.703 63.6927C80.8385 62.5521 83.328 60.8177 85.2395 59.9583C85.0676 61.1875 84.4322 63.3854 83.901 64.9531C83.1978 67.0469 83.0364 67.1823 83.578 68.5104C84.1197 69.8437 85.8801 71.7708 87.2083 72.099C88.5364 72.4219 88.4791 71.7708 89.6197 71.5C90.7551 71.2292 91.3801 68.3229 91.3801 68.3229C91.3801 68.3229 90.8905 70.7656 91.9739 71.6615C93.0572 72.5573 94.7395 71.2552 95.0364 69.2448C95.3333 67.2344 94.7916 66.5573 94.7395 65.4167C94.6978 64.5729 95.5624 64.0833 96.552 63.5365C97.3905 63.8073 98.1718 64.1146 98.8333 64.526C98.5833 65.5677 98.3697 66.5885 98.3958 66.9115C98.453 67.6458 99.5051 66.9375 99.5051 66.9375C99.5051 66.9375 99.3697 68.4583 99.2916 70.5208C99.2135 72.4792 99.8905 73.4062 101.203 73.776C101.286 76.349 101.448 79.9792 100.318 81.776C98.8541 84.1146 82.4947 85.5781 80.4374 84.4375C78.3749 83.2969 74.9635 75.0417 75.6145 71.8906Z" fill="#F89D0E"/>
<path fill-rule="evenodd" clip-rule="evenodd" d="M59.4114 92.099C59.4114 92.099 62.7708 91.2813 64.5625 89.3802C66.3489 87.4792 67.4635 85.6979 68.8541 84.0625C70.25 82.4271 70.875 82.1875 71.7135 81.9427C72.5521 81.6927 73.9844 84.0625 74.9219 84.401C75.8594 84.7396 81.25 81.5885 81.4114 81.2917C81.5729 80.9896 81.9791 77.7031 81.4896 75.75C81.0052 73.7917 77.3489 70.2083 76.75 69.7188C76.1562 69.2292 72.526 68.0104 69.7604 67.25C67 66.4896 67.5937 65.7292 64.5625 65.2917C61.526 64.8594 60.9323 63.0104 60.2239 62.1458C59.5208 61.276 56.9896 62.5 55.0885 64.0833C53.1823 65.6719 50.6354 67.8438 48.8489 69.5313C47.0625 71.2135 45.8698 71.8125 45.4896 73.1667C45.1094 74.526 44.5156 76.6458 44.0833 78.6563C43.6458 80.6667 45.5989 87.3438 59.4114 92.099Z" fill="#CA1E25"/>
<path fill-rule="evenodd" clip-rule="evenodd" d="M71.5728 81.9844L71.7135 81.9427C72.552 81.6927 73.9843 84.0625 74.9218 84.4011C75.8593 84.7396 81.2499 81.5886 81.4114 81.2917C81.5728 80.9896 81.9791 77.7031 81.4895 75.75C81.0051 73.7917 77.3489 70.2083 76.7499 69.7188C76.1562 69.2292 72.526 68.0104 69.7603 67.25C68.9426 67.0261 68.4218 66.7969 68.0103 66.5833C68.0989 68.5677 67.901 70.6302 67.4843 71.7708C66.9166 73.349 65.5884 71.8281 65.6457 72.9688C65.6978 74.1094 64.5624 77.9063 63.8853 79.2917C63.2082 80.6771 61.9895 81.0833 60.9062 79.375C59.8176 77.6667 60.3072 76.9583 60.1978 76.0625C60.0937 75.1667 59.5468 75.3021 58.7916 74.2969C58.0312 73.2917 58.328 71.7708 58.1666 71.9063C58.0051 72.0417 56.7864 72.4792 55.5676 70.3073C54.5989 68.5729 54.6405 66 54.9999 64.1615C53.1041 65.7396 50.6093 67.8698 48.8489 69.5313C47.0624 71.2136 45.8697 71.8125 45.4895 73.1667C45.1093 74.5261 44.5155 76.6458 44.0832 78.6563C43.7135 80.3646 45.078 85.474 54.0416 89.8854C56.1197 89.7396 57.2968 90.3073 58.2239 90.25C60.0624 90.1406 60.0624 90.4115 62.0155 87.9167C63.9635 85.4167 62.4478 85.3646 63.6926 85.2552C64.9426 85.1458 65.6457 85.5781 66.5103 84.3854C67.3801 83.1875 66.8385 82.6979 68.302 81.9427C69.3905 81.375 70.5103 81.349 71.5728 81.9844Z" fill="#EF2E21"/>
<path fill-rule="evenodd" clip-rule="evenodd" d="M25.6041 92.8854C25.6041 92.8854 23.7656 88.7552 22.3021 86.474C20.8385 84.1927 20.2968 83.1615 20.2396 82.0781C20.1875 80.9896 21.0521 77.5677 21.5416 74.9063C22.0312 72.2448 22.1927 68.1198 22.8437 67.1406C23.4948 66.1615 24.7916 66.8125 27.0677 67.25C29.3437 67.6823 32.8646 68.4427 34.7083 68.8229C36.5521 69.2031 38.7187 69.1511 40.0729 70.1823C41.4271 71.2136 43.7291 75.1563 44.7448 75.9011C45.7604 76.6459 46.4635 79.849 46.1927 82.0781C45.9218 84.3021 38.3385 92.7188 35.0885 94.0261C31.8385 95.3281 27.0677 97.0104 25.6041 92.8854Z" fill="#EF2E21"/>
<path fill-rule="evenodd" clip-rule="evenodd" d="M25.6041 92.8854C25.6041 92.8854 23.7656 88.7552 22.302 86.474C20.8385 84.1927 20.2968 83.1615 20.2395 82.0781C20.2187 81.6146 20.3645 80.724 20.5729 79.6562C20.6249 79.6771 20.677 79.7031 20.7291 79.7292C22.2187 80.3802 23.5468 80.0521 24.3072 77.8802C25.0624 75.7083 25.7135 72.776 25.5781 71.9635C25.4427 71.1458 26.8802 71.9896 27.0156 73.6198C27.151 75.25 26.6354 76.9323 27.177 77.9896C27.7187 79.0521 28.6406 77.9375 28.8854 77.6354C29.1302 77.3385 28.9635 78.6406 30.1041 80.026C31.2395 81.4115 32.1354 80.9792 33.2187 79.8385C34.302 78.6979 34.9791 79.4844 35.8177 79.401C36.6562 79.3229 37.776 76.4688 37.6354 74.3229C37.4895 72.1771 37.4479 70.9792 37.6145 69.2656C38.4947 69.4271 39.0729 69.4219 40.0729 70.1823C41.0677 70.9427 44.3229 74.8854 45.3385 75.6302C46.3541 76.375 46.4635 79.849 46.1927 82.0781C45.9218 84.3021 38.3385 92.7188 35.0885 94.026C31.8385 95.3281 27.0677 97.0104 25.6041 92.8854Z" fill="#F89D0E"/>
<path fill-rule="evenodd" clip-rule="evenodd" d="M4.96356 94.7865C4.96356 94.7865 5.39585 92.9115 6.15627 92.4219C6.91668 91.9323 9.27085 91.4167 10.9792 91.0365C12.6823 90.6563 14.6094 90.3021 15.9636 89.7344C17.3177 89.1667 18.2656 88.6458 19.1302 88.4583C20 88.2656 19.4011 91.4167 17.0729 94.4583C14.7448 97.5 7.26564 101.599 5.53127 101.438C3.79689 101.276 4.77606 96.1146 4.96356 94.7865Z" fill="#6B6C6E"/>
<mask id="mask1_22_6057" style="mask-type:luminance" maskUnits="userSpaceOnUse" x="0" y="93" width="11" height="17">
<path d="M0 93.5729H10.0313V109.573H0V93.5729Z" fill="white"/>
</mask>
<g mask="url(#mask1_22_6057)">
<path fill-rule="evenodd" clip-rule="evenodd" d="M4.96358 94.7865C4.96358 94.7865 5.724 95.4896 6.2917 96.7396C6.85941 97.9896 9.21879 102.469 9.32296 103.99C9.43233 105.51 10.4896 107.74 8.70316 108.688C6.91671 109.641 1.73962 108.5 0.90108 107.495C0.062539 106.49 0.00524731 105.865 0.385455 104.859C0.765663 103.854 2.06775 101.74 2.93233 99.5104C3.79691 97.2865 4.2865 97.2292 4.96358 94.7865Z" fill="#252323"/>
</g>
<path fill-rule="evenodd" clip-rule="evenodd" d="M7.89059 107.385C7.89059 107.385 7.26559 104.589 6.88538 102.604C6.51038 100.625 5.68226 98.0208 6.39059 96.9583C7.10414 95.901 8.48434 95.8698 9.81247 94.9479C11.1406 94.026 12.6979 92.9583 14.0989 92.3385C15.5 91.7188 18.2448 88.6823 19.3125 88.474C20.375 88.2656 22.9218 89.8177 23.7656 90.0885C24.6041 90.3594 26.0416 90.901 26.9062 92.3125C27.7708 93.7292 28.0156 94.026 27.9375 95.0573C27.8541 96.0885 28.3125 109.719 26.1458 112.219C23.9791 114.719 21.3802 113.359 20.1354 112.87C18.8854 112.38 8.75518 109.557 7.89059 107.385Z" fill="#494A4B"/>
<path fill-rule="evenodd" clip-rule="evenodd" d="M22.4114 113.036C22.4114 113.036 20.8905 113.797 18.5624 114.177C16.2343 114.557 14.3905 114.177 13.1978 114.068C12.0051 113.958 11.1926 114.609 10.0572 114.609C8.91659 114.609 7.72388 112.656 5.6145 111.188C3.49992 109.719 1.08325 107.667 1.08325 107.667C1.08325 107.667 1.927 107.984 3.88013 107.167C5.82804 106.354 7.46346 106.188 8.59367 106.354C9.72388 106.521 11.5728 107.276 13.3593 107.714C15.151 108.146 16.9895 108.635 18.8853 109.938C20.7812 111.245 21.2187 112.328 22.4114 113.036Z" fill="#151312"/>
<path fill-rule="evenodd" clip-rule="evenodd" d="M57.2448 84.4115C57.5729 84.6302 58.8698 88.3229 60.3333 90.4948C61.7969 92.6667 62.8802 93.2083 64.125 95.2761C65.375 97.3386 65.9687 100.979 65.9687 100.979C65.9687 100.979 55.9479 100.49 55.026 99.8386C54.1042 99.1875 50.5833 85.2292 57.2448 84.4115Z" fill="#494A4B"/>
<path fill-rule="evenodd" clip-rule="evenodd" d="M54.8645 92.9375C54.8645 92.9375 59.3593 93.2083 60.3333 94.349C61.3072 95.4896 61.526 96.0365 62.9374 97.1771C64.3437 98.3177 66.2395 99.0781 66.6197 101.844C66.9999 104.615 67.9739 110.589 65.1562 112.49C62.3385 114.391 53.0729 113.25 50.4218 111.078C47.7656 108.906 45.651 104.781 45.2187 102.552C44.7864 100.323 53.0208 93.1562 54.8645 92.9375Z" fill="#252323"/>
<path fill-rule="evenodd" clip-rule="evenodd" d="M46.7708 104.161C46.7708 104.161 47.9792 102.333 51.125 99.4011C54.2656 96.4688 56.1615 94.0261 56.3229 91.9636C56.4896 89.8958 56.5938 87.8333 56.8125 86.6927C57.0313 85.5521 57.2448 84.4115 57.2448 84.4115C57.2448 84.4115 57.0313 83.7604 56.0521 83.7083C55.0781 83.6511 54.4011 83.7604 52.9948 83.1094C51.5833 82.4583 49.0104 81.8698 46.2344 81.6198C43.4583 81.3698 42.6979 81.0156 41.724 80.8802C40.75 80.7448 37.5 84.3021 35.4375 86.474C33.3802 88.6511 31.1615 91.4167 28.3698 93.0729C25.5781 94.7292 25.5261 94.0521 24.3333 94.7604C23.1406 95.4636 20.7552 98.9115 20.6198 100C20.4844 101.083 41.0208 109.313 46.7708 104.161Z" fill="#6B6C6E"/>
<path fill-rule="evenodd" clip-rule="evenodd" d="M23.4896 111.214C23.4896 111.214 23.4635 110.427 22.3802 106.844C21.2969 103.255 20.3125 100.865 20.6198 100C20.9271 99.1354 21.9739 99.2656 23.1146 99.349C24.25 99.4271 25.6875 98.5886 26.9323 98.4531C28.1771 98.3177 30.0729 98.7344 31.6979 98.9167C33.3229 99.1042 35.1927 99.4011 36.901 99.8646C38.6094 100.323 39.1198 100.703 41.0208 100.844C42.9166 100.979 44.375 101.385 46.3021 101.927C48.2239 102.469 49.8489 104.156 50.4166 105.052C50.9896 105.948 51.8281 107.359 52.5573 107.63C53.2916 107.901 53.5625 108.198 53.9948 109.37C54.4271 110.536 55.3229 113.688 55.2656 114.01C55.2135 114.339 53.2344 114.094 51.3646 114.719C49.5 115.344 49.2812 115.208 47.6823 114.771C46.0833 114.339 46.3021 114.583 44.2135 114.828C42.1302 115.073 25.1146 113.141 23.4896 111.214Z" fill="#151312"/>
<path fill-rule="evenodd" clip-rule="evenodd" d="M40.0676 104.75C40.0676 104.75 43.4843 108.333 42.5103 110.099C41.5312 111.865 37.2551 114.365 35.4634 113.417C33.677 112.464 33.3228 108.823 34.1666 107.276C35.0051 105.729 38.1457 104.292 40.0676 104.75Z" fill="#4C1517"/>
<mask id="mask2_22_6057" style="mask-type:luminance" maskUnits="userSpaceOnUse" x="31" y="108" width="16" height="12">
<path d="M31.3645 108.24H46.0312V120H31.3645V108.24Z" fill="white"/>
</mask>
<g mask="url(#mask2_22_6057)">
<path fill-rule="evenodd" clip-rule="evenodd" d="M32.9999 118.953C32.9999 118.953 35.7083 118.708 38.3645 118.411C41.0208 118.115 43.1562 117.568 43.9687 117.109C44.7812 116.646 44.7031 115.151 44.7031 115.151C44.7031 115.151 45.026 113.495 43.9687 111.594C42.9166 109.693 42.0937 108.724 40.151 108.932C38.2083 109.146 37.526 110.182 36.4426 110.833C35.3593 111.484 35.2499 110.833 33.6249 111.839C31.9947 112.844 30.3749 117.922 32.9999 118.953Z" fill="#151312"/>
</g>
<mask id="mask3_22_6057" style="mask-type:luminance" maskUnits="userSpaceOnUse" x="26" y="110" width="10" height="10">
<path d="M26.0312 110.906H35.3646V120H26.0312V110.906Z" fill="white"/>
</mask>
<g mask="url(#mask3_22_6057)">
<path fill-rule="evenodd" clip-rule="evenodd" d="M33 118.953C33 118.953 33.8646 115.667 34.0313 114.526C34.1927 113.385 34.2188 111.214 34.2188 111.214L26.7969 116.427C26.7969 116.427 26.6615 119.281 27.0157 119.578C27.3646 119.88 29.4792 119.172 33 118.953Z" fill="#494A4B"/>
</g>
<mask id="mask4_22_6057" style="mask-type:luminance" maskUnits="userSpaceOnUse" x="20" y="104" width="19" height="16">
<path d="M20.6979 104.24H38.0312V120H20.6979V104.24Z" fill="white"/>
</mask>
<g mask="url(#mask4_22_6057)">
<path fill-rule="evenodd" clip-rule="evenodd" d="M37.1718 106.083C37.1718 106.083 35.953 110.51 34.9478 112.083C33.9478 113.656 33.2187 114.281 32.026 115.531C30.8333 116.781 30.6978 117.052 29.5885 118.005C28.4739 118.953 27.4999 119.578 27.0155 119.578C26.526 119.578 26.4426 118.953 24.953 118.115C23.4635 117.271 23.2187 117.052 22.2708 116.24C21.3228 115.422 21.2708 115.208 20.8905 114.932C20.5103 114.661 21.2447 113.198 21.9218 112.141C22.5989 111.078 29.1249 103.313 37.1718 106.083Z" fill="#252323"/>
</g>
<path fill-rule="evenodd" clip-rule="evenodd" d="M40.3437 105.052C40.3437 105.052 39.3124 105.339 37.9166 106.786C36.526 108.229 35.7083 108.255 34.8697 107.578C34.0312 106.896 34.0572 106.922 32.8645 107.276C31.6718 107.63 31.5155 107.526 29.4218 108.063C27.3333 108.604 27.0155 108.771 25.2499 109.995C23.4895 111.214 21.6926 112.5 21.6926 112.5C21.6926 112.5 22.0312 111.052 22.7603 109.505C23.4895 107.958 23.8697 107.469 24.2499 106.438C24.6301 105.401 25.177 103.479 25.8489 103.177C26.5155 102.87 27.5572 103.99 29.1249 103.531C30.6978 103.068 31.0937 102.693 32.9739 102.771C34.8541 102.849 36.927 102.661 37.6874 102.88C38.4426 103.094 40.8541 104.724 40.3437 105.052Z" fill="#6B6C6E"/>
<path fill-rule="evenodd" clip-rule="evenodd" d="M37.6875 102.88C37.6875 102.88 39.0938 102.958 39.8281 102.958C40.5573 102.958 41.099 103.911 41.4792 104.672C41.8594 105.432 42.2396 106.542 43.1562 108.036C44.0781 109.531 45.1354 111.297 45.5677 112.193C46.0052 113.089 45.4062 113.932 45.2708 114.5C45.1354 115.073 44.5781 116.234 44.5781 116.234C44.5781 116.234 44.6771 114.635 43.8333 113.036C42.9948 111.432 41.9688 109.911 41.1823 109.177C40.3958 108.443 40.4427 107.958 39.7448 106.87C39.0469 105.781 39.7708 105.13 37.6875 102.88Z" fill="#494A4B"/>
<path fill-rule="evenodd" clip-rule="evenodd" d="M99.2031 80.9635C99.2031 80.9635 99.75 80.151 99.3125 76.8906C98.8802 73.6302 98.8958 72.3385 99.0989 72.1927C99.3021 72.0417 101.578 70.0573 102.766 67.9948C103.958 65.9323 104.828 62.6719 105.286 61.9948C105.75 61.3125 108.323 61.8333 110.219 61.776C112.115 61.724 116.286 61.6667 117.344 62.1563C118.401 62.6458 118.911 64.7656 119.536 65.9583C120.161 67.1563 122.812 69.9792 123.682 71.0365C124.547 72.0938 124.276 73.2083 125.062 74.5104C125.849 75.8177 126.661 79.5104 126.391 82.3333C126.12 85.1563 122.651 96.8333 117.557 97.4323C112.469 98.0313 96.4271 85.7031 99.2031 80.9635Z" fill="#CA1E25"/>
<path fill-rule="evenodd" clip-rule="evenodd" d="M99.2031 80.9636C99.2031 80.9636 99.75 80.1511 99.3125 76.8906C98.8802 73.6302 98.8958 72.3386 99.0989 72.1927C99.1354 72.1667 99.2448 72.0729 99.401 71.9323C99.6614 73.0365 100.354 73.5938 101.432 73.8333C102.891 74.1615 103.87 73.5938 104.115 72.3958C104.354 71.2031 104.302 70.5521 105.198 70.5521C106.089 70.5521 106.385 71.3906 106.714 73.1563C107.036 74.9219 106.714 79.1302 107.661 80.2969C108.609 81.4636 111.182 81.0573 111.427 78.2344C111.672 75.4115 111.479 74.7292 110.802 72.6406C110.125 70.5521 110.016 70.2761 110.479 69.6511C110.937 69.0261 111.615 68.2969 111.833 67.6979C112.047 67.099 111.911 68.974 111.885 70.25C111.859 71.5261 113.161 72.4792 114.109 71.6094C115.057 70.7396 116.141 68.7292 116.521 66.8854C116.896 65.0365 116.87 64.0573 116.708 63.0261C116.646 62.6146 116.786 62.3229 116.984 62.0365C117.125 62.0729 117.245 62.1146 117.344 62.1563C118.401 62.6458 118.911 64.7656 119.536 65.9583C120.161 67.1563 122.812 69.9792 123.682 71.0365C124.547 72.0938 124.276 73.2083 125.062 74.5104C125.849 75.8177 126.661 79.5104 126.391 82.3333C126.12 85.1563 122.651 96.8333 117.557 97.4323C112.469 98.0313 96.4271 85.7031 99.2031 80.9636Z" fill="#EF2E21"/>
<path fill-rule="evenodd" clip-rule="evenodd" d="M166.672 87.9271C166.672 87.9271 172.687 94.0104 174.042 95.3698C175.396 96.7292 170.193 100.203 169.708 100.365C169.219 100.526 162.823 98.4115 162.823 98.4115C162.823 98.4115 161.906 89.3958 166.672 87.9271Z" fill="#252323"/>
<mask id="mask5_22_6057" style="mask-type:luminance" maskUnits="userSpaceOnUse" x="171" y="100" width="6" height="10">
<path d="M171.365 100.24H177V109.573H171.365V100.24Z" fill="white"/>
</mask>
<g mask="url(#mask5_22_6057)">
<path fill-rule="evenodd" clip-rule="evenodd" d="M176.531 100.635C176.531 100.635 176.479 103.354 176.589 104.984C176.693 106.609 176.969 108.51 176.969 108.51C176.969 108.51 172.198 106.88 171.708 104.328C171.224 101.776 173.609 100.745 176.531 100.635Z" fill="#252323"/>
</g>
<mask id="mask6_22_6057" style="mask-type:luminance" maskUnits="userSpaceOnUse" x="163" y="102" width="14" height="12">
<path d="M163.365 102.906H177V113.573H163.365V102.906Z" fill="white"/>
</mask>
<g mask="url(#mask6_22_6057)">
<path fill-rule="evenodd" clip-rule="evenodd" d="M173.068 103.354C173.068 103.354 174.693 105.229 175.557 106.094C176.422 106.964 176.937 107.479 176.969 108.51C176.995 109.542 176.641 110.115 175.911 110.604C175.177 111.094 174.364 111.391 172.932 111.797C171.495 112.208 171.901 111.771 170.76 112.125C169.625 112.479 168.135 113.646 166.104 113.292C164.073 112.937 164.099 107.781 165.318 105.906C166.536 104.031 170.818 102.703 173.068 103.354Z" fill="#151312"/>
</g>
<path fill-rule="evenodd" clip-rule="evenodd" d="M168.135 107.047C168.135 107.047 170.198 106.313 172.255 105.443C174.307 104.573 174.719 103.568 175.068 102.484C175.422 101.396 176.505 101.344 176.531 100.635C176.562 99.9323 176.615 98.5729 176.422 97.9479C176.234 97.3229 174.677 95.9271 174.208 95.6198C173.745 95.3125 172.932 95.5833 172.062 95.9948C171.198 96.401 170.411 96.5365 168.948 96.5365C167.484 96.5365 165.75 96.0208 164.911 96.6198C164.073 97.2135 164.724 105.797 168.135 107.047Z" fill="#925E4B"/>
<path fill-rule="evenodd" clip-rule="evenodd" d="M166.078 96.9688C166.078 96.9688 167.349 99.0886 167.807 101.073C168.271 103.052 168.531 104.542 168.922 105.578C169.307 106.615 168.974 108.729 168.812 109.87C168.651 111.01 167.172 113.104 165.797 113.198C164.422 113.292 163.042 113.047 161.797 112.75C160.552 112.448 160.604 112.505 158.818 112.068C157.026 111.635 153.208 107.266 151.526 104.495C149.849 101.724 151.042 97.6511 152.286 96.4011C153.531 95.1511 160.307 95.3698 166.078 96.9688Z" fill="#252323"/>
<path fill-rule="evenodd" clip-rule="evenodd" d="M121.516 85.974C121.516 85.974 120.536 84.9427 121.516 83.2552C122.49 81.5729 123.193 80.974 122.271 79.2917C121.349 77.6094 121.458 75.1094 122.161 73.9688C122.87 72.8281 123.661 73.4167 124.307 72.3073C124.953 71.1979 125.115 70.3021 125.115 70.3021C125.115 70.3021 125.495 70.8438 125.198 72.0677C124.901 73.2917 126.5 73.5104 127.313 72.5573C128.125 71.6042 128.938 68.6198 129.016 67.125C129.099 65.6302 129.281 65.2396 128.557 64.1094C127.828 62.9844 130.37 59.8229 130.833 59.3073C131.292 58.7917 130.859 60.8802 131.318 62.7552C131.781 64.6302 133.161 64.9792 134.438 63.8698C135.708 62.7552 136.438 60.1198 136.495 58.3021C136.547 56.4792 136.74 54.9063 136.604 54.0104C136.469 53.1146 139.661 50.151 139.661 50.151C139.661 50.151 138.578 54.0104 139.286 56.5365C139.99 59.0625 140.583 59.5781 141.479 59.5208C142.375 59.4688 142.536 59.1146 142.536 60.4167C142.536 61.724 142.563 64.599 142.943 66.5573C143.323 68.5104 143.375 68.4583 143.917 69.2188C144.458 69.9792 144.484 71.9063 144.729 73.3698C144.974 74.8385 146.682 74.6771 147.599 73.1302C148.521 71.5781 148.063 67.1823 147.63 64.8698C147.193 62.5625 147.193 61.2865 147.708 60.3646C148.224 59.4427 149.495 58.9531 149.495 58.9531C149.495 58.9531 148.849 61.776 149.224 64.7917C149.604 67.8073 149.604 68.4844 150.229 69.026C150.854 69.5677 151.5 68.9479 151.667 69.0833C151.828 69.2188 152.099 72.8021 152.234 74.2135C152.37 75.625 152.531 79.0208 154.266 79.8333C156 80.651 156.865 79.0469 157.271 77.6615C157.677 76.276 157.406 74.2396 157.406 74.2396C157.406 74.2396 158.167 74.349 158.438 76.4948C158.708 78.6406 158.792 79.4531 160.443 80.9479C162.094 82.4427 162.859 82.3073 162.813 80.4063C162.771 78.5052 162.526 77.3646 163.125 76.1667C163.719 74.974 164.344 74.6198 164.344 74.6198C164.344 74.6198 164.667 78.6667 165.047 80.625C165.427 82.5781 165.943 83.8802 166.266 85.4583C166.594 87.0313 166.672 87.9271 166.672 87.9271C166.672 87.9271 164.531 88.8229 164.151 88.9323C163.776 89.0417 149.635 90.8854 149.635 90.8854C149.635 90.8854 126.552 88.3333 121.516 85.974Z" fill="#F57A14"/>
<path fill-rule="evenodd" clip-rule="evenodd" d="M122 83.8802C122 83.8802 122.76 83.1458 123.656 81.7917C124.547 80.4323 126.172 78.2865 126.88 77.7448C127.583 77.2031 128.911 77.5781 130.479 77.3906C132.052 77.2031 131.865 82.7396 130.885 83.9063C129.911 85.0781 123.734 87.3594 122 83.8802Z" fill="#921A1F"/>
<path fill-rule="evenodd" clip-rule="evenodd" d="M145.677 84.8854C145.76 82.7656 145.786 80.651 146.135 79.8073C146.49 78.9635 147.141 79.401 147.76 78.75C148.385 78.0938 149.036 76.5729 149.036 76.5729C149.036 76.5729 149.307 76.875 148.875 78.9375C148.443 81 149.255 83.2552 150.036 84.099C150.823 84.9375 151.203 82.9844 150.88 81.5729C150.552 80.1615 150.823 81.3281 151.906 82.1719C152.99 83.0104 153.37 82.8229 153.698 83.2031C154.021 83.5833 153.937 84.2604 153.937 84.2604C153.937 84.2604 152.344 90.5625 150.99 91.1562C149.63 91.7552 145.406 89.8802 145.677 84.8854ZM130.479 77.3906C130.562 76.4375 130.615 76.6042 129.964 75.7083C129.318 74.8125 130.26 73.5625 131.021 72.2292C131.781 70.901 132.62 69.9479 132.62 69.9479C132.62 69.9479 132.078 71.3073 132.401 72.7708C132.729 74.2396 133.271 74.2396 133.865 73.8594C134.464 73.4792 134.464 72.8021 134.922 72.3906C135.385 71.9844 136.25 72.5 136.63 71.4427C137.01 70.3854 137.385 69.349 137.172 68.1823C136.953 67.0156 136.682 65.9323 136.901 65.25C137.115 64.5729 137.281 68.1823 138.333 68.4844C139.391 68.7813 139.286 67.0729 139.286 67.0729C139.286 67.0729 140.042 68.8906 140.854 70.7344C141.667 72.5833 141.828 72.8281 141.615 74.0208C141.396 75.2188 140.339 76.0573 140.177 78.2604C140.016 80.4583 131.641 80.2448 130.479 77.3906Z" fill="#F9CB08"/>
<path fill-rule="evenodd" clip-rule="evenodd" d="M153.937 84.2604C155.078 84.2083 156.755 85.0208 158.109 85.0729C159.469 85.1302 162.557 84.8594 163.422 84.9688C164.286 85.0729 166.203 87.4531 166.672 87.9271C167.146 88.4063 166.427 90.2083 167.026 91.4271C167.62 92.6511 168.187 92.7604 168.245 93.4948C168.297 94.2292 167.937 94.9792 167.865 95.7188C167.786 96.4636 166.781 96.3698 165.859 97.7292C164.937 99.0938 148.25 90.7292 153.937 84.2604Z" fill="#5A2F31"/>
<path fill-rule="evenodd" clip-rule="evenodd" d="M148.088 89.9063C148.088 89.9063 148.927 90.6146 150.068 88.5261C151.203 86.4323 151.255 85.6719 152.042 84.9375C152.828 84.2083 153.937 84.2604 153.937 84.2604C153.937 84.2604 153.479 85.5938 153.911 87.1406C154.344 88.6875 154.833 89.4531 155.864 89.6927C156.896 89.9323 156.406 90.6406 157.463 90.9427C158.516 91.2396 159.057 90.0469 159.25 88.9323C159.437 87.8177 159.437 87.1094 159.437 87.1094C159.437 87.1094 160.443 88.0886 160.927 89.9375C161.417 91.7813 161.333 91.8646 161.984 92.6771C162.635 93.4948 163.5 92.0261 164.557 93.3854C165.614 94.7448 166.349 96.3438 165.859 97.7292C165.37 99.1146 163.312 101.583 162.474 101.885C161.635 102.182 160.521 100.255 159.25 99.6302C157.974 99.0052 157.38 98.9792 156.052 99.7136C154.724 100.448 146.708 92.3542 148.088 89.9063Z" fill="#F2581A"/>
<path fill-rule="evenodd" clip-rule="evenodd" d="M140.125 78.5052C140.125 78.5052 140.854 78.7188 141.615 78.6094C142.375 78.5052 142.807 80.8646 143.729 82.1979C144.646 83.5261 145.083 84.099 145.677 84.8854C146.276 85.6719 146.682 89.3646 145.38 90.2083C144.078 91.0521 140.234 89.5261 139.313 87.8438C138.391 86.1615 137.984 79.625 140.125 78.5052Z" fill="#921A1F"/>
<path fill-rule="evenodd" clip-rule="evenodd" d="M126.714 83.0625C126.714 83.0625 128.802 82.4115 129.505 81.1667C130.208 79.9167 130.479 77.3906 130.479 77.3906C130.479 77.3906 132.458 77.0365 134.193 77.1979C135.927 77.3594 137.146 77.8229 138.172 78.0677C139.203 78.3125 140.125 78.5052 140.125 78.5052C140.125 78.5052 140.312 82.9583 140.938 84.9375C141.557 86.9219 142.75 88.7396 143.917 88.875C145.083 89.0104 145.677 84.8854 145.677 84.8854C145.677 84.8854 147.328 86.5417 148.115 87.9531C148.901 89.3646 149.958 90.0417 150.745 90.5625C151.526 91.0781 153.589 92.2969 154.453 93.4635C155.323 94.6354 155.458 95.6302 155.969 96.776C156.484 97.9271 156.052 99.3594 156.052 100.635C156.052 101.911 156.406 102.807 155.917 103.948C155.427 105.089 149.651 101.276 149.146 100.745C148.641 100.214 122.974 94.9323 126.714 83.0625Z" fill="#EF2E21"/>
<path fill-rule="evenodd" clip-rule="evenodd" d="M117.286 109.109C117.286 109.109 121.135 110.953 123.141 111.771C125.141 112.583 124.875 113.453 126.661 113.505C128.448 113.563 133.865 112.745 135.87 111.875C137.875 111.01 136.984 104.557 134.911 101.62C132.839 98.6771 124.333 97.0521 122.76 97.3229C121.188 97.5938 114.469 102.969 117.286 109.109Z" fill="#5A2F31"/>
<path fill-rule="evenodd" clip-rule="evenodd" d="M123.141 98.625C123.141 98.625 129.047 101.995 131.427 104.438C133.813 106.88 134.245 107.859 134.896 108.51C135.547 109.161 138.094 108.13 138.797 105.74C139.5 103.349 128.505 94.6042 123.141 98.625Z" fill="#CA1E25"/>
<path fill-rule="evenodd" clip-rule="evenodd" d="M153.531 100.526C153.531 100.526 156.297 102.047 155.917 103.948C155.536 105.849 153.583 107.365 153.583 107.365L146.438 102.755C146.438 102.755 148.714 99.0573 153.531 100.526Z" fill="#5A2F31"/>
<path fill-rule="evenodd" clip-rule="evenodd" d="M122.76 99.224C122.76 99.224 128.99 101.344 132.401 103.026C135.818 104.708 138.927 105.359 138.797 105.74C138.667 106.12 148.547 102.859 148.547 102.859C148.547 102.859 151.448 102.401 152.531 101.667C153.615 100.932 153.776 100.672 153.776 100.672C153.776 100.672 152.776 99.9271 151.474 99.4948C150.172 99.0625 149.062 98.0833 148.062 96.776C147.057 95.474 145.625 94.9063 145 94.526C144.375 94.1458 144.135 94.5 143.104 93.9531C142.073 93.4115 141.396 91.6979 140.854 90.8594C140.312 90.0156 138.229 89.5833 137.875 89.5573C137.526 89.526 137.198 90.4531 135.87 90.6406C134.542 90.8333 132.536 90.2604 131.078 89.3385C129.615 88.4167 120.76 95.5417 122.76 99.224Z" fill="#151312"/>
<path fill-rule="evenodd" clip-rule="evenodd" d="M116.583 95.3958C116.583 95.3958 118.344 92.2188 118.802 90.1771C119.266 88.1406 119.182 87.7344 119.073 87.0313C118.969 86.3229 121.339 84.625 122 83.8802C122.667 83.1354 124.167 83.1979 125.521 82.6042C126.875 82.0052 130.344 82.224 130.807 82.9271C131.266 83.6354 131.047 85.1823 131.318 86.9479C131.589 88.7136 132 89.8438 132 89.8438C132 89.8438 129.208 90.8021 128.229 92.0833C127.255 93.3594 126.771 94.5261 125.714 96.5052C124.656 98.4896 123.432 100.172 122.062 101C120.703 101.828 119.359 102.943 118.589 103C117.818 103.063 115.276 97.1146 116.583 95.3958Z" fill="#4C1517"/>
<path fill-rule="evenodd" clip-rule="evenodd" d="M147.734 99.3333C147.734 99.3333 150.792 103.13 152.641 104.818C154.484 106.505 157.651 108.646 158.547 110.219C159.437 111.797 159.385 112.771 159.083 113.453C158.786 114.13 158.167 114.755 158.167 114.755C158.167 114.755 148.818 112.151 148.25 111.089C147.682 110.031 142.995 102.292 147.734 99.3333Z" fill="#494A4B"/>
<path fill-rule="evenodd" clip-rule="evenodd" d="M149.849 109.052C149.849 109.052 150.151 107.349 149.74 105.984C149.328 104.62 148.495 103.568 148.089 102.344C147.682 101.125 147.76 99.7396 147.734 99.3333C147.708 98.9219 146.432 98.625 145.078 98.4896C143.724 98.3542 140.312 98.2969 138.823 98.3281C137.333 98.3542 136.25 98.4323 135.922 99.0573C135.599 99.6823 138.089 104.193 139.146 105.495C140.203 106.797 142.615 110.057 144.755 110.411C146.896 110.766 149.198 111.932 149.849 109.052Z" fill="#6B6C6E"/>
<path fill-rule="evenodd" clip-rule="evenodd" d="M144.052 108.781C144.052 108.781 146.271 109.052 147.49 108.646C148.708 108.24 149.479 107.99 149.948 107.99C150.417 107.995 151.635 108.974 152.203 109.734C152.776 110.495 150.036 112.802 148.359 112.938C146.677 113.073 142.833 112.771 142.182 111.875C141.531 110.979 143.375 108.865 144.052 108.781Z" fill="#151312"/>
<path fill-rule="evenodd" clip-rule="evenodd" d="M142.885 110.87C142.885 110.87 144.458 111.698 145.812 111.089C147.161 110.479 148.224 109.87 149.385 109.594C150.552 109.323 151.01 108.839 152.203 109.734C153.396 110.63 153.693 111.198 154.698 111.635C155.698 112.068 155.807 111.578 157 112.693C158.193 113.807 158.167 114.755 158.167 114.755C158.167 114.755 156.078 116.193 154.75 116.792C153.422 117.391 148.818 116.714 147.193 116.682C145.568 116.656 142.182 116.167 140.693 116.115C139.203 116.057 137.089 116.276 136.328 116.193C135.573 116.115 135.734 115.271 135.734 114.266C135.734 113.26 141.286 110.818 142.885 110.87Z" fill="#252323"/>
<path fill-rule="evenodd" clip-rule="evenodd" d="M133.135 111.281C132.375 110.276 132.292 110.25 132.781 109.245C133.271 108.24 133.729 107.667 134.271 105.604C134.812 103.542 134.672 103.552 135.135 101.958C135.599 100.365 135.583 99.4115 135.922 99.0573C136.26 98.7083 136.927 100.063 138.12 100.958C139.312 101.854 140.844 103.057 142.229 104.875C143.615 106.693 143.781 106.854 144.51 107.859C145.245 108.865 145.297 108.865 145.297 108.865C145.297 108.865 144.865 109.568 144.13 110.734C143.401 111.906 143.104 111.771 141.531 112.88C139.958 113.995 138.932 114.594 138.062 115C137.198 115.406 135.812 115.828 135.812 115.828C135.812 115.828 134.516 113.589 133.135 111.281Z" fill="#494A4B"/>
<path fill-rule="evenodd" clip-rule="evenodd" d="M95.6667 76.8438C95.6667 76.8438 97.8906 78.4479 99 79.0156C100.109 79.5885 101.63 80.401 102.333 80.974C103.036 81.5417 98.1615 85.3438 95.6146 85.9167C93.0677 86.4844 92.1198 78.2552 95.6667 76.8438Z" fill="#921A1F"/>
<path fill-rule="evenodd" clip-rule="evenodd" d="M64 111.198C64 111.198 65.2344 104.786 65.4427 102.115C65.651 99.4427 66.1979 95.0156 66.4375 94.2813C66.6823 93.5469 74.5938 95.2552 75.349 98.625C76.1094 101.995 69.4479 112.313 64 111.198Z" fill="#4C1517"/>
<path fill-rule="evenodd" clip-rule="evenodd" d="M73.6198 101.068C73.6198 101.068 72.6875 100.849 70.3125 99.3281C67.9375 97.8125 66.3021 95.6094 66.4375 94.2813C66.5729 92.9479 67.0625 92.4896 67.25 91.2135C67.4427 89.9323 67.0521 88.8385 67.5729 88.3802C68.0938 87.9271 71.0729 86.974 72.5625 85.7552C74.0521 84.5313 76.8125 83.6354 79.1146 81.8958C81.4219 80.1563 84.6979 78.8021 86.4063 77.7396C88.1094 76.6823 89.9271 75.2969 91.4427 75C92.9583 74.6979 95.0208 76.3854 95.6667 76.8438C96.3177 77.3073 95.9688 80.4323 94.6406 84.125C93.3125 87.8177 88.4375 97.9479 85.1302 100.391C81.8281 102.833 76.5729 103.052 73.6198 101.068Z" fill="#6B6C6E"/>
<path fill-rule="evenodd" clip-rule="evenodd" d="M111.161 86.7292C111.161 86.7292 113.276 88.4688 114.307 89.0365C115.333 89.6094 116.338 90.3698 116.719 91.0729C117.099 91.7813 118.422 98.4635 118.802 100.063C119.182 101.667 119.37 104.464 119.833 106.12C120.292 107.776 120.427 108.292 120.266 108.781C120.104 109.271 118.344 109.214 116.094 109.896C113.844 110.573 109.401 109.38 108.859 108.292C108.318 107.208 100.542 90.8854 111.161 86.7292Z" fill="#151312"/>
<path fill-rule="evenodd" clip-rule="evenodd" d="M111.161 86.7292C111.161 86.7292 110.542 91.1563 110.891 94.0625C111.245 96.9688 111.651 99.1406 111.922 100.823C112.193 102.505 112.771 107.422 114.115 108.729C115.458 110.031 108.182 112.693 108.182 112.693C108.182 112.693 98.1042 107.599 97.6146 104.307C97.1302 101.016 101.865 87.776 111.161 86.7292Z" fill="#252323"/>
<path fill-rule="evenodd" clip-rule="evenodd" d="M107.318 110.276C107.318 110.276 111.177 108.297 113.729 108.224C116.281 108.156 116.526 108.318 118.042 108.589C119.562 108.865 120.114 108.953 120.114 108.953C120.114 108.953 118.937 109.865 116.906 110.734C114.875 111.604 114.062 112.526 112.87 113.563C111.677 114.594 110.838 115.677 110.271 115.979C109.698 116.276 106.557 110.901 107.318 110.276Z" fill="#4C1517"/>
<mask id="mask7_22_6057" style="mask-type:luminance" maskUnits="userSpaceOnUse" x="75" y="102" width="37" height="18">
<path d="M75.3645 102.906H111.365V120H75.3645V102.906Z" fill="white"/>
</mask>
<g mask="url(#mask7_22_6057)">
<path fill-rule="evenodd" clip-rule="evenodd" d="M99.1353 103.646C99.1353 103.646 103.708 105.63 106.286 106.958C108.859 108.292 109.51 109.594 109.859 111.552C110.213 113.505 110.271 115.979 110.271 115.979C110.271 115.979 109.646 116.599 107.614 116.411C105.583 116.219 100.625 116.115 98.1874 116.599C95.7499 117.089 89.7082 117.74 87.7551 118.068C85.8072 118.396 83.2863 117.875 81.4426 118.26C79.604 118.635 78.5468 119.234 76.9738 119.318C75.4009 119.396 76.8905 112.146 78.354 110.193C79.8176 108.234 91.7395 104.219 99.1353 103.646Z" fill="#151312"/>
</g>
<mask id="mask8_22_6057" style="mask-type:luminance" maskUnits="userSpaceOnUse" x="63" y="80" width="49" height="40">
<path d="M63.3645 80.2396H111.365V120H63.3645V80.2396Z" fill="white"/>
</mask>
<g mask="url(#mask8_22_6057)">
<path fill-rule="evenodd" clip-rule="evenodd" d="M76.9738 119.318C78.8488 118.974 79.927 117.849 82.5259 115.896C85.1301 113.938 91.0364 110.354 94.5572 108.453C98.078 106.552 101.271 104.432 102.792 102.208C104.307 99.9792 107.125 96.2084 108.099 94.7917C109.073 93.3802 109.073 92.4063 109.646 90.7761C110.213 89.1459 111.161 86.7292 111.161 86.7292C111.161 86.7292 108.208 84.9375 107.286 84.5C106.364 84.0677 105.958 84.0938 105.01 83.3906C104.062 82.6823 102.864 81.5313 102.338 80.9792C101.818 80.4271 98.7551 81.6511 97.4009 81.8386C96.0468 82.0313 94.6874 82.3698 93.4843 84.0209C92.2811 85.6719 89.0572 89.6354 87.4322 91.3438C85.8072 93.0573 82.7968 96.0156 79.3853 97.7292C75.9738 99.4375 72.6405 100.417 71.6926 101.339C70.7447 102.26 68.7499 104.359 67.078 106.229C65.4061 108.099 63.5936 110.354 63.4582 111.307C63.3228 112.255 68.1718 115.406 70.3384 116.49C72.5051 117.578 74.9686 119.698 76.9738 119.318Z" fill="#494A4B"/>
</g>
<path fill-rule="evenodd" clip-rule="evenodd" d="M59.0156 106.714C59.0156 106.714 59.7708 106.609 60.3125 106.771C60.8541 106.932 61.0729 107.75 62.0729 108.427C63.0781 109.104 66.276 110.651 66.9531 111.167C67.6302 111.688 67.6302 111.74 67.8177 112.281C68.0104 112.828 68.0364 116.354 66.5156 117.224C65 118.094 59.802 116.656 58.4739 115.323C57.1458 113.995 57.9843 107.802 59.0156 106.714Z" fill="#6B6C6E"/>
<path fill-rule="evenodd" clip-rule="evenodd" d="M59.0155 113.099C59.0155 113.099 59.828 110.818 59.6666 109.078C59.4999 107.339 59.0155 106.714 59.0155 106.714C59.0155 106.714 58.4426 106.443 56.8176 107.557C55.1926 108.672 54.2447 108.885 53.5155 109.13C52.7812 109.375 52.078 109.375 51.8645 109.812C51.6458 110.245 55.3853 112.474 59.0155 113.099Z" fill="#494A4B"/>
<path fill-rule="evenodd" clip-rule="evenodd" d="M66.4636 117.823C66.4636 117.823 66.3021 114.13 66.7083 112.906C67.1146 111.688 67.7604 112.109 67.7604 112.109C67.7604 112.109 68.875 113.344 69.0365 115.406C69.1979 117.469 69.0938 118.365 68.6563 118.583C68.224 118.802 66.2448 117.984 66.4636 117.823Z" fill="#252323"/>
<mask id="mask9_22_6057" style="mask-type:luminance" maskUnits="userSpaceOnUse" x="55" y="114" width="14" height="6">
<path d="M55.8281 114.703H68.3333V119.995H55.8281V114.703Z" fill="white"/>
</mask>
<g mask="url(#mask9_22_6057)">
<path fill-rule="evenodd" clip-rule="evenodd" d="M62.4531 114.755C62.4531 114.755 63.375 115.161 64.5937 115.594C65.8125 116.031 66.1927 115.865 66.7343 116.573C67.276 117.281 68.2812 118.609 68.2812 118.609C68.2812 118.609 67.3281 118.391 66.1406 118.667C64.9479 118.938 62.5885 119.995 61.75 119.995C60.9114 119.995 60.4791 119.531 59.151 119.016C57.8229 118.5 56.901 118.557 56.4948 118.474C56.0885 118.391 55.8698 117.688 55.8698 117.688C55.8698 117.688 60.177 114.646 62.4531 114.755Z" fill="#151312"/>
</g>
<path fill-rule="evenodd" clip-rule="evenodd" d="M55.8697 117.688C55.8697 117.688 56.4114 117.875 57.3072 117.63C58.203 117.385 60.2603 116.573 61.0989 116.193C61.9374 115.813 62.8072 115.135 62.453 114.755C62.1041 114.375 61.2083 113.719 60.3124 113.042C59.4218 112.365 59.5833 111.766 58.4166 111.198C57.2551 110.625 56.6562 111.25 55.1405 110.953C53.6249 110.651 51.8645 109.812 51.8645 109.812C51.8645 109.812 53.651 113.016 54.5155 114.589C55.3853 116.167 55.328 117.281 55.8697 117.688Z" fill="#252323"/>
<path fill-rule="evenodd" clip-rule="evenodd" d="M57.0312 85.5521C57.0312 85.5521 55.6145 91.5469 54.8645 92.9375C54.1093 94.3281 48.7447 100.031 48.2603 100.682C47.7708 101.339 42.7343 99.8698 40.1301 99.2188C37.5312 98.5677 27.927 98.4375 27.927 98.4375C27.927 98.4375 34.9322 100.198 38.401 101.063C41.8645 101.932 43.5572 103.38 45.6666 104.068C47.7708 104.76 52.0572 107.297 52.0572 107.297C52.0572 107.297 50.7499 103.563 50.5364 102.641C50.3176 101.719 52.052 100.302 53.9999 97.8073C55.953 95.3073 58.0103 92.2136 57.0312 85.5521Z" fill="#4C1517"/>
<path fill-rule="evenodd" clip-rule="evenodd" d="M93.6198 83.8385C93.6198 83.8385 88.5677 88.5156 84.8854 91.5573C81.1979 94.599 75.4948 99.4635 75.4948 99.4635C75.4948 99.4635 88.026 98.6198 93.6198 83.8385Z" fill="#CA1E25"/>
<path fill-rule="evenodd" clip-rule="evenodd" d="M82.526 115.896C82.526 115.896 85.75 111.979 90.7343 108.615C95.7187 105.245 101.682 102.094 103.958 99.2708C106.229 96.4479 110.828 90.3906 110.828 90.3906C110.828 90.3906 108.87 97.1979 106.182 100.599C103.495 104 104.552 105.38 105.417 106.172C106.286 106.958 108.359 108.385 108.359 108.385C108.359 108.385 106.99 107.693 104.5 106.984C102.005 106.276 103.594 104.964 99.927 107.411C96.2604 109.865 87.5937 112.906 82.526 115.896Z" fill="#4C1517"/>
<path fill-rule="evenodd" clip-rule="evenodd" d="M16.6875 90.375C16.6875 90.375 14.6146 93.9375 12.0156 94.9479C9.41143 95.9583 7.15623 97.4635 7.04164 98.2865C6.92185 99.1094 7.59373 106.026 7.59373 106.026C7.59373 106.026 6.21873 102.474 5.56768 100.031C4.91664 97.5885 5.8906 95.9583 6.7031 95.5781C7.5156 95.1979 16.6875 90.375 16.6875 90.375Z" fill="#4C1517"/>
<path fill-rule="evenodd" clip-rule="evenodd" d="M9.72913 106.62C9.72913 106.62 12.3385 108.505 14.5625 108.938C16.7812 109.375 19.5468 111.219 19.5468 111.219L21.0312 111.839C21.0312 111.839 14.9427 105.896 9.72913 106.62Z" fill="#CA1E25"/>
<path fill-rule="evenodd" clip-rule="evenodd" d="M124.667 98.2708C124.667 98.2708 125.125 97.3073 125.844 94.4948C126.562 91.6771 130.911 90.2812 130.911 90.2812C130.911 90.2812 129.312 92.4271 128.661 93.7865C128.01 95.1458 124.667 98.2708 124.667 98.2708Z" fill="#EF2E21"/>
<path fill-rule="evenodd" clip-rule="evenodd" d="M137.328 100.245C137.328 100.245 138.953 101.823 140.635 103.885C142.313 105.953 143.057 107.51 143.724 108.917C144.391 110.323 141.786 111.875 140.526 113.12C139.266 114.365 136.953 115.448 136.953 115.448C136.953 115.448 141.286 114.75 142.911 113.391C144.536 112.036 145.401 110.078 145.839 109.755C146.271 109.427 149.219 108.771 149.917 108.521C150.609 108.271 152.88 109.917 152.88 109.917C152.88 109.917 152.01 108.854 150.875 107.417C149.74 105.984 150.193 104.672 149.141 103.51C148.089 102.344 147.771 100.568 147.771 100.568C147.771 100.568 147.839 102.854 148.547 104.755C149.25 106.656 148.667 107.401 147.734 107.797C146.797 108.198 140.474 101.714 137.328 100.245Z" fill="#EF2E21"/>
</svg>
