<svg width="120" height="120" viewBox="0 0 120 120" fill="none" xmlns="http://www.w3.org/2000/svg">
<path d="M94 84H2V48H94V84Z" fill="#D2DBDA"/>
<path d="M30 66V54.5208C35.6198 55.9687 40.0312 60.3802 41.4792 66H30ZM90 48V62C90 68.625 84.625 74 78 74H49.6406C49.8594 72.6927 50 71.3646 50 70C50 60.1563 44.0625 51.6927 35.5781 48H2V84H94V48H90Z" fill="#8F9697"/>
<path d="M46 102H14V84H46V102Z" fill="#8F9697"/>
<path d="M28 94H46V84H14V102H20C20 97.5781 23.5781 94 28 94Z" fill="#5E6574"/>
<path d="M98 88C95.7917 88 94 86.2083 94 84V48C94 45.7865 95.7917 44 98 44C100.214 44 102 45.7865 102 48V84C102 86.2083 100.214 88 98 88Z" fill="#F3E306"/>
<path d="M106 88C103.792 88 102 86.2083 102 84V48C102 45.7865 103.792 44 106 44C108.214 44 110 45.7865 110 48V84C110 86.2083 108.214 88 106 88Z" fill="#F3E306"/>
<path d="M118 84H110V48H118V84Z" fill="#D2DBDA"/>
<path d="M34 81.474V70H45.4792C44.0312 75.6146 39.6198 80.0312 34 81.474ZM14.526 70H26V81.474C20.3854 80.0312 15.9792 75.6146 14.526 70ZM26 50.5208V62H14.526C15.9792 56.3802 20.3854 51.9688 26 50.5208ZM45.4792 62H34V50.5208C39.6198 51.9688 44.0312 56.3802 45.4792 62ZM30 42C16.7448 42 6 52.7396 6 66C6 79.2552 16.7448 90 30 90C43.2604 90 54 79.2552 54 66C54 52.7396 43.2604 42 30 42Z" fill="#F3E306"/>
<path d="M86 40H62V48H86V40Z" fill="#F3E306"/>
<path d="M80 40H68V28H80V40Z" fill="#F3E306"/>
<path d="M90 18C90 26.8333 82.8385 34 74 34C65.1667 34 58 26.8333 58 18C58 9.16146 65.1667 2 74 2C82.8385 2 90 9.16146 90 18Z" fill="#90D9F5"/>
<path d="M80 28C71.1667 28 64 20.8333 64 12C64 9.125 64.776 6.42708 66.1042 4.09375C61.2656 6.84896 58 12.0365 58 18C58 26.8333 65.1667 34 74 34C79.9635 34 85.151 30.7344 87.901 25.9062C85.5729 27.224 82.875 28 80 28Z" fill="#6DBBEA"/>
<path d="M86 18C86 24.625 80.625 30 74 30C67.375 30 62 24.625 62 18C62 11.375 67.375 6 74 6C80.625 6 86 11.375 86 18Z" fill="#6DBBEA"/>
<path d="M81.4844 25.4844C80.3854 25.8125 79.2135 26 78 26C71.375 26 66 20.625 66 14C66 12.7865 66.1875 11.6146 66.5156 10.5156C67.6198 10.1875 68.7917 10 70 10C76.625 10 82 15.375 82 22C82 23.2083 81.8125 24.3802 81.4844 25.4844ZM74 6C67.375 6 62 11.375 62 18C62 24.625 67.375 30 74 30C80.625 30 86 24.625 86 18C86 11.375 80.625 6 74 6Z" fill="#578FD3"/>
<path d="M46 102H14C11.7917 102 10 103.786 10 106C10 108.208 11.7917 110 14 110H46C48.2135 110 50 108.208 50 106C50 103.786 48.2135 102 46 102Z" fill="#F3E306"/>
<path d="M46 110H14C11.7917 110 10 111.786 10 114C10 116.208 11.7917 118 14 118H46C48.2135 118 50 116.208 50 114C50 111.786 48.2135 110 46 110Z" fill="#F3E306"/>
<path d="M78 26C78 28.2083 76.2135 30 74 30C71.7917 30 70 28.2083 70 26C70 23.7865 71.7917 22 74 22C76.2135 22 78 23.7865 78 26Z" fill="#F3E306"/>
<path d="M78 26C75.3073 26 72.8229 25.099 70.8229 23.5938C70.3125 24.2708 70 25.0938 70 26C70 28.2083 71.7917 30 74 30C76.2135 30 78 28.2083 78 26Z" fill="#F7B60B"/>
<path d="M106 80V44C103.792 44 102 45.7865 102 48V84C102 86.2083 103.792 88 106 88C108.214 88 110 86.2083 110 84C107.792 84 106 82.2083 106 80Z" fill="#F7B60B"/>
<path d="M98 80V44C95.7917 44 94 45.7865 94 48V84C94 86.2083 95.7917 88 98 88C100.214 88 102 86.2083 102 84C99.7917 84 98 82.2083 98 80Z" fill="#F7B60B"/>
<path d="M18 106H50C50 108.208 48.2135 110 46 110H14C11.7917 110 10 108.208 10 106C10 103.786 11.7917 102 14 102C14 104.208 15.7917 106 18 106Z" fill="#F7B60B"/>
<path d="M18 114H50C50 116.208 48.2135 118 46 118H14C11.7917 118 10 116.208 10 114C10 111.786 11.7917 110 14 110C14 112.208 15.7917 114 18 114Z" fill="#F7B60B"/>
<path d="M114 70V48H110V84H118V74C115.792 74 114 72.2083 114 70Z" fill="#8F9697"/>
<path d="M34 70H45.4792C44.0312 75.6146 39.6198 80.0312 34 81.474V70ZM26 62H14.526C15.9792 56.3802 20.3854 51.9688 26 50.5208V62ZM26 81.474C20.3854 80.0312 15.9792 75.6146 14.526 70H26V81.474ZM30 42C16.7448 42 6 52.7396 6 66C6 79.2552 16.7448 90 30 90C43.2604 90 54 79.2552 54 66H30V42Z" fill="#F7B60B"/>
<path d="M38 66C38 70.4219 34.4219 74 30 74C25.5781 74 22 70.4219 22 66C22 61.5781 25.5781 58 30 58C34.4219 58 38 61.5781 38 66Z" fill="#F14C46"/>
<path d="M34 70C29.5781 70 26 66.4219 26 62C26 60.8281 26.2656 59.7188 26.7188 58.7188C23.9375 59.9688 22 62.7552 22 66C22 70.4219 25.5781 74 30 74C33.2448 74 36.026 72.0625 37.2812 69.2812C36.2812 69.7344 35.1719 70 34 70Z" fill="#CE3E3D"/>
<mask id="mask0_22_6065" style="mask-type:luminance" maskUnits="userSpaceOnUse" x="0" y="0" width="120" height="120">
<path d="M0 0H120V120H0V0Z" fill="white"/>
</mask>
<g mask="url(#mask0_22_6065)">
<path d="M98 86C96.901 86 96 85.099 96 84V48C96 46.8958 96.901 46 98 46C99.1042 46 100 46.8958 100 48V84C100 85.099 99.1042 86 98 86ZM64 46V42H84V46H64ZM70 35.5365C71.2917 35.8281 72.625 36 74 36C75.375 36 76.7135 35.8281 78 35.5365V38H70V35.5365ZM44 100H16V87.875C20.0469 90.4688 24.8438 92 30 92C35.1562 92 39.9531 90.4688 44 87.875V100ZM14 108C12.901 108 12 107.099 12 106C12 104.896 12.901 104 14 104H46C47.1042 104 48 104.896 48 106C48 107.099 47.1042 108 46 108H14ZM118 82H112V74C112 72.8958 111.104 72 110 72C108.901 72 108 72.8958 108 74V84C108 85.099 107.104 86 106 86C104.901 86 104 85.099 104 84V48C104 46.8958 104.901 46 106 46C107.104 46 108 46.8958 108 48V66C108 67.099 108.901 68 110 68C111.104 68 112 67.099 112 66V50H118C119.104 50 120 49.099 120 48C120 46.8958 119.104 46 118 46H111.635C110.807 43.6771 108.604 42 106 42C104.464 42 103.062 42.599 102 43.5625C100.938 42.599 99.5417 42 98 42C95.401 42 93.1979 43.6771 92.3698 46H88V40C88 38.8958 87.1042 38 86 38H82V34.099C87.9167 31.1458 92 25.0521 92 18C92 14.8021 91.1354 11.6406 89.4948 8.86458C88.9323 7.92188 87.7031 7.59896 86.7604 8.16146C85.8073 8.72396 85.4844 9.95313 86.0573 10.9063C87.3281 13.0625 88 15.5156 88 18C88 25.7188 81.7188 32 74 32C66.2812 32 60 25.7188 60 18C60 10.2813 66.2812 4 74 4C76.4844 4 78.9375 4.67188 81.1042 5.95313C82.0469 6.50521 83.276 6.19271 83.8385 5.23958C84.401 4.29688 84.0885 3.06771 83.1354 2.50521C80.3542 0.864584 77.1979 0 74 0C64.0781 0 56 8.06771 56 18C56 25.0521 60.0885 31.1458 66 34.099V38H62C60.901 38 60 38.8958 60 40V46H46.5625C45.4062 45.0365 44.1719 44.1615 42.8385 43.4062C41.875 42.8594 40.6562 43.1927 40.1094 44.1562C39.5625 45.1146 39.901 46.3333 40.8594 46.8802C47.7292 50.7969 52 58.1146 52 66C52 78.1302 42.1354 88 30 88C17.8698 88 8 78.1302 8 66C8 53.8646 17.8698 44 30 44C31.276 44 32.5729 44.125 33.9688 44.375C35.0625 44.5833 36.1042 43.849 36.2969 42.7656C36.4948 41.6771 35.776 40.6406 34.6875 40.4427C33.0573 40.1458 31.5156 40 30 40C23.6979 40 17.9167 42.2552 13.4167 46H2C0.901041 46 0 46.8958 0 48C0 49.099 0.901041 50 2 50H9.54688C6.08854 54.4219 4 59.9583 4 66C4 72.0365 6.08854 77.5781 9.54688 82H2C0.901041 82 0 82.8958 0 84C0 85.099 0.901041 86 2 86H12V100.365C9.68229 101.193 8 103.396 8 106C8 107.536 8.60417 108.938 9.5625 110C8.60417 111.063 8 112.458 8 114C8 117.313 10.6875 120 14 120H30C31.1042 120 32 119.099 32 118C32 116.896 31.1042 116 30 116H14C12.901 116 12 115.099 12 114C12 112.896 12.901 112 14 112H46C47.1042 112 48 112.896 48 114C48 115.099 47.1042 116 46 116H38C36.901 116 36 116.896 36 118C36 119.099 36.901 120 38 120H46C49.3125 120 52 117.313 52 114C52 112.458 51.401 111.063 50.4375 110C51.401 108.938 52 107.536 52 106C52 103.396 50.3229 101.193 48 100.365V84.7188C52.9219 79.9844 56 73.349 56 66C56 60.1146 53.9844 54.5052 50.4635 50H92V82H55.8385C54.7344 82 53.8385 82.8958 53.8385 84C53.8385 85.099 54.7344 86 55.8385 86H92.3698C93.1979 88.3177 95.401 90 98 90C99.5417 90 100.938 89.3958 102 88.4375C103.062 89.3958 104.464 90 106 90C108.604 90 110.807 88.3177 111.635 86H118C119.104 86 120 85.099 120 84C120 82.8958 119.104 82 118 82Z" fill="#2D2C2C"/>
</g>
<path d="M37.948 60C37.3908 59.2656 36.7345 58.6094 36.0001 58.0521V53.3646C38.9064 54.7396 41.2605 57.0937 42.6355 60H37.948ZM42.6355 72C41.2605 74.9062 38.9064 77.2552 36.0001 78.6302V73.9427C36.7345 73.3906 37.3908 72.7344 37.948 72H42.6355ZM24.0001 66C24.0001 62.6875 26.6876 60 30.0001 60C33.3126 60 36.0001 62.6875 36.0001 66C36.0001 69.3125 33.3126 72 30.0001 72C26.6876 72 24.0001 69.3125 24.0001 66ZM24.0001 78.6302C21.0939 77.2552 18.7449 74.9062 17.3699 72H22.0574C22.6095 72.7344 23.2658 73.3906 24.0001 73.9427V78.6302ZM17.3699 60C18.7449 57.0937 21.0939 54.7396 24.0001 53.3646V58.0521C23.2658 58.6094 22.6095 59.2656 22.0574 60H17.3699ZM47.0574 63.2239C47.4376 62.7344 47.5626 62.099 47.4168 61.5C45.7814 55.1719 40.8283 50.2187 34.5001 48.5833C33.9064 48.4375 33.2658 48.5625 32.7762 48.9375C32.2918 49.3177 32.0001 49.9062 32.0001 50.5208V56.2031C31.3543 56.0677 30.6876 56 30.0001 56C29.3126 56 28.6512 56.0677 28.0001 56.2031V50.5208C28.0001 49.9062 27.7137 49.3177 27.2293 48.9375C26.7345 48.5625 26.0939 48.4375 25.5001 48.5833C19.172 50.2187 14.2189 55.1719 12.5887 61.5C12.4376 62.099 12.5626 62.7344 12.948 63.2239C13.323 63.7083 13.9064 64 14.5262 64H20.2033C20.0731 64.6458 20.0001 65.3125 20.0001 66C20.0001 66.6875 20.0731 67.3489 20.2033 68H14.5262C13.9064 68 13.323 68.2864 12.948 68.7708C12.5626 69.2656 12.4376 69.8958 12.5887 70.5C14.2189 76.8281 19.172 81.7812 25.5001 83.4114C25.6668 83.4531 25.8387 83.4739 26.0001 83.4739C26.4376 83.4739 26.8699 83.3281 27.2293 83.0625C27.7137 82.6771 28.0001 82.0937 28.0001 81.4739V75.7969C28.6512 75.9271 29.3126 76 30.0001 76C30.6876 76 31.3543 75.9271 32.0001 75.7969V81.4739C32.0001 82.0937 32.2918 82.6771 32.7762 83.0625C33.1355 83.3281 33.5626 83.4739 34.0001 83.4739C34.1668 83.4739 34.3387 83.4531 34.5001 83.4114C40.8283 81.7812 45.7814 76.8281 47.4168 70.5C47.5626 69.8958 47.4376 69.2656 47.0574 68.7708C46.6824 68.2864 46.0939 68 45.4793 68H39.797C39.9324 67.3489 40.0001 66.6875 40.0001 66C40.0001 65.3125 39.9324 64.6458 39.797 64H45.4793C46.0939 64 46.6824 63.7083 47.0574 63.2239Z" fill="#2D2C2C"/>
<path d="M69.7603 13.7552C72.0936 11.4219 75.9061 11.4219 78.2446 13.7552C78.6353 14.1458 79.1509 14.3437 79.6561 14.3437C80.1717 14.3437 80.6821 14.1458 81.0728 13.7552C81.854 12.9739 81.854 11.7083 81.0728 10.9271C77.1717 7.03123 70.828 7.03123 66.9321 10.9271C66.1509 11.7083 66.1509 12.9739 66.9321 13.7552C67.7134 14.5364 68.979 14.5364 69.7603 13.7552Z" fill="#2D2C2C"/>
<path d="M82 20C83.1042 20 84 19.099 84 18C84 16.8958 83.1042 16 82 16C80.901 16 80 16.8958 80 18C80 19.099 80.901 20 82 20Z" fill="#2D2C2C"/>
<path d="M64 18C64 19.099 64.901 20 66 20C67.1042 20 68 19.099 68 18C68 16.8958 67.1042 16 66 16C64.901 16 64 16.8958 64 18Z" fill="#2D2C2C"/>
<path d="M74 28C72.901 28 72 27.099 72 26C72 24.8958 72.901 24 74 24C75.1042 24 76 24.8958 76 26C76 27.099 75.1042 28 74 28ZM80 26C80 23.3958 78.3229 21.1927 76 20.3646V16C76 14.8958 75.1042 14 74 14C72.901 14 72 14.8958 72 16V20.3646C69.6823 21.1927 68 23.3958 68 26C68 29.3125 70.6875 32 74 32C77.3125 32 80 29.3125 80 26Z" fill="#2D2C2C"/>
</svg>
