<svg width="62" height="120" viewBox="0 0 62 120" fill="none" xmlns="http://www.w3.org/2000/svg">
<path fill-rule="evenodd" clip-rule="evenodd" d="M44.6249 24.7461H17.3853C15.2447 24.7461 13.5051 23.0065 13.5051 20.8711V18.1888C13.5051 16.0534 15.2447 14.3138 17.3853 14.3138H44.6249C46.7655 14.3138 48.5051 16.0534 48.5051 18.1888V20.8711C48.5051 23.0065 46.7655 24.7461 44.6249 24.7461ZM17.3853 17.1159C15.9322 17.1159 16.3124 19.1263 16.3124 20.8711C16.3124 21.4596 16.7916 21.944 17.3853 21.944H44.6249C46.078 21.944 45.6978 19.9284 45.6978 18.1888C45.6978 17.595 45.2187 17.1159 44.6249 17.1159H17.3853Z" fill="black"/>
<path fill-rule="evenodd" clip-rule="evenodd" d="M35.2344 44.2252H26.7708C22.3594 44.2252 18.7656 40.6367 18.7656 36.2252V23.345C18.7656 21.4961 21.5729 21.4961 21.5729 23.345V36.2252C21.5729 39.095 23.9063 41.4232 26.7708 41.4232H35.2344C38.1042 41.4232 40.4375 39.095 40.4375 36.2252V23.345C40.4375 21.4961 43.2396 21.4961 43.2396 23.345V36.2252C43.2448 40.6367 39.651 44.2252 35.2344 44.2252Z" fill="black"/>
<path fill-rule="evenodd" clip-rule="evenodd" d="M21.7188 17.1159C20.9427 17.1159 20.3125 16.4857 20.3125 15.7148V1.38672C20.3125 -0.46224 23.1198 -0.46224 23.1198 1.38672V15.7148C23.1198 16.4857 22.4896 17.1159 21.7188 17.1159Z" fill="black"/>
<path fill-rule="evenodd" clip-rule="evenodd" d="M40.2917 17.1159C39.5156 17.1159 38.8906 16.4857 38.8906 15.7148V1.38672C38.8906 -0.46224 41.6927 -0.46224 41.6927 1.38672V15.7148C41.6927 16.4857 41.0677 17.1159 40.2917 17.1159Z" fill="black"/>
<path fill-rule="evenodd" clip-rule="evenodd" d="M31.0051 38.2982C24.1353 38.2982 24.1353 27.8711 31.0051 27.8711C37.8749 27.8711 37.8749 38.2982 31.0051 38.2982ZM31.0051 30.6732C27.828 30.6732 27.8228 35.4961 31.0051 35.4961C34.1822 35.4961 34.1822 30.6732 31.0051 30.6732Z" fill="black"/>
<path fill-rule="evenodd" clip-rule="evenodd" d="M31.005 65.2773C30.229 65.2773 29.604 64.6471 29.604 63.8763V42.8242C29.604 40.9805 32.4061 40.9805 32.4061 42.8242V63.8763C32.4061 64.6471 31.7811 65.2773 31.005 65.2773Z" fill="black"/>
<mask id="mask0_22_6061" style="mask-type:luminance" maskUnits="userSpaceOnUse" x="0" y="62" width="62" height="5">
<path d="M0 62.4492H62V66.4492H0V62.4492Z" fill="white"/>
</mask>
<g mask="url(#mask0_22_6061)">
<path fill-rule="evenodd" clip-rule="evenodd" d="M60.1407 65.2773H1.86987C0.0209147 65.2773 0.0209147 62.4753 1.86987 62.4753H60.1407C61.9845 62.4753 61.9845 65.2773 60.1407 65.2773Z" fill="black"/>
</g>
<mask id="mask1_22_6061" style="mask-type:luminance" maskUnits="userSpaceOnUse" x="0" y="62" width="62" height="58">
<path d="M0 62.4492H62V119.543H0V62.4492Z" fill="white"/>
</mask>
<g mask="url(#mask1_22_6061)">
<path fill-rule="evenodd" clip-rule="evenodd" d="M50.672 119.538H11.3334C10.6511 119.538 10.0678 119.048 9.95321 118.376L0.484464 64.1159C0.33863 63.2617 0.99488 62.4753 1.86467 62.4753H60.1407C61.0105 62.4753 61.672 63.2617 61.5209 64.1159L52.0522 118.376C51.9376 119.048 51.3543 119.538 50.672 119.538ZM12.5157 116.73H49.4949L58.474 65.2773H3.53655L12.5157 116.73Z" fill="black"/>
</g>
<path fill-rule="evenodd" clip-rule="evenodd" d="M57.7395 78.3138H4.14575C2.29679 78.3138 2.29679 75.5117 4.14575 75.5117H57.7395C59.5885 75.5117 59.5885 78.3138 57.7395 78.3138Z" fill="black"/>
<path fill-rule="evenodd" clip-rule="evenodd" d="M31.2342 65.2826C30.3071 65.2826 29.6352 64.8086 29.604 63.9284C29.5884 63.6107 29.3592 56.1055 34.4321 50.8346C37.5675 47.5794 41.9842 45.9284 47.5675 45.9284C48.3436 45.9284 48.9686 46.5534 48.9686 47.3294C48.9686 60.5221 39.3123 65.2826 31.2342 65.2826ZM46.1248 48.7721C37.2238 49.319 33.0832 55.1524 32.4634 62.418C39.8019 61.7982 45.5832 57.6211 46.1248 48.7721Z" fill="black"/>
<path fill-rule="evenodd" clip-rule="evenodd" d="M30.7656 65.2826C22.6875 65.2826 13.0312 60.5274 13.0312 47.3294C13.0312 46.5534 13.6615 45.9284 14.4323 45.9284C20.0156 45.9284 24.4375 47.5794 27.5729 50.8346C32.6458 56.1003 32.4115 63.6107 32.401 63.9284C32.3646 64.8086 31.6979 65.2826 30.7656 65.2826ZM15.8802 48.7721C16.4167 57.6211 22.1979 61.7982 29.5365 62.4232C28.9219 55.1523 24.776 49.319 15.8802 48.7721Z" fill="black"/>
<path fill-rule="evenodd" clip-rule="evenodd" d="M28.4166 106.652C27.3541 106.652 26.6614 105.491 27.203 104.548L30.6093 98.6575C28.4218 98.6575 26.1093 99.0534 25.4739 97.9544C25.2239 97.5221 25.2239 96.9857 25.4739 96.5534L29.7864 89.095C30.7083 87.5013 33.1353 88.8971 32.2135 90.4961L29.1197 95.8555C31.3072 95.8555 33.6197 95.4544 34.2551 96.5534C34.5051 96.9909 34.5051 97.5221 34.2551 97.9544L29.6301 105.949C29.3749 106.397 28.901 106.652 28.4166 106.652Z" fill="black"/>
<path fill-rule="evenodd" clip-rule="evenodd" d="M29.8644 112.022C21.8644 112.022 15.354 105.517 15.354 97.5221C15.354 89.5326 21.8644 83.0273 29.8644 83.0273C37.8644 83.0273 44.38 89.5326 44.38 97.5221C44.38 105.517 37.8644 112.022 29.8644 112.022ZM29.8644 85.8294C23.4113 85.8294 18.1561 91.0742 18.1561 97.5221C18.1561 103.975 23.4113 109.22 29.8644 109.22C36.3228 109.22 41.5728 103.97 41.5728 97.5221C41.5728 91.0742 36.3175 85.8294 29.8644 85.8294Z" fill="black"/>
<path fill-rule="evenodd" clip-rule="evenodd" d="M17.3854 21.944H44.625C46.0782 21.944 45.6979 19.9284 45.6979 18.1888C45.6979 17.5951 45.2188 17.1159 44.625 17.1159H17.3802C15.9271 17.1159 16.3073 19.1263 16.3073 20.8711C16.3073 21.4597 16.7917 21.944 17.3802 21.944H17.3854Z" fill="#C2E6F7"/>
<path fill-rule="evenodd" clip-rule="evenodd" d="M40.4373 24.7461H21.5728V36.2253C21.5728 39.0951 23.9061 41.4232 26.7707 41.4232H35.2342C38.104 41.4232 40.4373 39.0951 40.4373 36.2253V24.7461ZM31.005 27.8711C37.8748 27.8711 37.8748 38.2982 31.005 38.2982C24.1353 38.2982 24.1353 27.8711 31.005 27.8711Z" fill="#79BBBB"/>
<path fill-rule="evenodd" clip-rule="evenodd" d="M31.0051 35.4961C34.1822 35.4961 34.1822 30.6732 31.0051 30.6732C27.828 30.6732 27.8228 35.4961 31.0051 35.4961Z" fill="#C2E6F7"/>
<path fill-rule="evenodd" clip-rule="evenodd" d="M46.1248 48.7721C37.2238 49.319 33.0832 55.1524 32.4634 62.418C39.8019 61.7982 45.5832 57.6211 46.1248 48.7721Z" fill="#25A753"/>
<path fill-rule="evenodd" clip-rule="evenodd" d="M29.5364 62.4232C28.9218 55.1523 24.776 49.319 15.8801 48.7721C16.4166 57.6211 22.1978 61.7982 29.5364 62.4232Z" fill="#25A753"/>
<path fill-rule="evenodd" clip-rule="evenodd" d="M58.4739 65.2773H31.5885C31.4687 65.2773 31.3541 65.2826 31.2343 65.2826C31.1926 65.2826 31.151 65.2773 31.1093 65.2773H31.078C31.052 65.2773 31.0312 65.2773 31.0051 65.2773H30.8958C30.8541 65.2773 30.8124 65.2826 30.7708 65.2826C30.651 65.2826 30.5312 65.2773 30.4166 65.2773H3.53638L5.32284 75.5117H56.6874L58.4739 65.2773Z" fill="#C37E48"/>
<path fill-rule="evenodd" clip-rule="evenodd" d="M56.1979 78.3138H5.8125L12.5156 116.736H49.4948L56.1979 78.3138ZM29.8646 83.0274C37.8646 83.0274 44.3802 89.5326 44.3802 97.5221C44.3802 105.517 37.8646 112.022 29.8646 112.022C21.8646 112.022 15.3542 105.517 15.3542 97.5221C15.3542 89.5326 21.8646 83.0274 29.8646 83.0274Z" fill="#BB5D27"/>
<path fill-rule="evenodd" clip-rule="evenodd" d="M41.5729 97.5221C41.5729 91.0742 36.3177 85.8294 29.8646 85.8294C23.4115 85.8294 18.1562 91.0742 18.1562 97.5221C18.1562 103.975 23.4115 109.22 29.8646 109.22C36.3229 109.22 41.5729 103.97 41.5729 97.5221ZM34.2552 97.9544L29.6302 105.949C29.375 106.397 28.901 106.652 28.4167 106.652C27.3542 106.652 26.6615 105.491 27.2031 104.548L30.6094 98.6576C28.4219 98.6576 26.1094 99.0534 25.474 97.9544C25.224 97.5221 25.224 96.9857 25.474 96.5534L29.7865 89.0951C30.7083 87.5013 33.1354 88.8971 32.2135 90.4961L29.1198 95.8555C31.3073 95.8555 33.6198 95.4544 34.2552 96.5534C34.5052 96.9909 34.5052 97.5221 34.2552 97.9544Z" fill="#C2E6F7"/>
</svg>
