<svg width="160" height="159" viewBox="0 0 160 159" fill="none" xmlns="http://www.w3.org/2000/svg">
<path d="M103.531 156.042L95.599 142.818H66.2813L56.224 156.042H103.531Z" fill="#5E4527"/>
<path d="M126.677 21.1667H126.031C125.573 19.8698 125.026 18.6146 124.38 17.401C123.74 16.1875 123.01 15.026 122.193 13.9219C121.38 12.8177 120.484 11.776 119.516 10.8073C118.547 9.83333 117.51 8.9375 116.406 8.11979C115.302 7.29688 114.146 6.56771 112.932 5.91667C111.724 5.27083 110.469 4.71875 109.172 4.26042C107.88 3.79688 106.557 3.4375 105.208 3.17188C103.865 2.90625 102.5 2.74479 101.13 2.68229C99.7604 2.61979 98.3906 2.66146 97.0208 2.80208C95.6562 2.94271 94.3073 3.18229 92.9791 3.52604C91.6458 3.86459 90.3489 4.30729 89.0833 4.83854C87.8177 5.375 86.5989 6 85.427 6.71354C84.2552 7.43229 83.1406 8.22917 82.0885 9.10938C81.0312 9.99479 80.052 10.9479 79.1354 11.974C78.2239 13 77.3958 14.0885 76.6458 15.2396C75.8958 16.3906 75.2343 17.5938 74.6614 18.8438C73.2604 17.4219 71.7291 16.1667 70.0573 15.0729C68.3854 13.9844 66.6198 13.0885 64.75 12.3802C62.8854 11.6719 60.9687 11.1719 58.9948 10.8802C57.0208 10.5833 55.0416 10.5052 53.052 10.6406C52.1666 10.7188 51.2916 10.8385 50.4218 10.9948C49.552 11.151 48.6927 11.349 47.8385 11.5885C46.9895 11.8281 46.151 12.1042 45.3229 12.4219C44.5 12.7396 43.6875 13.0938 42.8958 13.4896C42.1041 13.8802 41.3333 14.3125 40.5781 14.776C39.8281 15.2396 39.0989 15.7396 38.3958 16.276C37.6875 16.8073 37.0104 17.375 36.3541 17.9688C35.7031 18.5677 35.0781 19.1927 34.4843 19.849C33.8906 20.5052 33.3281 21.1875 32.802 21.8958C32.2708 22.6042 31.776 23.3333 31.3125 24.0885C30.8489 24.8438 30.427 25.6198 30.0364 26.4115C29.6458 27.2083 29.2968 28.0156 28.9843 28.8438C28.6718 29.6719 28.3958 30.5104 28.1614 31.3646C27.927 32.2188 27.7343 33.0781 27.5781 33.9531C27.427 34.8229 27.3125 35.6979 27.2395 36.5781C27.1666 37.4635 27.1354 38.3438 27.151 39.2292V40.3438C27.1458 40.8229 27.1041 41.2917 27.0104 41.7604C26.9166 42.2292 26.776 42.6823 26.5937 43.125C26.4114 43.5677 26.1875 43.9844 25.9218 44.3802C25.6562 44.776 25.3541 45.1458 25.0208 45.4844C24.6823 45.8177 24.3125 46.1198 23.9166 46.3854C23.5208 46.651 23.1041 46.875 22.6614 47.0573C22.2187 47.2396 21.7656 47.3802 21.2968 47.474C20.8333 47.5677 20.3593 47.6094 19.8802 47.6094C18.8958 47.5938 17.9218 47.6667 16.9531 47.8281C15.9843 47.9844 15.0364 48.2292 14.1093 48.5625C13.1823 48.8958 12.2968 49.3073 11.4427 49.7969C10.5937 50.2865 9.79163 50.8542 9.04163 51.4896C8.29683 52.125 7.60933 52.8229 6.98433 53.5833C6.36454 54.3438 5.81246 55.151 5.3385 56.0104C4.85933 56.8698 4.4635 57.7656 4.151 58.6979C3.83329 59.6302 3.60413 60.5833 3.4635 61.5521C3.39579 62.1094 3.35933 62.6667 3.34892 63.2292C3.3385 63.7865 3.35933 64.349 3.41142 64.9063C3.45829 65.4635 3.54163 66.0156 3.651 66.5677C3.76038 67.1146 3.89579 67.6563 4.06246 68.1927C4.22913 68.724 4.42183 69.25 4.64579 69.7656C4.86454 70.2813 5.11454 70.7813 5.39058 71.2656C5.66142 71.7552 5.9635 72.2292 6.28642 72.6823C6.61454 73.1406 6.9635 73.5781 7.33329 74C7.70308 74.4167 8.09371 74.8177 8.51038 75.1927C8.92183 75.5729 9.35413 75.9271 9.80725 76.2604C10.2552 76.5886 10.7239 76.8958 11.2083 77.1823C11.6927 77.4636 12.1875 77.7188 12.6979 77.9479C13.2083 78.1771 13.7291 78.3802 14.2656 78.5573C14.7968 78.7292 15.3333 78.875 15.8802 78.9948C16.4323 79.1094 16.9843 79.1979 17.5416 79.2604C18.0937 79.3177 18.6562 79.349 19.2135 79.349H127.646C128.609 79.349 129.568 79.3021 130.531 79.2031C131.49 79.1094 132.443 78.9688 133.385 78.7761C134.333 78.5833 135.266 78.349 136.187 78.0677C137.109 77.7813 138.016 77.4531 138.906 77.0833C139.792 76.7083 140.661 76.2917 141.51 75.8333C142.359 75.375 143.182 74.875 143.979 74.3333C144.776 73.7917 145.547 73.2136 146.286 72.5938C147.026 71.974 147.734 71.3229 148.411 70.6354C149.083 69.9479 149.724 69.2292 150.328 68.474C150.932 67.724 151.5 66.9427 152.026 66.1354C152.552 65.3281 153.036 64.4948 153.479 63.6406C153.922 62.7813 154.323 61.9063 154.677 61.0104C155.036 60.1146 155.349 59.2031 155.615 58.276C155.88 57.349 156.099 56.4115 156.271 55.4635C156.443 54.5156 156.568 53.5625 156.646 52.599C156.724 51.6406 156.755 50.6771 156.734 49.7135C156.698 48.7552 156.615 47.8021 156.484 46.8594C156.354 45.9115 156.177 44.9688 155.958 44.0417C155.74 43.1094 155.474 42.1927 155.167 41.2865C154.854 40.3802 154.505 39.4948 154.109 38.6198C153.714 37.75 153.281 36.901 152.802 36.0729C152.328 35.2448 151.812 34.4375 151.255 33.6563C150.703 32.8802 150.109 32.1302 149.484 31.4063C148.859 30.6823 148.198 29.9948 147.505 29.3333C146.812 28.6771 146.089 28.0521 145.333 27.4635C144.578 26.875 143.802 26.3229 142.995 25.8125C142.187 25.2969 141.354 24.8229 140.505 24.3906C139.651 23.9583 138.781 23.5677 137.891 23.2188C137 22.8646 136.094 22.5625 135.172 22.3021C134.255 22.0365 133.323 21.8229 132.385 21.651C131.443 21.4792 130.495 21.349 129.542 21.2708C128.589 21.1875 127.635 21.1563 126.677 21.1667Z" fill="#DEDEDE"/>
<path d="M127.646 74.0573H19.2135C18.2917 74.0573 17.3698 73.974 16.4583 73.8125C15.5469 73.651 14.6563 73.4115 13.7917 73.0938C12.9219 72.7708 12.0833 72.3802 11.2865 71.9167C10.4844 71.4531 9.72918 70.9219 9.02084 70.3281C8.31251 69.7292 7.66147 69.0781 7.06772 68.3698C6.47397 67.6562 5.94793 66.901 5.48438 66.099C5.02605 65.2969 4.63542 64.4583 4.32292 63.5885C4.00522 62.7187 3.77084 61.8281 3.60938 60.9167C3.57813 61.1354 3.50001 61.3333 3.46876 61.5521C3.40105 62.1094 3.36459 62.6667 3.35417 63.2292C3.34897 63.7865 3.3698 64.3437 3.41667 64.9062C3.46876 65.4635 3.54688 66.0156 3.65626 66.5625C3.76563 67.1146 3.90105 67.6562 4.06772 68.1875C4.23438 68.724 4.42709 69.25 4.65105 69.7604C4.87501 70.276 5.1198 70.776 5.39584 71.2656C5.67188 71.7552 5.96876 72.224 6.29688 72.6823C6.6198 73.1354 6.96876 73.5729 7.33855 73.9948C7.70834 74.4115 8.09897 74.8125 8.51563 75.1927C8.92709 75.5677 9.35938 75.9219 9.81251 76.2552C10.2604 76.5885 10.7292 76.8958 11.2136 77.1771C11.6927 77.4583 12.1927 77.7135 12.7031 77.9479C13.2135 78.1771 13.7344 78.3802 14.2656 78.5521C14.7969 78.7292 15.3385 78.875 15.8854 78.9948C16.4323 79.1094 16.9844 79.1979 17.5417 79.2604C18.099 79.3177 18.6563 79.349 19.2135 79.349H127.646C128.609 79.349 129.568 79.3021 130.531 79.2031C131.49 79.1094 132.443 78.9688 133.385 78.776C134.333 78.5833 135.266 78.349 136.188 78.0677C137.109 77.7812 138.016 77.4531 138.906 77.0833C139.792 76.7083 140.661 76.2917 141.51 75.8333C142.359 75.375 143.182 74.875 143.979 74.3333C144.776 73.7917 145.547 73.2135 146.286 72.5938C147.026 71.974 147.734 71.3229 148.411 70.6354C149.083 69.9479 149.724 69.2292 150.328 68.474C150.932 67.724 151.5 66.9427 152.026 66.1354C152.552 65.3281 153.036 64.4948 153.479 63.6406C153.922 62.7812 154.323 61.9063 154.677 61.0104C155.036 60.1146 155.349 59.2031 155.615 58.276C155.88 57.349 156.099 56.4115 156.271 55.4635C156.443 54.5156 156.568 53.5625 156.646 52.599C156.724 51.6406 156.755 50.6771 156.734 49.7135C156.734 49.0469 156.651 48.3906 156.594 47.7396C156.51 48.6302 156.385 49.5156 156.219 50.3958C156.052 51.276 155.844 52.1458 155.594 53.0052C155.349 53.8646 155.063 54.7083 154.734 55.5417C154.411 56.375 154.047 57.1927 153.646 57.9948C153.25 58.7917 152.813 59.5729 152.339 60.3333C151.865 61.0937 151.359 61.8281 150.818 62.5417C150.281 63.2552 149.708 63.9427 149.104 64.599C148.5 65.2604 147.865 65.8906 147.203 66.4948C146.542 67.0937 145.854 67.6667 145.141 68.2031C144.427 68.7396 143.688 69.2448 142.927 69.7188C142.167 70.1875 141.385 70.6198 140.583 71.0208C139.781 71.4167 138.964 71.776 138.13 72.099C137.297 72.4219 136.448 72.7083 135.589 72.9531C134.729 73.1927 133.859 73.401 132.979 73.5625C132.099 73.7292 131.214 73.849 130.323 73.9323C129.432 74.0156 128.536 74.0573 127.646 74.0573Z" fill="#C4C4C4"/>
<path d="M8.71359 67.1823C8.83859 66.1927 9.05213 65.224 9.35421 64.276C9.6563 63.3229 10.0417 62.4063 10.5105 61.5313C10.9792 60.651 11.5261 59.8229 12.1459 59.0417C12.7657 58.2604 13.4532 57.5469 14.2084 56.8906C14.9584 56.2396 15.7657 55.6615 16.625 55.1563C17.4844 54.6458 18.3803 54.224 19.3178 53.8854C20.2553 53.5417 21.2136 53.2917 22.198 53.125C23.1823 52.9583 24.1719 52.8854 25.1667 52.901C25.6459 52.901 26.1198 52.8542 26.5834 52.7604C27.0521 52.6667 27.5105 52.5313 27.948 52.349C28.3907 52.1667 28.8073 51.9427 29.2084 51.6771C29.6042 51.4115 29.9688 51.1094 30.3073 50.7708C30.6459 50.4375 30.948 50.0677 31.2136 49.6719C31.4792 49.276 31.7032 48.8542 31.8855 48.4167C32.0678 47.974 32.2032 47.5208 32.2969 47.0521C32.3907 46.5833 32.4375 46.1094 32.4375 45.6354V44.5156C32.4271 43.6354 32.4584 42.75 32.5313 41.8698C32.6042 40.9896 32.7136 40.1094 32.8698 39.2396C33.0209 38.3698 33.2188 37.5104 33.4532 36.6562C33.6875 35.8021 33.9584 34.9635 34.2761 34.1354C34.5886 33.3073 34.9375 32.5 35.3282 31.7031C35.7188 30.9115 36.1407 30.1354 36.6042 29.3802C37.0678 28.625 37.5625 27.8958 38.0938 27.1875C38.6198 26.4792 39.1823 25.7969 39.7761 25.1406C40.3698 24.4896 40.9948 23.8594 41.6459 23.2656C42.3021 22.6667 42.9792 22.1042 43.6823 21.5677C44.3907 21.0365 45.1198 20.5365 45.8698 20.0729C46.625 19.6042 47.3959 19.1771 48.1875 18.7813C48.9792 18.3906 49.7865 18.0365 50.6146 17.7188C51.4375 17.401 52.2761 17.125 53.1303 16.8854C53.9792 16.6458 54.8438 16.4479 55.7136 16.2865C56.5834 16.1302 57.4584 16.0156 58.3386 15.9375C61.3698 15.7292 64.3542 16.0156 67.2865 16.7917C70.224 17.5625 72.9584 18.7917 75.4948 20.4635C76.073 20.8594 76.7032 21.1302 77.3907 21.276C78.0782 21.4271 78.7657 21.4375 79.4532 21.3177C80.1459 21.1979 80.7917 20.9531 81.3855 20.5833C81.9792 20.2135 82.4844 19.7448 82.8959 19.1771C83.4428 18.4427 84.0209 17.7344 84.6355 17.0521C85.25 16.375 85.8959 15.7292 86.573 15.1094C87.2553 14.4948 87.9636 13.9167 88.698 13.3698C89.4323 12.8281 90.1928 12.3229 90.9844 11.849C91.7709 11.3802 92.5782 10.9531 93.4063 10.5625C94.2344 10.1771 95.0834 9.82813 95.9428 9.52604C96.8073 9.21875 97.6876 8.95833 98.573 8.73958C99.4636 8.52083 100.365 8.34896 101.271 8.21875C102.177 8.09375 103.089 8.01042 104.005 7.96875C104.917 7.93229 105.833 7.94271 106.75 7.99479C107.662 8.04688 108.573 8.14583 109.474 8.28646C110.38 8.43229 111.276 8.61979 112.162 8.84896C113.047 9.08333 113.922 9.35938 114.781 9.67708C115.635 9.99479 116.479 10.3542 117.302 10.7604C118.125 11.1615 118.927 11.6042 119.703 12.0833C120.484 12.5677 121.234 13.0833 121.964 13.6406C121.604 13.1667 121.229 12.7031 120.839 12.25C120.448 11.8021 120.047 11.3646 119.625 10.9375C119.208 10.5104 118.776 10.099 118.333 9.70313C117.891 9.30729 117.432 8.92188 116.964 8.55729C116.495 8.1875 116.01 7.83333 115.521 7.5C115.031 7.16146 114.526 6.83854 114.016 6.53646C113.5 6.22917 112.979 5.94271 112.448 5.67188C111.917 5.40104 111.375 5.15104 110.828 4.91146C110.281 4.67708 109.729 4.45833 109.167 4.26042C108.604 4.05729 108.037 3.875 107.464 3.71354C106.891 3.55208 106.313 3.40625 105.729 3.28125C105.146 3.15104 104.557 3.04688 103.969 2.95833C103.38 2.86979 102.787 2.80208 102.193 2.75C101.599 2.69792 101.005 2.66667 100.406 2.65625C99.8126 2.64583 99.2136 2.65104 98.6198 2.68229C98.0261 2.70833 97.4323 2.75521 96.8386 2.81771C96.2448 2.88542 95.6563 2.96875 95.0678 3.07292C94.4792 3.17187 93.8959 3.29688 93.3178 3.4375C92.7396 3.57813 92.1615 3.73958 91.5938 3.91667C91.0261 4.09375 90.4636 4.29167 89.9063 4.50521C89.349 4.71875 88.8021 4.94792 88.2605 5.19792C87.7188 5.44792 87.1823 5.71875 86.6615 6C86.1355 6.28646 85.6198 6.58333 85.1146 6.90104C84.6094 7.21875 84.1198 7.55208 83.6355 7.90104C83.1511 8.25 82.6771 8.61458 82.2188 8.99479C81.7605 9.375 81.3125 9.77083 80.8803 10.1771C80.4428 10.5885 80.0209 11.0104 79.6146 11.4427C79.2084 11.8802 78.8178 12.3281 78.4375 12.7917C78.0625 13.25 77.698 13.724 77.349 14.2083C77 14.6927 76.6719 15.1875 76.3542 15.6927C76.0365 16.1979 75.7396 16.7135 75.4584 17.2396C75.1771 17.7656 74.9115 18.2969 74.6615 18.8438C73.2605 17.4219 71.7292 16.1667 70.0573 15.0729C68.3855 13.9844 66.6146 13.0885 64.75 12.3802C62.8855 11.6719 60.9688 11.1719 58.9948 10.8802C57.0209 10.5885 55.0417 10.5052 53.0521 10.6406C52.1667 10.7188 51.2917 10.8385 50.4219 10.9948C49.5521 11.151 48.6928 11.349 47.8386 11.5885C46.9896 11.8281 46.1511 12.1042 45.323 12.4219C44.5 12.7396 43.6875 13.0938 42.8959 13.4896C42.1042 13.8802 41.3334 14.3125 40.5782 14.776C39.8282 15.2396 39.099 15.7396 38.3959 16.276C37.6875 16.8073 37.0105 17.375 36.3542 17.9688C35.7032 18.5677 35.0782 19.1927 34.4844 19.849C33.8907 20.5052 33.3282 21.1875 32.8021 21.8958C32.2709 22.6042 31.7761 23.3333 31.3125 24.0885C30.849 24.8438 30.4271 25.6198 30.0365 26.4115C29.6459 27.2083 29.2969 28.0156 28.9844 28.8438C28.6719 29.6719 28.3959 30.5104 28.1615 31.3646C27.9271 32.2188 27.7344 33.0781 27.5782 33.9531C27.4271 34.8229 27.3125 35.6979 27.2396 36.5781C27.1667 37.4635 27.1355 38.3438 27.1511 39.2292V40.3438C27.1459 40.8229 27.1042 41.2969 27.0105 41.7604C26.9167 42.2292 26.7761 42.6875 26.5938 43.125C26.4115 43.5677 26.1875 43.9844 25.9219 44.3802C25.6563 44.7813 25.3542 45.1458 25.0209 45.4844C24.6823 45.8229 24.3125 46.1198 23.9167 46.3854C23.5209 46.651 23.099 46.875 22.6615 47.0573C22.2188 47.2396 21.7657 47.3802 21.2969 47.474C20.8282 47.5677 20.3542 47.6094 19.8803 47.6094C18.9115 47.5938 17.9532 47.6615 17 47.8177C16.0469 47.9688 15.1146 48.2083 14.198 48.526C13.2865 48.8438 12.4115 49.2396 11.573 49.7135C10.7292 50.1927 9.93755 50.7344 9.19275 51.3542C8.44796 51.9688 7.76046 52.6458 7.14067 53.3802C6.51567 54.1198 5.95838 54.9063 5.474 55.7396C4.98963 56.5781 4.58338 57.4479 4.25525 58.3594C3.92713 59.2656 3.67713 60.1927 3.51567 61.1458C3.2865 62.6927 3.28651 64.2344 3.51046 65.776C3.73963 67.3229 4.18234 68.8021 4.849 70.2135C5.51046 71.625 6.36463 72.9115 7.4063 74.0729C8.44796 75.2344 9.63546 76.2188 10.974 77.026C10.0678 75.5521 9.42192 73.974 9.0365 72.2917C8.65109 70.6042 8.54171 68.901 8.71359 67.1823Z" fill="#F2F2F2"/>
<path d="M106.49 31.7448H132.932V52.901H146.156L119.708 79.349L93.2656 52.901H106.49V31.7448Z" fill="#ACCDF2"/>
<path d="M132.932 50.2552L106.49 42.3229V31.7448H132.932V50.2552Z" fill="#8ABCF2"/>
<path d="M111.849 125.552H125.312L107.49 103.771H120.958L80.0312 58.2031L39.1041 103.797L51.9687 103.771L34.151 125.552H47.6145L35.0833 145.151H129.667L111.849 125.552Z" fill="#125C13"/>
<path d="M109.755 141.729L81.4375 115.594H105.396L79.6615 89.4583H101.042L75.1875 63.599L39.1042 103.797L51.9688 103.771L34.151 125.552H47.6146L32.9062 141.729H109.755Z" fill="#105211"/>
<path d="M33.8386 136.438L27.3021 156.042H75.2188L68.6875 136.438H33.8386Z" fill="#705230"/>
<path d="M70.8594 110.307H94.8177L69.0834 84.1667H90.4636L51.2605 44.9688L12.0573 84.1667H33.4427L7.70317 110.307H27.3021L3.349 136.438H99.1771L70.8594 110.307Z" fill="#428519"/>
<mask id="mask0_22_6063" style="mask-type:luminance" maskUnits="userSpaceOnUse" x="0" y="41" width="134" height="118">
<path d="M0 41.3333H133.333V158.818H0V41.3333Z" fill="white"/>
</mask>
<g mask="url(#mask0_22_6063)">
<path d="M117.823 128.198H125.313C125.823 128.198 126.292 128.057 126.724 127.786C127.156 127.516 127.484 127.146 127.703 126.682C127.922 126.224 128 125.74 127.938 125.229C127.875 124.724 127.682 124.271 127.359 123.875L113.078 106.422H120.964C121.484 106.422 121.964 106.281 122.401 105.995C122.839 105.714 123.161 105.333 123.375 104.854C123.589 104.38 123.656 103.885 123.573 103.37C123.495 102.854 123.276 102.401 122.927 102.01L82.0105 56.4219C81.7761 56.1563 81.5 55.9427 81.1823 55.7865C80.8646 55.6302 80.5313 55.5417 80.1771 55.5208C79.823 55.5 79.4792 55.5469 79.1459 55.6615C78.8073 55.7813 78.5105 55.9531 78.2448 56.1927C77.9844 56.4271 77.7761 56.7083 77.625 57.026C77.474 57.349 77.3907 57.6823 77.3698 58.0365C77.3542 58.3906 77.4063 58.7344 77.5313 59.0677C77.6511 59.401 77.8334 59.6979 78.073 59.9583L115.026 101.125H107.49C106.979 101.125 106.51 101.26 106.078 101.536C105.646 101.807 105.323 102.177 105.104 102.635C104.885 103.099 104.807 103.583 104.87 104.089C104.927 104.599 105.12 105.047 105.443 105.443L119.724 122.901H111.844C111.323 122.901 110.839 123.042 110.401 123.328C109.964 123.615 109.635 123.995 109.427 124.474C109.214 124.953 109.151 125.448 109.234 125.969C109.318 126.484 109.536 126.938 109.891 127.323L123.677 142.51H81.75C81.4011 142.51 81.0625 142.578 80.7396 142.708C80.4167 142.844 80.1302 143.036 79.8802 143.281C79.6355 143.531 79.4427 143.818 79.3073 144.141C79.1771 144.464 79.1094 144.802 79.1094 145.151C79.1094 145.505 79.1771 145.844 79.3073 146.167C79.4427 146.49 79.6355 146.776 79.8802 147.026C80.1302 147.271 80.4167 147.464 80.7396 147.599C81.0625 147.729 81.4011 147.797 81.75 147.797H95.5052L98.8594 153.396H77.1302L72.3698 139.083H99.1771C99.7188 139.083 100.214 138.932 100.667 138.625C101.115 138.318 101.438 137.911 101.635 137.406C101.833 136.896 101.875 136.38 101.75 135.849C101.63 135.318 101.37 134.87 100.969 134.5L77.625 112.948H94.8177C95.3542 112.953 95.8438 112.807 96.2917 112.51C96.7344 112.214 97.0625 111.818 97.2709 111.323C97.474 110.833 97.5261 110.323 97.4219 109.797C97.323 109.271 97.0782 108.818 96.7032 108.438L75.3959 86.8021H90.4688C91.0052 86.8021 91.4948 86.6563 91.9375 86.3542C92.3802 86.0573 92.7084 85.6615 92.9115 85.1719C93.1146 84.6771 93.1667 84.1667 93.0625 83.6406C92.9584 83.1198 92.7188 82.6667 92.3386 82.2865L53.1302 43.099C52.8854 42.849 52.599 42.6563 52.2761 42.526C51.9479 42.3906 51.6146 42.3229 51.2604 42.3229C50.9115 42.3229 50.5729 42.3906 50.25 42.526C49.9271 42.6563 49.6407 42.849 49.3907 43.099L10.1875 82.2969C9.81253 82.6771 9.56774 83.1302 9.46357 83.651C9.3594 84.1771 9.41149 84.6875 9.61461 85.1823C9.81774 85.6771 10.1459 86.0677 10.5886 86.3698C11.0365 86.6667 11.5261 86.8125 12.0573 86.8125H27.1302L5.81774 108.438C5.44795 108.818 5.21357 109.271 5.1094 109.792C5.01044 110.313 5.06253 110.823 5.27086 111.313C5.47399 111.802 5.7969 112.193 6.23961 112.49C6.68232 112.786 7.1719 112.932 7.70315 112.932H21.2917L1.39586 134.651C1.0417 135.036 0.822945 135.49 0.739612 136.005C0.651069 136.526 0.71357 137.026 0.927112 137.505C1.13545 137.984 1.46357 138.37 1.90107 138.656C2.33857 138.943 2.82295 139.083 3.34899 139.083H30.1667L24.7969 155.219C24.7292 155.417 24.6875 155.62 24.6719 155.828C24.6563 156.036 24.6615 156.24 24.6927 156.448C24.724 156.656 24.7813 156.854 24.8594 157.047C24.9427 157.24 25.0417 157.422 25.1667 157.594C25.2865 157.76 25.4271 157.911 25.5886 158.047C25.7448 158.188 25.9167 158.302 26.1042 158.396C26.2865 158.49 26.4844 158.563 26.6875 158.615C26.8907 158.661 27.0938 158.688 27.3021 158.688H103.531C104.005 158.688 104.453 158.568 104.865 158.328C105.276 158.089 105.599 157.76 105.833 157.344C106.068 156.932 106.182 156.484 106.177 156.005C106.172 155.531 106.047 155.089 105.802 154.677L101.667 147.802H129.667C130.193 147.802 130.672 147.656 131.109 147.37C131.547 147.083 131.87 146.703 132.083 146.224C132.292 145.74 132.354 145.245 132.271 144.729C132.182 144.214 131.964 143.76 131.609 143.375L117.823 128.198ZM29.2657 112.094C29.6198 111.708 29.8386 111.255 29.9271 110.74C30.0104 110.219 29.9479 109.719 29.7344 109.24C29.5261 108.76 29.1979 108.375 28.7604 108.089C28.3229 107.802 27.8386 107.661 27.3177 107.661H14.0157L35.3282 86.026C35.6979 85.6458 35.9323 85.1927 36.0365 84.6719C36.1354 84.151 36.0834 83.6406 35.875 83.151C35.6719 82.6615 35.349 82.2708 34.9063 81.974C34.4636 81.6771 33.974 81.5313 33.4427 81.5313H18.4427L51.2604 48.7135L84.0782 81.526H69.0782C68.5469 81.526 68.0625 81.6719 67.6198 81.9688C67.1771 82.2656 66.849 82.6563 66.6459 83.1458C66.4375 83.6354 66.3854 84.1458 66.4896 84.6667C66.5886 85.1875 66.823 85.6406 67.198 86.0208L88.5052 107.661H70.8594C70.3177 107.661 69.823 107.818 69.3698 108.12C68.9219 108.427 68.599 108.833 68.4011 109.344C68.2032 109.849 68.1667 110.365 68.2865 110.896C68.4063 111.427 68.6667 111.875 69.0677 112.245L92.4115 133.797H9.3594L29.2657 112.094ZM30.974 153.396L35.7344 139.083H66.7761L71.5469 153.396H30.974Z" fill="black"/>
</g>
<mask id="mask1_22_6063" style="mask-type:luminance" maskUnits="userSpaceOnUse" x="0" y="0" width="160" height="80">
<path d="M0 0H159.646V80H0V0Z" fill="white"/>
</mask>
<g mask="url(#mask1_22_6063)">
<path d="M127.844 18.5417C127.302 17.2604 126.677 16.0208 125.964 14.8281C125.25 13.6302 124.458 12.4896 123.589 11.4063C122.724 10.3177 121.781 9.29688 120.771 8.33854C119.766 7.38021 118.693 6.5 117.562 5.6875C116.432 4.88021 115.25 4.15104 114.016 3.5C112.786 2.85417 111.516 2.29167 110.208 1.81771C108.901 1.34896 107.568 0.963543 106.203 0.677084C104.844 0.385418 103.469 0.187501 102.083 0.0885426C100.693 -0.0104148 99.3073 -0.0156251 97.9166 0.0729176C96.5312 0.161459 95.1562 0.34375 93.7916 0.625001C92.4271 0.906252 91.0885 1.27604 89.776 1.73958C88.4635 2.19792 87.1927 2.75 85.9531 3.39063C84.7187 4.02604 83.5312 4.74479 82.3958 5.54688C81.2552 6.34896 80.177 7.22396 79.1614 8.17188C78.1458 9.11979 77.1979 10.1354 76.3177 11.2135C75.4427 12.2917 74.6406 13.4271 73.9166 14.6198C70.9479 12.2396 67.6458 10.4792 64.0156 9.33854C60.3854 8.19792 56.677 7.75521 52.8802 8.00521C51.9114 8.08854 50.9531 8.21354 50 8.38021C49.052 8.55208 48.1093 8.76563 47.1718 9.02604C46.2396 9.28125 45.3229 9.58333 44.4166 9.93229C43.5156 10.276 42.6302 10.6615 41.7604 11.0885C40.8906 11.5156 40.0468 11.9844 39.2239 12.4948C38.3958 13 37.5989 13.5469 36.8281 14.125C36.0521 14.7083 35.3073 15.3281 34.5937 15.9792C33.8802 16.6302 33.1979 17.3125 32.5468 18.0313C31.8958 18.7448 31.2812 19.4896 30.6979 20.2656C30.1146 21.0417 29.5729 21.8385 29.0677 22.6667C28.5625 23.4896 28.0937 24.3385 27.6666 25.2031C27.2396 26.0729 26.8593 26.9583 26.5156 27.8646C26.1718 28.7708 25.8698 29.6875 25.6146 30.6198C25.3541 31.5573 25.1458 32.5 24.9739 33.4531C24.8073 34.4062 24.6823 35.3646 24.6041 36.3281C24.526 37.2917 24.4896 38.2604 24.5052 39.224V40.3438C24.5052 40.9583 24.3854 41.5469 24.151 42.1146C23.9166 42.6771 23.5833 43.1771 23.1458 43.6146C22.7135 44.0469 22.2135 44.3802 21.6458 44.6146C21.0833 44.849 20.4895 44.9688 19.8802 44.9688C18.7343 44.9479 17.5989 45.026 16.4687 45.2135C15.3385 45.3958 14.2343 45.6823 13.1562 46.0677C12.0781 46.4583 11.0468 46.9375 10.0573 47.5104C9.06767 48.0833 8.13538 48.7448 7.26559 49.4896C6.3958 50.2344 5.59893 51.0469 4.88017 51.9375C4.15622 52.8281 3.5208 53.7708 2.97392 54.776C2.42184 55.7813 1.96872 56.8281 1.60934 57.9115C1.24997 59 0.994759 60.1094 0.838508 61.2448C0.630175 62.9479 0.656217 64.651 0.921841 66.349C1.18747 68.0417 1.68226 69.6719 2.40101 71.2344C3.11976 72.7917 4.03642 74.224 5.15622 75.526C6.27601 76.8333 7.54684 77.9583 8.97913 78.9063C9.2708 79.099 9.58851 79.2292 9.93226 79.2969C10.2812 79.3646 10.625 79.3646 10.9687 79.2969C11.3125 79.2292 11.6302 79.0938 11.9218 78.901C12.2135 78.7031 12.4531 78.4583 12.6458 78.1667C12.8437 77.875 12.9739 77.5573 13.0416 77.2135C13.1093 76.8698 13.1093 76.526 13.0364 76.1823C12.9687 75.8385 12.8333 75.5208 12.6406 75.2292C12.4427 74.9375 12.1979 74.6927 11.9062 74.5C10.8854 73.8229 9.97393 73.0156 9.17184 72.0833C8.37497 71.151 7.71872 70.125 7.20309 69.0104C6.68747 67.8958 6.33851 66.7292 6.15101 65.5156C5.9583 64.3021 5.93747 63.0833 6.08851 61.8646C6.21872 61.0573 6.41663 60.2604 6.68747 59.4844C6.9583 58.7083 7.29163 57.9635 7.69788 57.25C8.09892 56.5365 8.56247 55.8594 9.08851 55.2292C9.61455 54.599 10.1875 54.0156 10.8177 53.4896C11.4427 52.9583 12.1145 52.4896 12.8281 52.0781C13.5416 51.6719 14.2812 51.3281 15.0573 51.0521C15.8281 50.776 16.6198 50.5729 17.4323 50.4375C18.2395 50.3073 19.0573 50.2448 19.8802 50.2552C20.5312 50.2552 21.1718 50.1927 21.8125 50.0625C22.4479 49.9375 23.0677 49.75 23.6718 49.5C24.2708 49.25 24.8437 48.9427 25.3854 48.5833C25.9218 48.224 26.4271 47.8125 26.8854 47.349C27.3437 46.8906 27.7552 46.3906 28.1198 45.849C28.4791 45.3073 28.7864 44.7396 29.0364 44.1354C29.2864 43.5365 29.4739 42.9167 29.5989 42.276C29.7291 41.6406 29.7916 40.9948 29.7916 40.3438V39.224C29.7708 37.6198 29.8958 36.026 30.1666 34.4427C30.4427 32.8594 30.8646 31.3125 31.4271 29.8073C31.9948 28.3021 32.6979 26.8646 33.5312 25.4948C34.3698 24.1198 35.3229 22.8385 36.401 21.6458C37.4791 20.4531 38.6562 19.3698 39.9375 18.401C41.2187 17.4271 42.5781 16.5833 44.0208 15.8698C45.4583 15.1563 46.9531 14.5781 48.5 14.1458C50.0468 13.7135 51.6198 13.4271 53.2239 13.2865C55.0208 13.1667 56.8177 13.2396 58.5989 13.5052C60.3854 13.7708 62.125 14.224 63.8125 14.8646C65.5 15.5 67.0989 16.3125 68.6145 17.2969C70.1302 18.276 71.5208 19.4115 72.7916 20.6927C72.9427 20.8438 73.1093 20.974 73.2916 21.0885C73.4739 21.1979 73.6666 21.2865 73.8698 21.3542C74.0729 21.4167 74.2812 21.4583 74.4948 21.474C74.7083 21.4844 74.9218 21.474 75.1302 21.4375C75.3437 21.401 75.5468 21.3385 75.7395 21.2552C75.9375 21.1667 76.1198 21.0573 76.2864 20.9271C76.4583 20.7969 76.6093 20.6458 76.7448 20.4792C76.875 20.3125 76.9895 20.1354 77.0781 19.9375C77.5937 18.8073 78.1927 17.724 78.8698 16.6823C79.552 15.6406 80.302 14.6563 81.125 13.724C81.9531 12.7969 82.8437 11.9323 83.7968 11.1354C84.75 10.3385 85.7552 9.61459 86.8177 8.96875C87.8802 8.32292 88.9791 7.75521 90.125 7.27083C91.2708 6.78646 92.4479 6.39063 93.651 6.08333C94.8541 5.77604 96.0729 5.55729 97.3073 5.42708C98.5468 5.30208 99.7864 5.26563 101.026 5.32292C102.271 5.38021 103.5 5.52604 104.719 5.76563C105.937 6.00521 107.135 6.33333 108.307 6.75C109.474 7.16667 110.609 7.66667 111.703 8.25521C112.802 8.83854 113.849 9.50521 114.849 10.2448C115.844 10.9844 116.781 11.7969 117.661 12.6771C118.536 13.5573 119.344 14.5 120.083 15.5C120.818 16.5 121.479 17.5469 122.057 18.6458C122.641 19.7448 123.135 20.8802 123.552 22.0521C123.74 22.5781 124.057 23 124.516 23.3229C124.969 23.6458 125.474 23.8073 126.031 23.8125H126.677C127.552 23.7969 128.417 23.8281 129.286 23.901C130.156 23.974 131.016 24.0885 131.875 24.2448C132.729 24.401 133.578 24.5938 134.417 24.8333C135.255 25.0677 136.078 25.349 136.891 25.6615C137.698 25.9792 138.495 26.3333 139.271 26.7292C140.047 27.1198 140.802 27.5521 141.536 28.0208C142.276 28.4844 142.984 28.9844 143.672 29.5208C144.359 30.0573 145.021 30.6198 145.651 31.2188C146.286 31.8177 146.885 32.4479 147.458 33.1042C148.031 33.7604 148.568 34.4427 149.073 35.151C149.578 35.8594 150.052 36.5938 150.484 37.349C150.922 38.099 151.318 38.875 151.682 39.6667C152.042 40.4583 152.365 41.2656 152.646 42.0885C152.927 42.9167 153.172 43.75 153.375 44.599C153.578 45.4427 153.734 46.2969 153.854 47.1615C153.974 48.0208 154.052 48.8906 154.089 49.7604C154.115 51.0417 154.047 52.3125 153.885 53.5833C153.724 54.8542 153.469 56.1042 153.13 57.3385C152.786 58.5729 152.354 59.776 151.839 60.9427C151.323 62.1146 150.724 63.2448 150.042 64.3281C149.359 65.4115 148.604 66.4375 147.776 67.4167C146.948 68.3906 146.052 69.2969 145.089 70.1406C144.125 70.9844 143.109 71.7552 142.036 72.4531C140.964 73.151 139.844 73.7656 138.682 74.3021C138.406 74.4271 138.161 74.5938 137.948 74.8073C137.729 75.0156 137.557 75.2552 137.422 75.526C137.286 75.7917 137.203 76.0781 137.161 76.375C137.125 76.6771 137.141 76.974 137.203 77.2656C137.271 77.5625 137.38 77.8333 137.536 78.0938C137.698 78.349 137.891 78.5729 138.125 78.7604C138.359 78.9479 138.62 79.0938 138.901 79.1927C139.187 79.2969 139.479 79.349 139.781 79.349C140.167 79.349 140.531 79.2656 140.885 79.1042C142.281 78.4635 143.62 77.724 144.911 76.8906C146.198 76.0521 147.417 75.1302 148.573 74.1146C149.729 73.1042 150.802 72.0104 151.797 70.8438C152.797 69.6719 153.703 68.4375 154.521 67.1406C155.333 65.8385 156.057 64.4844 156.677 63.0833C157.297 61.6771 157.812 60.2344 158.224 58.7552C158.635 57.276 158.937 55.776 159.13 54.25C159.323 52.7292 159.406 51.1979 159.38 49.6615C159.339 48.6458 159.255 47.6302 159.12 46.625C158.984 45.6146 158.807 44.6146 158.578 43.625C158.349 42.6302 158.073 41.6562 157.755 40.6875C157.432 39.724 157.068 38.776 156.656 37.8438C156.245 36.9115 155.792 36.0052 155.297 35.1146C154.802 34.224 154.266 33.3646 153.687 32.526C153.109 31.6875 152.495 30.8802 151.839 30.099C151.187 29.3177 150.5 28.5729 149.776 27.8594C149.052 27.1458 148.292 26.4635 147.505 25.8229C146.719 25.1771 145.901 24.5729 145.057 24.0052C144.208 23.4427 143.339 22.9167 142.443 22.4323C141.552 21.9479 140.635 21.5052 139.698 21.1094C138.76 20.7083 137.807 20.3594 136.839 20.0521C135.87 19.7396 134.885 19.4792 133.891 19.2656C132.901 19.0521 131.896 18.8802 130.885 18.7604C129.875 18.6406 128.865 18.5677 127.844 18.5417Z" fill="black"/>
</g>
<path d="M84.5364 26.4531C84.8541 26.4531 85.1562 26.5156 85.4479 26.6354C85.7395 26.7552 85.9947 26.9271 86.2187 27.151C86.4427 27.375 86.6145 27.6302 86.7343 27.9219C86.8541 28.2135 86.9166 28.5208 86.9166 28.8333C86.9166 29.1875 86.9843 29.5208 87.1197 29.849C87.2499 30.1719 87.4427 30.4583 87.6927 30.7031C87.9374 30.9531 88.2239 31.1458 88.552 31.276C88.875 31.4115 89.2083 31.4792 89.5624 31.4792C89.9114 31.4792 90.2499 31.4115 90.5729 31.276C90.8958 31.1458 91.1822 30.9531 91.4322 30.7031C91.677 30.4583 91.8697 30.1719 92.0052 29.849C92.1406 29.5208 92.2083 29.1875 92.2083 28.8333C92.2083 28.3333 92.1562 27.8333 92.0624 27.3385C91.9635 26.8437 91.8177 26.3646 91.6249 25.8958C91.4322 25.4323 91.1979 24.9896 90.9166 24.5729C90.6354 24.151 90.3177 23.7656 89.9635 23.4062C89.6041 23.0521 89.2187 22.7344 88.802 22.4531C88.3802 22.1719 87.9374 21.9375 87.4739 21.7448C87.0104 21.5521 86.526 21.4062 86.0364 21.3073C85.5416 21.2083 85.0416 21.1562 84.5364 21.1562C84.0312 21.1562 83.5364 21.2083 83.0416 21.3073C82.5468 21.4062 82.0677 21.5521 81.5989 21.7448C81.1354 21.9375 80.6927 22.1719 80.276 22.4531C79.8541 22.7344 79.4687 23.0521 79.1093 23.4062C78.7552 23.7656 78.4374 24.151 78.1562 24.5729C77.8802 24.9896 77.6406 25.4323 77.4479 25.8958C77.2552 26.3646 77.1093 26.8437 77.0156 27.3385C76.9166 27.8333 76.8645 28.3333 76.8697 28.8333V36.875C76.8645 37.3802 76.9166 37.8802 77.0156 38.3698C77.1093 38.8646 77.2552 39.349 77.4479 39.8125C77.6406 40.276 77.8802 40.7187 78.1562 41.1406C78.4374 41.5573 78.7552 41.9479 79.1093 42.3021C79.4687 42.6615 79.8541 42.9792 80.276 43.2552C80.6927 43.5365 81.1354 43.776 81.5989 43.9687C82.0677 44.1615 82.5468 44.3073 83.0416 44.4062C83.5364 44.5 84.0312 44.5521 84.5364 44.5521C85.0416 44.5521 85.5416 44.5 86.0364 44.4062C86.526 44.3073 87.0104 44.1615 87.4739 43.9687C87.9374 43.776 88.3802 43.5365 88.802 43.2552C89.2187 42.9792 89.6041 42.6615 89.9635 42.3021C90.3177 41.9479 90.6354 41.5573 90.9166 41.1406C91.1979 40.7187 91.4322 40.276 91.6249 39.8125C91.8177 39.349 91.9635 38.8646 92.0624 38.3698C92.1562 37.8802 92.2083 37.3802 92.2083 36.875C92.2083 36.526 92.1406 36.1875 92.0052 35.8646C91.8697 35.5365 91.677 35.2552 91.4322 35.0052C91.1822 34.7552 90.8958 34.5677 90.5729 34.4323C90.2499 34.2969 89.9114 34.2292 89.5624 34.2292C89.2083 34.2292 88.875 34.2969 88.552 34.4323C88.2239 34.5677 87.9374 34.7552 87.6927 35.0052C87.4427 35.2552 87.2499 35.5365 87.1197 35.8646C86.9843 36.1875 86.9166 36.526 86.9166 36.875C86.9166 37.1927 86.8541 37.4948 86.7343 37.7865C86.6145 38.0781 86.4427 38.3333 86.2187 38.5573C85.9947 38.7812 85.7395 38.9531 85.4479 39.0729C85.1562 39.1927 84.8541 39.2552 84.5364 39.2552C84.2187 39.2552 83.9166 39.1927 83.6249 39.0729C83.3333 38.9531 83.0781 38.7812 82.8541 38.5573C82.6302 38.3333 82.4583 38.0781 82.3385 37.7865C82.2187 37.4948 82.1562 37.1927 82.1562 36.875V28.8333C82.1562 28.5208 82.2187 28.2135 82.3385 27.9219C82.4583 27.6302 82.6302 27.375 82.8541 27.151C83.0781 26.9271 83.3333 26.7552 83.6249 26.6354C83.9166 26.5156 84.2187 26.4531 84.5364 26.4531Z" fill="black"/>
<path d="M100.406 44.5417C100.906 44.5417 101.406 44.4948 101.901 44.3958C102.396 44.2969 102.875 44.151 103.339 43.9583C103.807 43.7656 104.245 43.5313 104.667 43.25C105.083 42.974 105.474 42.6563 105.828 42.2969C106.182 41.9427 106.5 41.5521 106.781 41.1354C107.062 40.7188 107.297 40.276 107.49 39.8073C107.682 39.3438 107.828 38.8646 107.927 38.3698C108.026 37.875 108.073 37.3802 108.073 36.875V28.8333C108.073 28.3333 108.026 27.8333 107.927 27.3385C107.828 26.8438 107.682 26.3646 107.49 25.901C107.297 25.4375 107.062 24.9948 106.781 24.5729C106.5 24.1563 106.182 23.7656 105.828 23.4115C105.474 23.0573 105.083 22.7396 104.667 22.4583C104.245 22.1771 103.807 21.9427 103.339 21.75C102.875 21.5573 102.396 21.4115 101.901 21.3125C101.406 21.2135 100.906 21.1667 100.406 21.1667C99.901 21.1667 99.401 21.2135 98.9062 21.3125C98.4167 21.4115 97.9323 21.5573 97.4688 21.75C97.0052 21.9427 96.5625 22.1771 96.1458 22.4583C95.724 22.7396 95.3385 23.0573 94.9792 23.4115C94.625 23.7656 94.3073 24.1563 94.026 24.5729C93.75 24.9948 93.5104 25.4375 93.3177 25.901C93.125 26.3646 92.9792 26.8438 92.8802 27.3385C92.7865 27.8333 92.7344 28.3333 92.7344 28.8333V36.875C92.7344 37.3802 92.7865 37.875 92.8802 38.3698C92.9792 38.8646 93.125 39.3438 93.3177 39.8073C93.5104 40.276 93.75 40.7188 94.026 41.1354C94.3073 41.5521 94.625 41.9427 94.9792 42.2969C95.3385 42.6563 95.724 42.974 96.1458 43.25C96.5625 43.5313 97.0052 43.7656 97.4688 43.9583C97.9323 44.151 98.4167 44.2969 98.9062 44.3958C99.401 44.4948 99.901 44.5417 100.406 44.5417ZM98.026 28.8333C98.026 28.5208 98.0833 28.2135 98.2031 27.9219C98.3281 27.6302 98.5 27.375 98.724 27.151C98.9427 26.9271 99.2031 26.7552 99.4948 26.6354C99.7865 26.5156 100.089 26.4531 100.406 26.4531C100.719 26.4531 101.026 26.5156 101.318 26.6354C101.609 26.7552 101.865 26.9271 102.089 27.151C102.313 27.375 102.484 27.6302 102.604 27.9219C102.724 28.2135 102.786 28.5208 102.786 28.8333V36.875C102.786 37.1927 102.724 37.4948 102.604 37.7865C102.484 38.0781 102.313 38.3333 102.089 38.5573C101.865 38.7813 101.609 38.9531 101.318 39.0729C101.026 39.1927 100.719 39.2552 100.406 39.2552C100.089 39.2552 99.7865 39.1927 99.4948 39.0729C99.2031 38.9531 98.9427 38.7813 98.724 38.5573C98.5 38.3333 98.3281 38.0781 98.2031 37.7865C98.0833 37.4948 98.026 37.1927 98.026 36.875V28.8333Z" fill="black"/>
<path d="M110.083 44.3333C109.63 44.6719 109.318 45.1146 109.146 45.6615C108.979 46.2031 108.979 46.7448 109.161 47.2865C109.344 47.8229 109.661 48.2604 110.125 48.5938C110.589 48.9271 111.099 49.0938 111.672 49.0938H119.708C120.062 49.0938 120.396 49.026 120.724 48.8906C121.047 48.7552 121.333 48.5677 121.578 48.3177C121.828 48.0729 122.021 47.7865 122.151 47.4583C122.286 47.1354 122.354 46.7969 122.354 46.4479C122.354 46.099 122.286 45.7604 122.151 45.4375C122.021 45.1146 121.828 44.8281 121.578 44.5781C121.333 44.3281 121.047 44.1406 120.724 44.0052C120.396 43.8698 120.062 43.8021 119.708 43.8021H119.609L119.687 43.7396C119.917 43.5729 120.13 43.3854 120.333 43.1927C120.536 42.9948 120.724 42.7865 120.901 42.5625C121.078 42.3438 121.24 42.1094 121.385 41.8698C121.531 41.625 121.667 41.375 121.781 41.1198C121.896 40.8594 121.995 40.5938 122.073 40.3229C122.156 40.0521 122.219 39.776 122.266 39.5C122.312 39.2188 122.339 38.9375 122.349 38.6563C122.359 38.375 122.354 38.0938 122.328 37.8125C122.302 37.526 122.26 37.25 122.198 36.974C122.135 36.6979 122.057 36.4271 121.964 36.1615C121.87 35.8958 121.755 35.6354 121.63 35.3802C121.5 35.1302 121.354 34.8854 121.198 34.6563C121.036 34.4219 120.865 34.1979 120.677 33.9844C120.49 33.776 120.286 33.5729 120.073 33.3906C119.859 33.2031 119.635 33.0313 119.401 32.875C119.167 32.7188 118.922 32.5729 118.672 32.4479C118.417 32.3229 118.156 32.2135 117.891 32.1198C117.625 32.026 117.354 31.9479 117.073 31.8906C116.797 31.8333 116.521 31.7917 116.24 31.7656C115.953 31.7448 115.672 31.7396 115.391 31.75C115.109 31.7656 114.828 31.7969 114.547 31.8438C114.271 31.8906 113.995 31.9583 113.724 32.0417C113.453 32.125 113.193 32.224 112.932 32.3385C112.677 32.4583 112.427 32.5885 112.187 32.7396C111.948 32.8906 111.714 33.0521 111.495 33.2292C111.276 33.4063 111.068 33.599 110.875 33.8021C110.677 34.0052 110.495 34.224 110.328 34.4531C110.161 34.6771 110.005 34.9167 109.87 35.1615C109.734 35.4115 109.609 35.6667 109.505 35.9271C109.401 36.1927 109.312 36.4583 109.24 36.7344C109.167 37.0052 109.115 37.2813 109.078 37.5625C109.042 37.8438 109.026 38.125 109.026 38.4063C109.026 38.7604 109.094 39.099 109.229 39.4219C109.359 39.7448 109.552 40.0313 109.802 40.2813C110.047 40.526 110.333 40.7188 110.656 40.8542C110.984 40.9844 111.318 41.0521 111.672 41.0521C112.021 41.0521 112.359 40.9844 112.682 40.8542C113.005 40.7188 113.292 40.526 113.542 40.2813C113.786 40.0313 113.979 39.7448 114.115 39.4219C114.25 39.099 114.318 38.7604 114.318 38.4063C114.318 38.1719 114.375 37.9479 114.49 37.7396C114.609 37.5313 114.766 37.3646 114.969 37.2396C115.172 37.1146 115.391 37.0469 115.63 37.0365C115.87 37.026 116.094 37.0729 116.307 37.1823C116.521 37.2865 116.693 37.4427 116.828 37.6354C116.964 37.8333 117.036 38.0521 117.062 38.2865C117.083 38.526 117.042 38.7552 116.948 38.9688C116.849 39.1875 116.708 39.3698 116.516 39.5104L110.083 44.3333Z" fill="black"/>
<path d="M90.8229 51.8906C90.6146 52.3802 90.5677 52.8906 90.6719 53.4167C90.776 53.9427 91.0156 54.3906 91.3958 54.7708L117.839 81.2188C118.089 81.4636 118.375 81.6563 118.698 81.7917C119.021 81.9219 119.359 81.9896 119.708 81.9896C120.062 81.9896 120.396 81.9219 120.724 81.7917C121.047 81.6563 121.333 81.4636 121.578 81.2188L148.026 54.7708C148.406 54.3906 148.646 53.9427 148.75 53.4167C148.854 52.8906 148.802 52.3854 148.599 51.8906C148.396 51.3958 148.068 51 147.625 50.7031C147.182 50.4063 146.693 50.2552 146.156 50.2552H135.578V31.7448C135.578 31.3958 135.51 31.0573 135.375 30.7344C135.245 30.4063 135.052 30.1198 134.802 29.875C134.557 29.625 134.271 29.4375 133.948 29.3021C133.62 29.1667 133.286 29.099 132.932 29.099H125C124.651 29.099 124.312 29.1667 123.99 29.3021C123.661 29.4375 123.375 29.625 123.13 29.875C122.88 30.1198 122.693 30.4063 122.557 30.7344C122.422 31.0573 122.354 31.3958 122.354 31.7448C122.354 32.0938 122.422 32.4323 122.557 32.7552C122.693 33.0781 122.88 33.3646 123.13 33.6146C123.375 33.8646 123.661 34.0521 123.99 34.1875C124.312 34.3229 124.651 34.3906 125 34.3906H130.286V52.901C130.286 53.25 130.354 53.5885 130.49 53.9115C130.625 54.2396 130.818 54.5208 131.062 54.7708C131.312 55.0208 131.599 55.2083 131.922 55.3438C132.245 55.4792 132.583 55.5469 132.932 55.5469H139.771L119.708 75.6094L99.6458 55.5469H106.49C106.839 55.5469 107.177 55.4792 107.5 55.3438C107.823 55.2083 108.109 55.0208 108.359 54.7708C108.604 54.5208 108.797 54.2396 108.932 53.9115C109.062 53.5885 109.13 53.25 109.13 52.901C109.13 52.5521 109.062 52.2135 108.932 51.8906C108.797 51.5677 108.604 51.2813 108.359 51.0313C108.109 50.7813 107.823 50.5938 107.5 50.4583C107.177 50.3229 106.839 50.2552 106.49 50.2552H93.2656C92.7292 50.2552 92.2396 50.4063 91.7969 50.7031C91.349 51 91.026 51.3958 90.8229 51.8906Z" fill="black"/>
<path d="M56.2396 68.7708C56.5885 68.7708 56.9271 68.7031 57.25 68.5677C57.5729 68.4323 57.8594 68.2448 58.1094 67.9948C58.3594 67.7448 58.5469 67.4583 58.6823 67.1354C58.8177 66.8125 58.8854 66.474 58.8854 66.125V63.4792C58.8854 63.1302 58.8177 62.7917 58.6823 62.4687C58.5469 62.1458 58.3594 61.8594 58.1094 61.6094C57.8594 61.3594 57.5729 61.1719 57.25 61.0365C56.9271 60.901 56.5885 60.8333 56.2396 60.8333C55.8906 60.8333 55.5521 60.901 55.2292 61.0365C54.901 61.1719 54.6198 61.3594 54.3698 61.6094C54.1198 61.8594 53.9323 62.1458 53.7969 62.4687C53.6615 62.7917 53.5938 63.1302 53.5938 63.4792V66.125C53.5938 66.474 53.6615 66.8125 53.7969 67.1354C53.9323 67.4583 54.1198 67.7448 54.3698 67.9948C54.6198 68.2448 54.901 68.4323 55.2292 68.5677C55.5521 68.7031 55.8906 68.7708 56.2396 68.7708Z" fill="black"/>
<path d="M64.1718 68.7708H61.526C61.177 68.7708 60.8385 68.8385 60.5156 68.9687C60.1927 69.1042 59.9062 69.2969 59.6562 69.5417C59.4114 69.7917 59.2187 70.0781 59.0833 70.401C58.9531 70.724 58.8854 71.0625 58.8854 71.4115C58.8854 71.7656 58.9531 72.1042 59.0833 72.4271C59.2187 72.75 59.4114 73.0365 59.6562 73.2812C59.9062 73.5312 60.1927 73.724 60.5156 73.8594C60.8385 73.9896 61.177 74.0573 61.526 74.0573H64.1718C64.526 74.0573 64.8593 73.9896 65.1875 73.8594C65.5104 73.724 65.7968 73.5312 66.0416 73.2812C66.2916 73.0365 66.4843 72.75 66.6145 72.4271C66.75 72.1042 66.8177 71.7656 66.8177 71.4115C66.8177 71.0625 66.75 70.724 66.6145 70.401C66.4843 70.0781 66.2916 69.7917 66.0416 69.5417C65.7968 69.2969 65.5104 69.1042 65.1875 68.9687C64.8593 68.8385 64.526 68.7708 64.1718 68.7708Z" fill="black"/>
<path d="M50.948 68.7708H48.3073C47.9532 68.7708 47.6198 68.8385 47.2917 68.9687C46.9688 69.1042 46.6823 69.2969 46.4375 69.5417C46.1875 69.7917 45.9948 70.0781 45.8646 70.401C45.7292 70.724 45.6615 71.0625 45.6615 71.4115C45.6615 71.7656 45.7292 72.1042 45.8646 72.4271C45.9948 72.75 46.1875 73.0365 46.4375 73.2812C46.6823 73.5312 46.9688 73.724 47.2917 73.8594C47.6198 73.9896 47.9532 74.0573 48.3073 74.0573H50.948C51.3021 74.0573 51.6407 73.9896 51.9636 73.8594C52.2865 73.724 52.573 73.5312 52.8177 73.2812C53.0677 73.0365 53.2605 72.75 53.3959 72.4271C53.5261 72.1042 53.5938 71.7656 53.5938 71.4115C53.5938 71.0625 53.5261 70.724 53.3959 70.401C53.2605 70.0781 53.0677 69.7917 52.8177 69.5417C52.573 69.2969 52.2865 69.1042 51.9636 68.9687C51.6407 68.8385 51.3021 68.7708 50.948 68.7708Z" fill="black"/>
<path d="M56.2396 74.0573C55.8906 74.0573 55.5521 74.125 55.2292 74.2604C54.901 74.3958 54.6198 74.5833 54.3698 74.8333C54.1198 75.0833 53.9323 75.3646 53.7969 75.6927C53.6615 76.0156 53.5938 76.3542 53.5938 76.7031V79.349C53.5938 79.6979 53.6615 80.0365 53.7969 80.3594C53.9323 80.6823 54.1198 80.9688 54.3698 81.2188C54.6198 81.4635 54.901 81.6563 55.2292 81.7917C55.5521 81.9271 55.8906 81.9896 56.2396 81.9896C56.5885 81.9896 56.9271 81.9271 57.25 81.7917C57.5729 81.6563 57.8594 81.4635 58.1094 81.2188C58.3594 80.9688 58.5469 80.6823 58.6823 80.3594C58.8177 80.0365 58.8854 79.6979 58.8854 79.349V76.7031C58.8854 76.3542 58.8177 76.0156 58.6823 75.6927C58.5469 75.3646 58.3594 75.0833 58.1094 74.8333C57.8594 74.5833 57.5729 74.3958 57.25 74.2604C56.9271 74.125 56.5885 74.0573 56.2396 74.0573Z" fill="black"/>
<path d="M138.224 92.5729C138.573 92.5729 138.911 92.5052 139.234 92.3698C139.557 92.2344 139.844 92.0417 140.094 91.7969C140.339 91.5469 140.531 91.2604 140.667 90.9375C140.802 90.6146 140.87 90.276 140.87 89.9271V87.2813C140.87 86.9323 140.802 86.5938 140.667 86.2708C140.531 85.9427 140.339 85.6615 140.094 85.4115C139.844 85.1615 139.557 84.974 139.234 84.8385C138.911 84.7031 138.573 84.6354 138.224 84.6354C137.87 84.6354 137.536 84.7031 137.208 84.8385C136.885 84.974 136.599 85.1615 136.354 85.4115C136.104 85.6615 135.911 85.9427 135.781 86.2708C135.646 86.5938 135.578 86.9323 135.578 87.2813V89.9271C135.578 90.276 135.646 90.6146 135.781 90.9375C135.911 91.2604 136.104 91.5469 136.354 91.7969C136.599 92.0417 136.885 92.2344 137.208 92.3698C137.536 92.5052 137.87 92.5729 138.224 92.5729Z" fill="black"/>
<path d="M146.156 92.5729H143.51C143.161 92.5729 142.823 92.6354 142.5 92.7708C142.177 92.9063 141.891 93.099 141.641 93.3438C141.396 93.5938 141.203 93.8802 141.068 94.2031C140.932 94.526 140.87 94.8646 140.87 95.2135C140.87 95.5677 140.932 95.901 141.068 96.2292C141.203 96.5521 141.396 96.8385 141.641 97.0833C141.891 97.3333 142.177 97.526 142.5 97.6563C142.823 97.7917 143.161 97.8594 143.51 97.8594H146.156C146.505 97.8594 146.844 97.7917 147.167 97.6563C147.495 97.526 147.776 97.3333 148.026 97.0833C148.276 96.8385 148.464 96.5521 148.599 96.2292C148.734 95.901 148.802 95.5677 148.802 95.2135C148.802 94.8646 148.734 94.526 148.599 94.2031C148.464 93.8802 148.276 93.5938 148.026 93.3438C147.776 93.099 147.495 92.9063 147.167 92.7708C146.844 92.6354 146.505 92.5729 146.156 92.5729Z" fill="black"/>
<path d="M132.932 92.5729H130.286C129.938 92.5729 129.599 92.6354 129.276 92.7708C128.953 92.9063 128.667 93.099 128.417 93.3438C128.172 93.5938 127.979 93.8802 127.844 94.2031C127.714 94.526 127.646 94.8646 127.646 95.2135C127.646 95.5677 127.714 95.901 127.844 96.2292C127.979 96.5521 128.172 96.8385 128.417 97.0833C128.667 97.3333 128.953 97.526 129.276 97.6563C129.599 97.7917 129.938 97.8594 130.286 97.8594H132.932C133.286 97.8594 133.62 97.7917 133.948 97.6563C134.271 97.526 134.557 97.3333 134.802 97.0833C135.052 96.8385 135.245 96.5521 135.375 96.2292C135.51 95.901 135.578 95.5677 135.578 95.2135C135.578 94.8646 135.51 94.526 135.375 94.2031C135.245 93.8802 135.052 93.5938 134.802 93.3438C134.557 93.099 134.271 92.9063 133.948 92.7708C133.62 92.6354 133.286 92.5729 132.932 92.5729Z" fill="black"/>
<path d="M138.224 97.8594C137.87 97.8594 137.536 97.9271 137.208 98.0625C136.885 98.1927 136.599 98.3854 136.354 98.6354C136.104 98.8802 135.911 99.1667 135.781 99.4948C135.646 99.8177 135.578 100.156 135.578 100.505V103.151C135.578 103.5 135.646 103.839 135.781 104.161C135.911 104.484 136.104 104.771 136.354 105.021C136.599 105.266 136.885 105.458 137.208 105.594C137.536 105.724 137.87 105.792 138.224 105.792C138.573 105.792 138.911 105.724 139.234 105.594C139.557 105.458 139.844 105.266 140.094 105.021C140.339 104.771 140.531 104.484 140.667 104.161C140.802 103.839 140.87 103.5 140.87 103.151V100.505C140.87 100.156 140.802 99.8177 140.667 99.4948C140.531 99.1667 140.339 98.8802 140.094 98.6354C139.844 98.3854 139.557 98.1927 139.234 98.0625C138.911 97.9271 138.573 97.8594 138.224 97.8594Z" fill="black"/>
</svg>
