<svg width="98" height="120" viewBox="0 0 98 120" fill="none" xmlns="http://www.w3.org/2000/svg">
<mask id="mask0_22_6069" style="mask-type:luminance" maskUnits="userSpaceOnUse" x="0" y="10" width="98" height="100">
<path d="M0 10.9062H97.125V109.573H0V10.9062Z" fill="white"/>
</mask>
<g mask="url(#mask0_22_6069)">
<path d="M97.1147 60C97.1147 61.5885 97.0365 63.1719 96.8803 64.7552C96.724 66.3333 96.4949 67.9062 96.1824 69.4635C95.8751 71.0208 95.4845 72.5625 95.0261 74.0833C94.5626 75.599 94.0261 77.0938 93.422 78.5625C92.8126 80.0312 92.1303 81.4688 91.3803 82.8698C90.6355 84.2708 89.8178 85.6302 88.9324 86.9531C88.0522 88.2708 87.1042 89.5469 86.0938 90.776C85.0834 92.0052 84.0209 93.1823 82.8959 94.3021C81.7709 95.4271 80.5938 96.4948 79.3647 97.5C78.1355 98.5104 76.8595 99.4531 75.5365 100.339C74.2136 101.219 72.8542 102.036 71.448 102.786C70.047 103.531 68.6095 104.214 67.1407 104.818C65.672 105.427 64.1772 105.964 62.6563 106.422C61.1355 106.885 59.5938 107.271 58.0365 107.583C56.474 107.891 54.9063 108.125 53.323 108.281C51.7397 108.438 50.1511 108.516 48.5626 108.516C46.974 108.516 45.3855 108.438 43.8022 108.281C42.2188 108.125 40.6511 107.891 39.0886 107.583C37.5313 107.271 35.9897 106.885 34.4688 106.422C32.948 105.964 31.448 105.427 29.9792 104.818C28.5105 104.214 27.0782 103.531 25.672 102.786C24.2709 102.036 22.9115 101.219 21.5886 100.339C20.2657 99.4531 18.9897 98.5104 17.7605 97.5C16.5313 96.4948 15.3542 95.4271 14.2292 94.3021C13.1042 93.1823 12.0365 92.0052 11.0313 90.776C10.0209 89.5469 9.073 88.2708 8.19279 86.9531C7.30737 85.6302 6.48967 84.2708 5.73967 82.8698C4.98967 81.4688 4.31258 80.0312 3.70321 78.5625C3.09383 77.0938 2.56258 75.599 2.09904 74.0833C1.6355 72.5625 1.25008 71.0208 0.94279 69.4635C0.63029 67.9062 0.395914 66.3333 0.239665 64.7552C0.088622 63.1719 0.010498 61.5885 0.010498 60C0.010498 58.4063 0.088622 56.8229 0.239665 55.2448C0.395914 53.6615 0.63029 52.0938 0.94279 50.5312C1.25008 48.974 1.6355 47.4323 2.09904 45.9167C2.56258 44.3958 3.09383 42.901 3.70321 41.4323C4.31258 39.9635 4.98967 38.5313 5.73967 37.125C6.48967 35.724 7.30737 34.3646 8.19279 33.0417C9.073 31.724 10.0209 30.4479 11.0313 29.2188C12.0365 27.9896 13.1042 26.8177 14.2292 25.6927C15.3542 24.5677 16.5313 23.5 17.7605 22.4948C18.9897 21.4844 20.2657 20.5417 21.5886 19.6562C22.9115 18.776 24.2709 17.9583 25.672 17.2083C27.0782 16.4635 28.5105 15.7812 29.9792 15.1771C31.448 14.5677 32.948 14.0312 34.4688 13.5729C35.9897 13.1094 37.5313 12.724 39.0886 12.4167C40.6511 12.1042 42.2188 11.8698 43.8022 11.7135C45.3855 11.5625 46.974 11.4844 48.5626 11.4844C50.1511 11.4844 51.7397 11.5625 53.323 11.7135C54.9063 11.8698 56.474 12.1042 58.0365 12.4167C59.5938 12.724 61.1355 13.1094 62.6563 13.5729C64.1772 14.0312 65.672 14.5677 67.1407 15.1771C68.6095 15.7812 70.047 16.4635 71.448 17.2083C72.8542 17.9583 74.2136 18.776 75.5365 19.6562C76.8595 20.5417 78.1355 21.4844 79.3647 22.4948C80.5938 23.5 81.7709 24.5677 82.8959 25.6927C84.0209 26.8177 85.0834 27.9896 86.0938 29.2188C87.1042 30.4479 88.0522 31.724 88.9324 33.0417C89.8178 34.3646 90.6355 35.724 91.3803 37.125C92.1303 38.5313 92.8126 39.9635 93.422 41.4323C94.0261 42.901 94.5626 44.3958 95.0261 45.9167C95.4845 47.4323 95.8751 48.974 96.1824 50.5312C96.4949 52.0938 96.724 53.6615 96.8803 55.2448C97.0365 56.8229 97.1147 58.4063 97.1147 60Z" fill="#F0C48A"/>
</g>
<path d="M12.2917 118.625V83.9063C12.2917 80.9063 14.724 78.4792 17.7292 78.4792C20.7292 78.4792 23.1615 80.9063 23.1615 83.9063V118.625H12.2917Z" fill="#FD919E"/>
<mask id="mask1_22_6069" style="mask-type:luminance" maskUnits="userSpaceOnUse" x="10" y="76" width="15" height="44">
<path d="M10.2917 76.2396H24.9584V120H10.2917V76.2396Z" fill="white"/>
</mask>
<g mask="url(#mask1_22_6069)">
<path d="M23.1615 120H12.2917C11.5313 120 10.9167 119.38 10.9167 118.625V83.9062C10.9167 80.1562 13.974 77.1042 17.7292 77.1042C21.4845 77.1042 24.5365 80.1562 24.5365 83.9062V118.625C24.5365 119.38 23.922 120 23.1615 120ZM13.6667 117.25H21.7865V83.9062C21.7865 81.6719 19.9636 79.8489 17.7292 79.8489C15.4897 79.8489 13.6667 81.6719 13.6667 83.9062V117.25Z" fill="#4C4372"/>
</g>
<path d="M73.9636 118.625V83.9063C73.9636 80.9063 76.3959 78.4792 79.3959 78.4792C82.4011 78.4792 84.8334 80.9063 84.8334 83.9063V118.625H73.9636Z" fill="#E8677D"/>
<mask id="mask2_22_6069" style="mask-type:luminance" maskUnits="userSpaceOnUse" x="71" y="76" width="16" height="44">
<path d="M71.625 76.2396H86.2917V120H71.625V76.2396Z" fill="white"/>
</mask>
<g mask="url(#mask2_22_6069)">
<path d="M84.8334 120H73.9636C73.2032 120 72.5886 119.38 72.5886 118.625V83.9062C72.5886 80.1562 75.6407 77.1042 79.3959 77.1042C83.1511 77.1042 86.2084 80.1562 86.2084 83.9062V118.625C86.2084 119.38 85.5938 120 84.8334 120ZM75.3386 117.25H83.4584V83.9062C83.4584 81.6719 81.6355 79.8489 79.3959 79.8489C77.1563 79.8489 75.3386 81.6719 75.3386 83.9062V117.25Z" fill="#4C4372"/>
</g>
<path d="M69.9427 15.125H27.1823C23.3802 15.125 20.2969 12.0469 20.2969 8.24999C20.2969 4.45312 23.3802 1.36978 27.1823 1.36978H69.9427C73.7448 1.36978 76.8281 4.45312 76.8281 8.24999C76.8281 12.0469 73.7448 15.125 69.9427 15.125Z" fill="#D3E6F8"/>
<path d="M63.1615 15.1146C63.0729 15.1146 62.9844 15.125 62.8958 15.125H34.2292C34.1406 15.125 34.0521 15.1146 33.9583 15.1146C16.25 21.1771 3.51562 37.9531 3.51562 57.7031C3.51562 82.5625 23.6823 102.714 48.5625 102.714C73.4375 102.714 93.6094 82.5625 93.6094 57.7031C93.6094 37.9531 80.875 21.1771 63.1615 15.1146Z" fill="#D3E6F8"/>
<path d="M34.2292 15.125C34.1406 15.125 34.0521 15.1146 33.9583 15.1146C33.9479 15.1198 33.9323 15.125 33.9219 15.125H34.2292Z" fill="#A4CFF2"/>
<path d="M63.1615 15.1146C63.0729 15.1146 62.9844 15.125 62.8958 15.125H50.6719C68.3646 21.1979 81.0781 37.9688 81.0781 57.7031C81.0781 80.4375 64.2083 99.2292 42.2969 102.276C44.3437 102.563 46.4375 102.714 48.5625 102.714C73.4375 102.714 93.6094 82.5625 93.6094 57.7031C93.6094 37.9531 80.875 21.1771 63.1615 15.1146Z" fill="#A4CFF2"/>
<path d="M69.9426 1.36978H55.4583C59.2603 1.36978 62.3385 4.45312 62.3385 8.24999C62.3385 12.0469 59.2603 15.125 55.4583 15.125H69.9426C73.7447 15.125 76.828 12.0469 76.828 8.24999C76.828 4.45312 73.7447 1.36978 69.9426 1.36978Z" fill="#A4CFF2"/>
<path d="M48.5625 104.089C22.9635 104.089 2.14062 83.2813 2.14062 57.7032C2.14062 37.875 14.75 20.2344 33.5156 13.8125C33.6771 13.7604 33.8438 13.7344 34.0156 13.7396C34.0625 13.7448 34.1094 13.7448 34.1615 13.75C34.1823 13.75 34.2083 13.7552 34.2292 13.7552H62.8958C62.9167 13.7552 62.9427 13.75 62.9635 13.75C63.0104 13.7448 63.0625 13.7396 63.1094 13.7396C63.2813 13.7344 63.4479 13.7604 63.6094 13.8125C82.375 20.2344 94.9844 37.875 94.9844 57.7032C94.9844 83.2813 74.1562 104.089 48.5625 104.089ZM34.1562 16.5C16.6406 22.6146 4.89062 39.1354 4.89062 57.7032C4.89062 81.7657 24.4844 101.339 48.5625 101.339C72.6406 101.339 92.2344 81.7657 92.2344 57.7032C92.2344 39.1354 80.4844 22.6146 62.9688 16.5C62.9427 16.5 62.9167 16.5 62.8958 16.5H34.2292C34.2031 16.5 34.1823 16.5 34.1562 16.5Z" fill="#4C4372"/>
<mask id="mask3_22_6069" style="mask-type:luminance" maskUnits="userSpaceOnUse" x="18" y="0" width="61" height="18">
<path d="M18.2917 0H78.2917V17.5729H18.2917V0Z" fill="white"/>
</mask>
<g mask="url(#mask3_22_6069)">
<path d="M69.9427 16.5H27.1823C22.625 16.5 18.9219 12.7969 18.9219 8.25C18.9219 3.69792 22.625 0 27.1823 0H69.9427C74.4948 0 78.2031 3.69792 78.2031 8.25C78.2031 12.7969 74.4948 16.5 69.9427 16.5ZM27.1823 2.74479C24.1458 2.74479 21.6719 5.21354 21.6719 8.25C21.6719 11.2865 24.1458 13.7552 27.1823 13.7552H69.9427C72.9792 13.7552 75.4531 11.2865 75.4531 8.25C75.4531 5.21354 72.9792 2.74479 69.9427 2.74479H27.1823Z" fill="#4C4372"/>
</g>
<path d="M43.125 118.625V83.9063C43.125 80.9063 45.5625 78.4792 48.5625 78.4792C51.5625 78.4792 53.9948 80.9063 53.9948 83.9063V118.625H43.125Z" fill="#FD919E"/>
<mask id="mask4_22_6069" style="mask-type:luminance" maskUnits="userSpaceOnUse" x="40" y="76" width="16" height="44">
<path d="M40.9583 76.2396H55.6249V120H40.9583V76.2396Z" fill="white"/>
</mask>
<g mask="url(#mask4_22_6069)">
<path d="M53.9948 120H43.125C42.3698 120 41.75 119.38 41.75 118.625V83.9062C41.75 80.1562 44.8073 77.1042 48.5625 77.1042C52.3177 77.1042 55.3698 80.1562 55.3698 83.9062V118.625C55.3698 119.38 54.7552 120 53.9948 120ZM44.5 117.25H52.6198V83.9062C52.6198 81.6719 50.8021 79.8489 48.5625 79.8489C46.3229 79.8489 44.5 81.6719 44.5 83.9062V117.25Z" fill="#4C4372"/>
</g>
<mask id="mask5_22_6069" style="mask-type:luminance" maskUnits="userSpaceOnUse" x="28" y="41" width="5" height="9">
<path d="M28.9583 41.599H32.9583V49.5729H28.9583V41.599Z" fill="white"/>
</mask>
<g mask="url(#mask5_22_6069)">
<path d="M29.8696 41.6042H32.9373V48.3698H29.8696V41.6042Z" fill="#D2D2D7"/>
</g>
<mask id="mask6_22_6069" style="mask-type:luminance" maskUnits="userSpaceOnUse" x="63" y="41" width="5" height="9">
<path d="M63.625 41.599H67.625V49.5729H63.625V41.599Z" fill="white"/>
</mask>
<g mask="url(#mask6_22_6069)">
<path d="M63.948 41.6042H67.0209V48.3698H63.948V41.6042Z" fill="#B9B9BE"/>
</g>
<path d="M70.047 48.3698H48.0522L47.0261 61.0781L48.0522 76.8177H70.047C71.7449 76.8177 73.1199 75.4375 73.1199 73.7396V51.4479C73.1199 49.75 71.7449 48.3698 70.047 48.3698Z" fill="#EFE2DD"/>
<path d="M26.8385 48.3698C25.1406 48.3698 23.7656 49.75 23.7656 51.4479V73.7396C23.7656 75.4375 25.1406 76.8177 26.8385 76.8177H48.0521V48.3698H26.8385Z" fill="#FFFBF5"/>
<mask id="mask7_22_6069" style="mask-type:luminance" maskUnits="userSpaceOnUse" x="46" y="45" width="29" height="34">
<path d="M46.2917 45.5729H74.6928V78.349H46.2917V45.5729Z" fill="white"/>
</mask>
<g mask="url(#mask7_22_6069)">
<path d="M70.047 46.8333H48.0522L47.0261 48.2708L48.0522 49.9115H70.047C70.8959 49.9115 71.5834 50.599 71.5834 51.4479V73.7396C71.5834 74.5886 70.8959 75.2761 70.047 75.2761H48.0522L47.0261 77.0417L48.0522 78.3542H70.047C72.5886 78.3542 74.6563 76.2865 74.6563 73.7396V51.4479C74.6563 48.9011 72.5886 46.8333 70.047 46.8333Z" fill="#FDAE02"/>
</g>
<mask id="mask8_22_6069" style="mask-type:luminance" maskUnits="userSpaceOnUse" x="22" y="45" width="27" height="34">
<path d="M22.1926 45.5729H48.9583V78.349H22.1926V45.5729Z" fill="white"/>
</mask>
<g mask="url(#mask8_22_6069)">
<path d="M26.8384 75.2761C25.9946 75.2761 25.3019 74.5886 25.3019 73.7396V51.4479C25.3019 50.599 25.9946 49.9115 26.8384 49.9115H48.0519V46.8333H26.8384C24.2967 46.8333 22.229 48.9011 22.229 51.4479V73.7396C22.229 76.2865 24.2967 78.3542 26.8384 78.3542H48.0519V75.2761H26.8384Z" fill="#FDCB02"/>
</g>
<path d="M48.0521 55.2083V63.7344L47.6406 66.3646L48.0521 69.5261L48.224 69.7969H51.1198V55.2083H48.0521Z" fill="#373C41"/>
<path d="M48.0468 55.2083V63.7344L42.7135 55.2292H39.8176V69.9792H42.8905V61.2917L48.052 69.5261V55.2083H48.0468Z" fill="#474F54"/>
<path d="M37.0261 69.974H29.8699V55.2135H32.9376V66.8958H37.0261V69.974Z" fill="#474F54"/>
<path d="M61.0573 69.9792C56.9948 69.9792 53.6875 66.6667 53.6875 62.5938C53.6875 58.5208 56.9948 55.2083 61.0573 55.2083C62.5365 55.2083 63.9635 55.6458 65.1823 56.4688L63.4635 59.0208C62.75 58.5417 61.9219 58.2865 61.0573 58.2865C58.6875 58.2865 56.7604 60.2188 56.7604 62.5938C56.7604 64.9688 58.6875 66.9011 61.0573 66.9011C62.9844 66.9011 63.9844 65.6094 64.3698 64.1302H60.6354V61.0573H67.6354V62.5938C67.6354 66.9427 64.9323 69.9792 61.0573 69.9792Z" fill="#373C41"/>
</svg>
