<svg width="84" height="68" viewBox="0 0 84 68" fill="none" xmlns="http://www.w3.org/2000/svg">
<path fill-rule="evenodd" clip-rule="evenodd" d="M35.9766 25.2448C32.7683 25.2448 30.1537 27.8802 30.1537 31.1198C30.1537 34.3542 32.7683 36.9896 35.9766 36.9896C39.1902 36.9896 41.7995 34.3542 41.7995 31.1198C41.7995 27.8802 39.1902 25.2448 35.9766 25.2448ZM35.9766 37.4844C32.4975 37.4844 29.6641 34.6302 29.6641 31.1198C29.6641 27.6094 32.4975 24.75 35.9766 24.75C39.461 24.75 42.2891 27.6094 42.2891 31.1198C42.2891 34.6302 39.461 37.4844 35.9766 37.4844Z" fill="#265C67"/>
<path fill-rule="evenodd" clip-rule="evenodd" d="M35.9766 27.8906C34.2162 27.8906 32.7787 29.3386 32.7787 31.1198C32.7787 32.8958 34.2162 34.3438 35.9766 34.3438C37.7422 34.3438 39.1745 32.8958 39.1745 31.1198C39.1745 29.3386 37.7422 27.8906 35.9766 27.8906ZM35.9766 34.8386C33.9454 34.8386 32.2891 33.1719 32.2891 31.1198C32.2891 29.0677 33.9454 27.3958 35.9766 27.3958C38.0131 27.3958 39.6693 29.0677 39.6693 31.1198C39.6693 33.1719 38.0131 34.8386 35.9766 34.8386Z" fill="#265C67"/>
<path fill-rule="evenodd" clip-rule="evenodd" d="M35.9767 27.8906C35.8412 27.8906 35.7319 27.7812 35.7319 27.6458V25C35.7319 24.8594 35.8412 24.75 35.9767 24.75C36.1121 24.75 36.2215 24.8594 36.2215 25V27.6458C36.2215 27.7812 36.1121 27.8906 35.9767 27.8906Z" fill="#265C67"/>
<path fill-rule="evenodd" clip-rule="evenodd" d="M44.4141 37.7083H45.1641V31.0729H44.4141V37.7083ZM45.4089 38.2031H44.1693C44.0339 38.2031 43.9245 38.0885 43.9245 37.9531V30.8229C43.9245 30.6875 44.0339 30.5781 44.1693 30.5781H45.4089C45.5443 30.5781 45.6537 30.6875 45.6537 30.8229V37.9531C45.6537 38.0885 45.5443 38.2031 45.4089 38.2031Z" fill="#265C67"/>
<path fill-rule="evenodd" clip-rule="evenodd" d="M47.2215 37.7083H47.9715V29.0885H47.2215V37.7083ZM48.2162 38.2031H46.9767C46.8412 38.2031 46.7319 38.0885 46.7319 37.9531V28.8385C46.7319 28.7031 46.8412 28.5938 46.9767 28.5938H48.2162C48.3517 28.5938 48.461 28.7031 48.461 28.8385V37.9531C48.461 38.0885 48.3517 38.2031 48.2162 38.2031Z" fill="#265C67"/>
<path fill-rule="evenodd" clip-rule="evenodd" d="M50.0287 37.7083H50.7735V27.3229H50.0287V37.7083ZM51.0182 38.2031H49.7839C49.6485 38.2031 49.5339 38.0885 49.5339 37.9531V27.0729C49.5339 26.9375 49.6485 26.8281 49.7839 26.8281H51.0182C51.1537 26.8281 51.263 26.9375 51.263 27.0729V37.9531C51.263 38.0885 51.1537 38.2031 51.0182 38.2031Z" fill="#265C67"/>
<path fill-rule="evenodd" clip-rule="evenodd" d="M52.8308 37.7083H53.5808V24.5261H52.8308V37.7083ZM53.8256 38.2031H52.586C52.4506 38.2031 52.3412 38.0886 52.3412 37.9531V24.2813C52.3412 24.1458 52.4506 24.0365 52.586 24.0365H53.8256C53.961 24.0365 54.0704 24.1458 54.0704 24.2813V37.9531C54.0704 38.0886 53.961 38.2031 53.8256 38.2031Z" fill="#265C67"/>
<mask id="mask0_22_1707" style="mask-type:luminance" maskUnits="userSpaceOnUse" x="26" y="20" width="32" height="23">
<path d="M26.0807 20.0625H57.9193V42.1875H26.0807V20.0625Z" fill="white"/>
</mask>
<g mask="url(#mask0_22_1707)">
<path fill-rule="evenodd" clip-rule="evenodd" d="M27.711 20.5573C27.0807 20.5573 26.5703 21.0729 26.5703 21.7083V40.526C26.5703 41.1615 27.0807 41.6771 27.711 41.6771H56.2891C56.9193 41.6771 57.4297 41.1615 57.4297 40.526V21.7083C57.4297 21.0729 56.9193 20.5573 56.2891 20.5573H27.711ZM56.2891 42.1719H27.711C26.8151 42.1719 26.0807 41.4323 26.0807 40.526V21.7083C26.0807 20.8021 26.8151 20.0625 27.711 20.0625H56.2891C57.1849 20.0625 57.9193 20.8021 57.9193 21.7083V40.526C57.9193 41.4323 57.1849 42.1719 56.2891 42.1719Z" fill="#265C67"/>
</g>
<path fill-rule="evenodd" clip-rule="evenodd" d="M28.3203 39.9115H55.6797V22.3229H28.3203V39.9115ZM55.9245 40.4062H28.0755C27.9401 40.4062 27.8307 40.2969 27.8307 40.1615V22.0781C27.8307 21.9375 27.9401 21.8281 28.0755 21.8281H55.9245C56.0599 21.8281 56.1693 21.9375 56.1693 22.0781V40.1615C56.1693 40.2969 56.0599 40.4062 55.9245 40.4062Z" fill="#265C67"/>
<mask id="mask1_22_1707" style="mask-type:luminance" maskUnits="userSpaceOnUse" x="35" y="41" width="14" height="7">
<path d="M35.987 41.6719H48.0182V47.9375H35.987V41.6719Z" fill="white"/>
</mask>
<g mask="url(#mask1_22_1707)">
<path fill-rule="evenodd" clip-rule="evenodd" d="M47.737 47.9427H36.2683C36.1537 47.9427 36.0547 47.8698 36.0287 47.7604C36.0026 47.651 36.0495 47.5365 36.1433 47.4792C39.2162 45.7396 38.8412 43.2813 38.6381 41.9635C38.6172 41.8281 38.711 41.7031 38.8464 41.6823C38.9766 41.6615 39.1016 41.75 39.1224 41.8854C39.2631 42.7917 39.3464 43.7656 39.0547 44.7865C38.7578 45.8281 38.1068 46.724 37.1068 47.4479H46.8933C45.8933 46.724 45.2422 45.8281 44.9401 44.7865C44.6537 43.7656 44.737 42.7917 44.8776 41.8854C44.8985 41.75 45.0235 41.6615 45.1537 41.6823C45.2891 41.7031 45.3828 41.8281 45.362 41.9635C45.1589 43.2813 44.7839 45.7396 47.8568 47.4792C47.9506 47.5365 47.9974 47.651 47.9714 47.7604C47.9453 47.8698 47.8464 47.9427 47.737 47.9427Z" fill="#265C67"/>
</g>
<path fill-rule="evenodd" clip-rule="evenodd" d="M39.2996 30.4531C39.1954 30.4531 39.0964 30.3802 39.0652 30.2708C39.0287 30.1406 39.1069 30.0052 39.2371 29.9688L41.7683 29.2708C41.9037 29.2344 42.0339 29.3125 42.0704 29.4479C42.1069 29.5781 42.0287 29.7136 41.8985 29.75L39.3673 30.4479C39.3464 30.4531 39.3256 30.4531 39.2996 30.4531Z" fill="#265C67"/>
<path fill-rule="evenodd" clip-rule="evenodd" d="M39.0495 36.6406C38.9662 36.6406 38.8881 36.599 38.8412 36.5208L37.5026 34.2448C37.4349 34.1302 37.4714 33.9792 37.586 33.9063C37.7006 33.8385 37.8516 33.875 37.9245 33.9948L39.2631 36.2708C39.3308 36.3854 39.2943 36.5365 39.1745 36.6094C39.1381 36.6302 39.0964 36.6406 39.0495 36.6406Z" fill="#265C67"/>
<path fill-rule="evenodd" clip-rule="evenodd" d="M31.7371 35.7396C31.6746 35.7396 31.6121 35.7188 31.5652 35.6719C31.4662 35.5729 31.4662 35.4167 31.56 35.3229L33.3985 33.4323C33.4923 33.3333 33.6485 33.3333 33.7423 33.4271C33.8412 33.5208 33.8412 33.6771 33.7475 33.7761L31.9089 35.6667C31.8621 35.7188 31.7996 35.7396 31.7371 35.7396Z" fill="#265C67"/>
<path fill-rule="evenodd" clip-rule="evenodd" d="M32.9767 29.6614C32.935 29.6614 32.8986 29.651 32.8621 29.6302L30.56 28.3542C30.4402 28.2917 30.3986 28.1406 30.4611 28.0208C30.5288 27.901 30.6746 27.8542 30.7944 27.9219L33.0965 29.1927C33.2111 29.2604 33.2579 29.4114 33.1902 29.5312C33.1486 29.6146 33.0652 29.6614 32.9767 29.6614Z" fill="#265C67"/>
</svg>
