<svg width="176" height="120" viewBox="0 0 176 120" fill="none" xmlns="http://www.w3.org/2000/svg">
<mask id="mask0_22_6059" style="mask-type:luminance" maskUnits="userSpaceOnUse" x="0" y="22" width="57" height="11">
<path d="M0 22.9062H56.4427V32.2396H0V22.9062Z" fill="white"/>
</mask>
<g mask="url(#mask0_22_6059)">
<path d="M56.3281 28.3125V31.4688H56.3073L54.0208 31.4792L28.2708 31.5938H28.177L22.7708 31.6146L8.24996 31.6823L2.37496 31.7083L0.078083 31.7188H0.072876V28.3125C0.072876 26.9792 3.19788 25.7708 8.24996 24.8958C12.1302 24.224 17.151 23.7448 22.7708 23.5573C24.5208 23.5 26.3333 23.4688 28.1875 23.4688C43.7291 23.4688 56.3281 25.6354 56.3281 28.3125Z" fill="#243742"/>
</g>
<mask id="mask1_22_6059" style="mask-type:luminance" maskUnits="userSpaceOnUse" x="0" y="25" width="57" height="9">
<path d="M0 25.5729H56.4427V33.5729H0V25.5729Z" fill="white"/>
</mask>
<g mask="url(#mask1_22_6059)">
<path d="M54.5208 33.4375C55.1615 33.1511 55.5833 32.8854 55.901 32.5781C56.1927 32.2969 56.3438 32.0104 56.3438 31.7188C56.3438 31.6459 56.3385 31.5677 56.3177 31.5C56.1823 30.9792 55.5781 30.4844 54.5781 30.0209C53.2031 29.3906 51.0833 28.8177 48.3958 28.3438C43.2812 27.4323 36.125 26.8698 28.2031 26.8698C20.2813 26.8698 13.1198 27.4323 8.00521 28.3438C5.30208 28.8229 3.17188 29.3959 1.80208 30.0365H1.79688C0.671875 30.5625 0.0625 31.125 0.0625 31.7188V31.7448C0.067708 32.0313 0.223959 32.3073 0.5 32.5781C0.796875 32.8646 1.30729 33.1719 1.88021 33.4375H54.5208Z" fill="#1A2830"/>
</g>
<path d="M1.88025 31.9167H1.88546C2.53129 31.6198 3.349 31.3334 4.30733 31.0677C5.4115 30.7604 6.70837 30.474 8.16671 30.2188C13.2761 29.3177 20.3959 28.5886 28.2709 28.5886C36.1407 28.5886 43.2605 29.1459 48.3698 30.0417C49.8178 30.2969 51.1042 30.5834 52.198 30.8854C53.1094 31.1354 53.8907 31.4063 54.5209 31.6875V50.9896H1.88025V31.9167Z" fill="#243742"/>
<mask id="mask2_22_6059" style="mask-type:luminance" maskUnits="userSpaceOnUse" x="0" y="45" width="57" height="9">
<path d="M0 45.5729H56.4427V53.5729H0V45.5729Z" fill="white"/>
</mask>
<g mask="url(#mask2_22_6059)">
<path d="M0.072876 53.3802L56.3281 53.224V49.9896C56.3281 48.276 43.7291 46.8854 28.1875 46.8854C12.6458 46.8854 0.072876 48.276 0.072876 49.9896V53.3802Z" fill="#243742"/>
</g>
<mask id="mask3_22_6059" style="mask-type:luminance" maskUnits="userSpaceOnUse" x="0" y="45" width="57" height="6">
<path d="M0 45.5729H56.4427V50.9063H0V45.5729Z" fill="white"/>
</mask>
<g mask="url(#mask3_22_6059)">
<path d="M56.3281 49.9896V50.849C56.3281 49.1354 43.7292 47.7448 28.1875 47.7448C12.6458 47.7448 0.078125 49.1354 0.078125 50.849V49.9896C0.078125 48.276 12.6458 46.8854 28.1875 46.8854C43.7292 46.8854 56.3281 48.276 56.3281 49.9896Z" fill="#375263"/>
</g>
<mask id="mask4_22_6059" style="mask-type:luminance" maskUnits="userSpaceOnUse" x="0" y="49" width="57" height="6">
<path d="M0 49.5729H56.4427V54.9063H0V49.5729Z" fill="white"/>
</mask>
<g mask="url(#mask4_22_6059)">
<path d="M54.5208 54.4844C55.1615 54.3021 55.5833 54.1302 55.901 53.9323C56.1927 53.75 56.3438 53.5677 56.3438 53.3802C56.3438 53.3333 56.3385 53.2865 56.3177 53.2396C56.1823 52.9063 55.5781 52.5886 54.5781 52.2969C53.2031 51.8854 51.0833 51.5208 48.3958 51.2188C43.2812 50.6354 36.125 50.2708 28.2031 50.2708C20.2813 50.2708 13.1198 50.6354 8.00521 51.2188C5.30208 51.5261 3.17188 51.8906 1.80208 52.3021H1.79688C0.671875 52.6406 0.0625 53 0.0625 53.3802V53.4011C0.067708 53.5781 0.223959 53.7552 0.5 53.9323C0.796875 54.1146 1.30729 54.3125 1.88021 54.4844H54.5208Z" fill="#1A2830"/>
</g>
<path d="M1.88025 53.5104H1.88546C2.53129 53.3177 3.349 53.1354 4.30733 52.9636C5.4115 52.7656 6.70837 52.5833 8.16671 52.4167C13.2761 51.8438 20.3959 51.375 28.2709 51.375C36.1407 51.375 43.2605 51.7344 48.3698 52.3073C49.8178 52.4688 51.1042 52.6511 52.198 52.849C53.1094 53.0104 53.8907 53.1823 54.5209 53.3594V65.7396H1.88025V53.5104Z" fill="#243742"/>
<mask id="mask5_22_6059" style="mask-type:luminance" maskUnits="userSpaceOnUse" x="0" y="96" width="57" height="10">
<path d="M0 96.2396H56.4427V105.573H0V96.2396Z" fill="white"/>
</mask>
<g mask="url(#mask5_22_6059)">
<path d="M56.3281 96.4219V99.8281C56.3281 102.505 43.7604 104.672 28.2187 104.672C26.3541 104.672 24.5312 104.641 22.7708 104.583C17.151 104.391 12.1302 103.917 8.24996 103.24C3.19788 102.365 0.072876 101.161 0.072876 99.8281V96.6719H0.0989189L2.38017 96.6615L8.24996 96.6354L22.7708 96.5729L54.026 96.4323L56.3281 96.4219Z" fill="#243742"/>
</g>
<mask id="mask6_22_6059" style="mask-type:luminance" maskUnits="userSpaceOnUse" x="0" y="93" width="57" height="9">
<path d="M0 93.5729H56.4427V101.573H0V93.5729Z" fill="white"/>
</mask>
<g mask="url(#mask6_22_6059)">
<path d="M1.88021 94.7031C1.24479 94.9896 0.822916 95.2552 0.5 95.5625C0.213541 95.8437 0.0625 96.1302 0.0625 96.4219C0.0625 96.4948 0.0677083 96.5677 0.0885417 96.6406C0.223959 97.1615 0.828124 97.6563 1.82812 98.1198C3.19792 98.75 5.32292 99.3229 8.00521 99.7969C13.1198 100.703 20.2813 101.271 28.2031 101.271C36.125 101.271 43.2812 100.703 48.3958 99.7969C51.099 99.3177 53.2344 98.7448 54.6042 98.1042C55.7292 97.5781 56.3438 97.0156 56.3438 96.4219V96.3958C56.3333 96.1094 56.1823 95.8333 55.901 95.5625C55.6042 95.276 55.099 94.9688 54.5208 94.7031H1.88021Z" fill="#375263"/>
</g>
<path d="M54.5209 96.2188C53.8698 96.5208 53.0573 96.8073 52.0938 97.0729C50.9948 97.3802 49.698 97.6667 48.2344 97.9219C43.1302 98.8229 36.0105 99.5521 28.1355 99.5521C20.2605 99.5521 13.1407 98.9948 8.0365 98.0938C6.58858 97.8438 5.30212 97.5573 4.20316 97.2552C3.29692 97 2.51567 96.7344 1.88025 96.4531V77.151H54.5209V96.2188Z" fill="#243742"/>
<mask id="mask7_22_6059" style="mask-type:luminance" maskUnits="userSpaceOnUse" x="0" y="73" width="57" height="9">
<path d="M0 73.5729H56.4427V81.5729H0V73.5729Z" fill="white"/>
</mask>
<g mask="url(#mask7_22_6059)">
<path d="M56.3281 74.7604L0.072876 74.9167V78.151C0.072876 79.8646 12.6718 81.2552 28.2187 81.2552C43.7604 81.2552 56.3281 79.8646 56.3281 78.151V74.7604Z" fill="#243742"/>
</g>
<mask id="mask8_22_6059" style="mask-type:luminance" maskUnits="userSpaceOnUse" x="0" y="77" width="57" height="5">
<path d="M0 77.5729H56.4427V81.5729H0V77.5729Z" fill="white"/>
</mask>
<g mask="url(#mask8_22_6059)">
<path d="M56.3281 77.6615V78.1511C56.3281 79.8646 43.7604 81.2552 28.2187 81.2552C12.6718 81.2552 0.072876 79.8646 0.072876 78.1511V77.6615C0.072876 79.375 12.6718 80.7656 28.2187 80.7656C43.7604 80.7656 56.3281 79.375 56.3281 77.6615Z" fill="#1A2830"/>
</g>
<mask id="mask9_22_6059" style="mask-type:luminance" maskUnits="userSpaceOnUse" x="0" y="73" width="57" height="6">
<path d="M0 73.5729H56.4427V78.9063H0V73.5729Z" fill="white"/>
</mask>
<g mask="url(#mask9_22_6059)">
<path d="M1.88021 73.6562C1.24479 73.8385 0.822916 74.0104 0.5 74.2083C0.213541 74.3854 0.0625 74.5729 0.0625 74.7604C0.0625 74.8073 0.0677083 74.8542 0.0885417 74.901C0.223959 75.2344 0.828124 75.5469 1.82812 75.8438C3.19792 76.25 5.32292 76.6198 8.00521 76.9219C13.1198 77.5052 20.2813 77.8698 28.2031 77.8698C36.125 77.8698 43.2812 77.5052 48.3958 76.9219C51.099 76.6146 53.2344 76.25 54.6042 75.8385C55.7292 75.5 56.3438 75.1406 56.3438 74.7604V74.7396C56.3333 74.5573 56.1823 74.3802 55.901 74.2083C55.6042 74.026 55.099 73.8281 54.5208 73.6562H1.88021Z" fill="#375263"/>
</g>
<path d="M54.5209 74.6302C53.8698 74.8229 53.0573 75.0052 52.0938 75.1771C50.9948 75.375 49.698 75.5573 48.2344 75.7188C43.1302 76.2969 36.0105 76.7656 28.1355 76.7656C20.2605 76.7656 13.1407 76.4063 8.0365 75.8333C6.58858 75.6719 5.30212 75.4896 4.20316 75.2917C3.29692 75.1302 2.51567 74.9583 1.88025 74.7813V62.401H54.5209V74.6302Z" fill="#243742"/>
<path d="M32.3906 38.7708C32.3906 41.0781 30.5156 42.9531 28.2031 42.9531C25.8906 42.9531 24.0156 41.0781 24.0156 38.7708C24.0156 36.4635 27.4479 34.2708 28.2031 31.4062C28.2031 31.4062 32.3906 36.4635 32.3906 38.7708Z" fill="#F5F5F5"/>
<path d="M27.8438 33.8386C27.9636 34.1198 27.9844 34.4323 27.9688 34.7396C27.9479 35.0469 27.8802 35.349 27.7656 35.6406C27.5417 36.224 27.1667 36.7396 26.7136 37.1511C26.5886 37.2656 26.5 37.3386 26.4063 37.4219C26.3177 37.5104 26.224 37.5938 26.1406 37.6823C25.974 37.8542 25.8281 38.0365 25.7083 38.2292C25.5886 38.4271 25.5052 38.6406 25.4479 38.8959C25.3854 39.1511 25.3698 39.4375 25.3229 39.7396C25.1406 39.4948 25.0052 39.2292 24.9219 38.9167C24.8438 38.6094 24.8438 38.2552 24.9375 37.9271C25.0208 37.599 25.1927 37.3021 25.3854 37.0417C25.4844 36.9167 25.5886 36.7969 25.6979 36.6875C25.8073 36.5729 25.9375 36.4688 26.0261 36.3906C26.4115 36.0521 26.7656 35.6875 27.0677 35.2709C27.3802 34.8542 27.6458 34.4011 27.8438 33.8386Z" fill="#243742"/>
<path d="M21.8281 63.6563C21.8281 61.125 20.7968 59.6667 19.1198 59.6667C17.4479 59.6667 16.4166 61.125 16.4166 63.6563C16.4166 66.1823 17.4479 67.7708 19.1198 67.7708C20.7968 67.7708 21.8281 66.1823 21.8281 63.6563ZM12.6354 63.6563C12.6354 59.0677 15.2552 56.4948 19.1198 56.4948C22.9843 56.4948 25.6041 59.0885 25.6041 63.6563C25.6041 68.2448 22.9843 70.9427 19.1198 70.9427C15.2552 70.9427 12.6354 68.2448 12.6354 63.6563Z" fill="white"/>
<path d="M28.0938 70.6875H31.7865V56.75H28.0938V70.6875Z" fill="white"/>
<path d="M34.8802 56.7552H38.573V67.599H43.8542V70.6875H34.8802V56.7552Z" fill="white"/>
<path d="M22.4114 104.568C21.4062 104.531 20.4166 104.49 19.4531 104.432H19.4583C20.4218 104.49 21.4062 104.531 22.4114 104.568ZM18.7812 104.396C17.7083 104.328 16.6666 104.25 15.6562 104.167C15.677 104.167 15.6979 104.167 15.7187 104.172C16.7031 104.255 17.7239 104.328 18.776 104.396H18.7812ZM14.5208 104.063C12.2968 103.849 10.2656 103.583 8.4635 103.276L8.46871 103.281C10.2291 103.578 12.2135 103.839 14.375 104.047C14.4218 104.052 14.4739 104.057 14.5208 104.063Z" fill="#FEFEFE"/>
<path d="M22.4115 104.568C21.4063 104.531 20.4219 104.49 19.4583 104.432C19.6979 104.448 19.9375 104.458 20.1823 104.474C20.5208 104.49 20.8646 104.505 21.2083 104.521C21.5521 104.536 21.8958 104.552 22.2448 104.562C22.3021 104.562 22.3542 104.568 22.4115 104.568ZM18.776 104.396C17.724 104.328 16.7031 104.255 15.7188 104.172C15.7396 104.172 15.7604 104.172 15.7865 104.177C16.75 104.255 17.75 104.333 18.776 104.396ZM14.375 104.047C12.2135 103.839 10.2292 103.578 8.46875 103.281C8.52083 103.286 8.56771 103.297 8.61979 103.302C8.86458 103.344 9.11979 103.385 9.375 103.427C9.5 103.448 9.63021 103.464 9.76042 103.484C10.7969 103.641 11.9062 103.781 13.0677 103.911C13.2135 103.927 13.3646 103.943 13.5104 103.958C13.7969 103.99 14.0833 104.021 14.375 104.047Z" fill="#394A54"/>
<mask id="mask10_22_6059" style="mask-type:luminance" maskUnits="userSpaceOnUse" x="119" y="22" width="57" height="11">
<path d="M119.109 22.9062H176V32.2396H119.109V22.9062Z" fill="white"/>
</mask>
<g mask="url(#mask10_22_6059)">
<path d="M119.667 28.3125V31.4688H119.693L121.974 31.4792L147.729 31.5938H147.818L153.229 31.6146L167.745 31.6823L173.62 31.7083L175.922 31.7188V28.3125C175.922 26.9792 172.802 25.7708 167.745 24.8958C163.865 24.224 158.849 23.7448 153.229 23.5573C151.474 23.5 149.667 23.4688 147.812 23.4688C132.266 23.4688 119.667 25.6354 119.667 28.3125Z" fill="#243742"/>
</g>
<mask id="mask11_22_6059" style="mask-type:luminance" maskUnits="userSpaceOnUse" x="119" y="25" width="57" height="9">
<path d="M119.109 25.5729H176V33.5729H119.109V25.5729Z" fill="white"/>
</mask>
<g mask="url(#mask11_22_6059)">
<path d="M174.115 33.4375C174.693 33.1719 175.198 32.8646 175.495 32.5781C175.776 32.3073 175.927 32.0313 175.938 31.7448V31.7188C175.938 31.125 175.323 30.5625 174.198 30.0365C172.828 29.3959 170.693 28.8229 167.99 28.3438C162.875 27.4323 155.719 26.8698 147.797 26.8698C139.87 26.8698 132.714 27.4323 127.599 28.3438C124.917 28.8177 122.792 29.3906 121.422 30.0209C120.417 30.4844 119.818 30.9792 119.682 31.5C119.661 31.5677 119.656 31.6459 119.656 31.7188C119.656 32.0104 119.807 32.2969 120.094 32.5781C120.417 32.8854 120.839 33.1511 121.474 33.4375H174.115Z" fill="#1A2830"/>
</g>
<path d="M174.115 33.5781V50.9896H121.474V31.6875C122.109 31.4063 122.885 31.1354 123.797 30.8854C124.896 30.5834 126.182 30.2969 127.63 30.0417C132.734 29.1459 139.854 28.5886 147.729 28.5886C155.604 28.5886 162.724 29.3177 167.828 30.2188C169.292 30.474 170.589 30.7604 171.688 31.0677C172.651 31.3334 173.464 31.6198 174.109 31.9167H174.115V33.5781Z" fill="#243742"/>
<mask id="mask12_22_6059" style="mask-type:luminance" maskUnits="userSpaceOnUse" x="119" y="45" width="57" height="9">
<path d="M119.109 45.5729H176V53.5729H119.109V45.5729Z" fill="white"/>
</mask>
<g mask="url(#mask12_22_6059)">
<path d="M175.922 53.3802L119.667 53.224V49.9896C119.667 48.276 132.266 46.8854 147.812 46.8854C163.354 46.8854 175.922 48.276 175.922 49.9896V53.3802Z" fill="#243742"/>
</g>
<mask id="mask13_22_6059" style="mask-type:luminance" maskUnits="userSpaceOnUse" x="119" y="45" width="57" height="6">
<path d="M119.109 45.5729H176V50.9063H119.109V45.5729Z" fill="white"/>
</mask>
<g mask="url(#mask13_22_6059)">
<path d="M119.667 49.9896V50.849C119.667 49.1354 132.266 47.7448 147.812 47.7448C163.354 47.7448 175.922 49.1354 175.922 50.849V49.9896C175.922 48.276 163.354 46.8854 147.812 46.8854C132.266 46.8854 119.667 48.276 119.667 49.9896Z" fill="#375263"/>
</g>
<mask id="mask14_22_6059" style="mask-type:luminance" maskUnits="userSpaceOnUse" x="119" y="49" width="57" height="6">
<path d="M119.109 49.5729H176V54.9063H119.109V49.5729Z" fill="white"/>
</mask>
<g mask="url(#mask14_22_6059)">
<path d="M174.115 54.4844C174.693 54.3125 175.198 54.1146 175.495 53.9323C175.776 53.7552 175.927 53.5781 175.938 53.4011V53.3802C175.938 53 175.323 52.6406 174.198 52.3021C172.828 51.8906 170.693 51.5261 167.99 51.2188C162.875 50.6354 155.719 50.2708 147.797 50.2708C139.87 50.2708 132.714 50.6354 127.599 51.2188C124.917 51.5208 122.792 51.8854 121.422 52.2969C120.417 52.5886 119.818 52.9063 119.682 53.2396C119.661 53.2865 119.656 53.3333 119.656 53.3802C119.656 53.5677 119.807 53.75 120.094 53.9323C120.417 54.1302 120.839 54.3021 121.474 54.4844H174.115Z" fill="#1A2830"/>
</g>
<path d="M174.115 54.5729V65.7396H121.474V53.3594C122.109 53.1823 122.885 53.0104 123.797 52.849C124.896 52.6511 126.182 52.4688 127.63 52.3073C132.734 51.7344 139.854 51.375 147.729 51.375C155.604 51.375 162.724 51.8438 167.828 52.4167C169.292 52.5833 170.589 52.7656 171.688 52.9636C172.651 53.1354 173.464 53.3177 174.109 53.5104H174.115V54.5729Z" fill="#243742"/>
<mask id="mask15_22_6059" style="mask-type:luminance" maskUnits="userSpaceOnUse" x="119" y="96" width="57" height="10">
<path d="M119.109 96.2396H176V105.573H119.109V96.2396Z" fill="white"/>
</mask>
<g mask="url(#mask15_22_6059)">
<path d="M119.667 96.4219V99.8281C119.667 102.505 132.24 104.672 147.781 104.672C149.646 104.672 151.464 104.641 153.229 104.583C158.844 104.391 163.865 103.917 167.745 103.24C172.802 102.365 175.922 101.161 175.922 99.8281V96.6719H175.901L173.615 96.6615L167.745 96.6354L153.229 96.5729L121.969 96.4323L119.667 96.4219Z" fill="#243742"/>
</g>
<mask id="mask16_22_6059" style="mask-type:luminance" maskUnits="userSpaceOnUse" x="119" y="93" width="57" height="9">
<path d="M119.109 93.5729H176V101.573H119.109V93.5729Z" fill="white"/>
</mask>
<g mask="url(#mask16_22_6059)">
<path d="M121.474 94.7031C120.901 94.9688 120.391 95.276 120.094 95.5625C119.813 95.8333 119.661 96.1094 119.656 96.3958V96.4219C119.656 97.0156 120.266 97.5781 121.391 98.1042C122.766 98.7448 124.896 99.3177 127.599 99.7969C132.714 100.703 139.87 101.271 147.797 101.271C155.719 101.271 162.875 100.703 167.99 99.7969C170.677 99.3229 172.797 98.75 174.172 98.1198C175.172 97.6563 175.776 97.1615 175.911 96.6406C175.927 96.5677 175.938 96.4948 175.938 96.4219C175.938 96.1302 175.786 95.8437 175.495 95.5625C175.177 95.2552 174.755 94.9896 174.115 94.7031H121.474Z" fill="#375263"/>
</g>
<path d="M121.474 94.5625V77.151H174.115V96.4531C173.484 96.7344 172.703 97 171.792 97.2552C170.698 97.5573 169.411 97.8438 167.964 98.0938C162.854 98.9948 155.734 99.5521 147.859 99.5521C139.99 99.5521 132.87 98.8229 127.76 97.9219C126.302 97.6667 125.005 97.3802 123.901 97.0729C122.938 96.8073 122.125 96.5208 121.479 96.2188H121.474V94.5625Z" fill="#243742"/>
<mask id="mask17_22_6059" style="mask-type:luminance" maskUnits="userSpaceOnUse" x="119" y="73" width="57" height="9">
<path d="M119.109 73.5729H176V81.5729H119.109V73.5729Z" fill="white"/>
</mask>
<g mask="url(#mask17_22_6059)">
<path d="M119.667 74.7604L175.922 74.9167V78.151C175.922 79.8646 163.323 81.2552 147.781 81.2552C132.24 81.2552 119.667 79.8646 119.667 78.151V74.7604Z" fill="#243742"/>
</g>
<mask id="mask18_22_6059" style="mask-type:luminance" maskUnits="userSpaceOnUse" x="119" y="77" width="57" height="5">
<path d="M119.109 77.5729H176V81.5729H119.109V77.5729Z" fill="white"/>
</mask>
<g mask="url(#mask18_22_6059)">
<path d="M119.667 77.6615V78.1511C119.667 79.8646 132.24 81.2552 147.781 81.2552C163.323 81.2552 175.922 79.8646 175.922 78.1511V77.6615C175.922 79.375 163.323 80.7656 147.781 80.7656C132.24 80.7656 119.667 79.375 119.667 77.6615Z" fill="#1A2830"/>
</g>
<mask id="mask19_22_6059" style="mask-type:luminance" maskUnits="userSpaceOnUse" x="119" y="73" width="57" height="6">
<path d="M119.109 73.5729H176V78.9063H119.109V73.5729Z" fill="white"/>
</mask>
<g mask="url(#mask19_22_6059)">
<path d="M121.474 73.6562C120.901 73.8281 120.391 74.026 120.094 74.2083C119.813 74.3802 119.661 74.5573 119.656 74.7396V74.7604C119.656 75.1406 120.266 75.5 121.391 75.8385C122.766 76.25 124.896 76.6146 127.599 76.9219C132.714 77.5052 139.87 77.8698 147.797 77.8698C155.719 77.8698 162.875 77.5052 167.99 76.9219C170.677 76.6198 172.797 76.25 174.172 75.8438C175.172 75.5469 175.776 75.2344 175.911 74.901C175.927 74.8542 175.938 74.8073 175.938 74.7604C175.938 74.5729 175.786 74.3854 175.495 74.2083C175.177 74.0104 174.755 73.8385 174.115 73.6562H121.474Z" fill="#375263"/>
</g>
<path d="M121.474 73.5677V62.401H174.115V74.7813C173.484 74.9583 172.703 75.1302 171.792 75.2917C170.698 75.4896 169.411 75.6719 167.964 75.8333C162.854 76.4063 155.734 76.7656 147.859 76.7656C139.99 76.7656 132.87 76.2969 127.76 75.7188C126.302 75.5573 125.005 75.375 123.901 75.1771C122.938 75.0052 122.125 74.8229 121.479 74.6302H121.474V73.5677Z" fill="#243742"/>
<path d="M151.984 38.7708C151.984 41.0781 150.109 42.9531 147.797 42.9531C145.484 42.9531 143.609 41.0781 143.609 38.7708C143.609 36.4635 147.042 34.2708 147.797 31.4062C147.797 31.4062 151.984 36.4635 151.984 38.7708Z" fill="#F5F5F5"/>
<path d="M147.438 33.8386C147.557 34.1198 147.578 34.4323 147.563 34.7396C147.542 35.0469 147.469 35.349 147.359 35.6406C147.135 36.224 146.76 36.7396 146.307 37.1511C146.182 37.2656 146.094 37.3386 146 37.4219C145.906 37.5104 145.818 37.5938 145.734 37.6823C145.568 37.8542 145.417 38.0365 145.302 38.2292C145.182 38.4271 145.094 38.6406 145.036 38.8959C144.979 39.1511 144.964 39.4375 144.917 39.7396C144.734 39.4948 144.594 39.2292 144.516 38.9167C144.438 38.6094 144.438 38.2552 144.531 37.9271C144.615 37.599 144.786 37.3021 144.979 37.0417C145.078 36.9167 145.182 36.7969 145.292 36.6875C145.401 36.5729 145.526 36.4688 145.62 36.3906C146.005 36.0521 146.354 35.6875 146.661 35.2709C146.974 34.8542 147.24 34.4011 147.438 33.8386Z" fill="#243742"/>
<path d="M141.417 63.6563C141.417 61.125 140.385 59.6667 138.714 59.6667C137.036 59.6667 136.01 61.125 136.01 63.6563C136.01 66.1823 137.036 67.7708 138.714 67.7708C140.385 67.7708 141.417 66.1823 141.417 63.6563ZM132.229 63.6563C132.229 59.0677 134.849 56.4948 138.714 56.4948C142.578 56.4948 145.198 59.0885 145.198 63.6563C145.198 68.2448 142.578 70.9427 138.714 70.9427C134.849 70.9427 132.229 68.2448 132.229 63.6563Z" fill="white"/>
<path d="M147.688 70.6875H151.38V56.75H147.688V70.6875Z" fill="white"/>
<path d="M154.474 56.7552H158.167V67.599H163.448V70.6875H154.474V56.7552Z" fill="white"/>
<mask id="mask20_22_6059" style="mask-type:luminance" maskUnits="userSpaceOnUse" x="0" y="23" width="49" height="82">
<path d="M0.0625 23.4062H48.7396V104.995H0.0625V23.4062Z" fill="white"/>
</mask>
<g mask="url(#mask20_22_6059)">
<mask id="mask21_22_6059" style="mask-type:luminance" maskUnits="userSpaceOnUse" x="0" y="23" width="23" height="82">
<path d="M19.4531 104.432C19.3593 104.427 19.2656 104.422 19.177 104.417C19.0416 104.411 18.9114 104.401 18.7812 104.396C19.0052 104.406 19.2291 104.422 19.4531 104.432ZM1.88017 79.2448C1.60413 79.1667 1.35933 79.0833 1.14059 79C1.18225 79.0156 1.22392 79.0312 1.26038 79.0469H1.26559C1.44788 79.1146 1.65621 79.1823 1.88017 79.2448ZM0.24475 78.4896C0.145792 78.3906 0.0885004 78.2917 0.078083 78.1875C0.0832924 78.25 0.109334 78.3177 0.151001 78.3802C0.177042 78.4219 0.208292 78.4583 0.24475 78.4896ZM0.078083 78.1875C0.078083 78.1875 0.078083 78.1875 0.078083 78.1823V78.1875ZM0.072876 77.6719C0.072876 77.6667 0.072876 77.6615 0.072876 77.6615V77.6719ZM8.76038 24.8073C9.0885 24.7552 9.42183 24.7031 9.76038 24.651C10.2864 24.5729 10.8333 24.5 11.3906 24.4271C10.4687 24.5417 9.59371 24.6719 8.76038 24.8073ZM12.3281 24.3125C12.3281 24.3073 12.3333 24.3073 12.3333 24.3073C12.3333 24.3073 12.3333 24.3073 12.3281 24.3125ZM12.3958 24.3021C13.3281 24.1927 14.3073 24.0937 15.3177 24.0052C15.7812 23.9635 16.25 23.9219 16.7291 23.8854C17.3645 23.8385 18.0156 23.7917 18.677 23.75C20 23.6719 21.3645 23.6042 22.7708 23.5573C18.9843 23.6823 15.4687 23.9427 12.3958 24.3021Z" fill="white"/>
</mask>
<g mask="url(#mask21_22_6059)">
<path d="M0.072876 104.672H48.625V23.5156H0.072876V104.672Z" fill="#ABB0B3"/>
</g>
</g>
<mask id="mask22_22_6059" style="mask-type:luminance" maskUnits="userSpaceOnUse" x="0" y="22" width="50" height="11">
<path d="M0 22.9062H49.776V32.2396H0V22.9062Z" fill="white"/>
</mask>
<g mask="url(#mask22_22_6059)">
<path d="M0.072876 31.5625V28.3125C0.072876 27.099 2.66663 25.9896 6.95308 25.1354C7.36975 25.0521 7.80204 24.974 8.24996 24.8958V28.2969C8.17183 28.3125 8.0885 28.3281 8.00517 28.3438C5.30204 28.8229 3.17183 29.3958 1.80204 30.0365H1.79683C0.776001 30.5104 0.171835 31.026 0.072876 31.5625ZM48.625 28.3854C48.552 28.3698 48.4739 28.3542 48.3958 28.3438C43.2812 27.4323 36.125 26.8698 28.2031 26.8698C24.0104 26.8698 20.0312 27.026 16.4531 27.3125C18.4427 27.1562 20.5625 27.0365 22.7708 26.9635V23.5573C24.5208 23.5 26.3333 23.4688 28.1875 23.4688C29.5625 23.4688 30.9114 23.4844 32.2343 23.5156C38.651 23.6771 44.3698 24.2083 48.625 24.9792V28.3854Z" fill="#18262E"/>
</g>
<mask id="mask23_22_6059" style="mask-type:luminance" maskUnits="userSpaceOnUse" x="0" y="25" width="50" height="9">
<path d="M0 25.5729H49.776V33.5729H0V25.5729Z" fill="white"/>
</mask>
<g mask="url(#mask23_22_6059)">
<path d="M1.88021 33.4375C1.30729 33.1719 0.796875 32.8646 0.5 32.5781C0.223959 32.3073 0.067708 32.0313 0.0625 31.7448V31.7188C0.0625 31.6667 0.0677087 31.6198 0.0729167 31.5677V31.5625C0.171875 31.0261 0.776042 30.5104 1.79688 30.0365H1.80208C3.17188 29.3959 5.30208 28.8229 8.00521 28.3438C8.08854 28.3281 8.17188 28.3125 8.25 28.2969C10.6094 27.8906 13.3802 27.5573 16.4531 27.3125C20.0312 27.0261 24.0104 26.8698 28.2031 26.8698C36.125 26.8698 43.2812 27.4323 48.3958 28.3438C48.474 28.3542 48.5521 28.3698 48.625 28.3854V30.0886C48.5417 30.0729 48.4531 30.0573 48.3698 30.0417C43.2604 29.1459 36.1406 28.5886 28.2708 28.5886C24.5312 28.5886 20.9635 28.7552 17.6979 29.0209C17.6927 29.0209 17.6875 29.0209 17.6823 29.0209C17.6823 29.0209 17.6823 29.0261 17.6771 29.0261C14.1146 29.3177 10.9167 29.7344 8.25 30.2031C8.22396 30.2084 8.19792 30.2136 8.16667 30.2188C6.70833 30.474 5.41146 30.7604 4.30729 31.0677C3.34896 31.3334 2.53125 31.6198 1.88542 31.9167H1.88021V33.4375Z" fill="#121B22"/>
</g>
<path d="M1.88025 48.8906V31.9167H1.88546C2.53129 31.6198 3.349 31.3334 4.30733 31.0677C5.4115 30.7604 6.70837 30.474 8.16671 30.2188C8.19796 30.2136 8.224 30.2084 8.25004 30.2031V47.8021C5.48442 48.1094 3.29692 48.4792 1.88025 48.8906ZM48.625 47.8542C43.4948 47.2552 36.2344 46.8854 28.1875 46.8854C26.3334 46.8854 24.5209 46.9011 22.7709 46.9427V28.7084C21.0157 28.7813 19.3177 28.8906 17.698 29.0209C20.9636 28.7552 24.5313 28.5886 28.2709 28.5886C36.1407 28.5886 43.2605 29.1459 48.3698 30.0417C48.4532 30.0573 48.5417 30.0729 48.625 30.0886V37.5625C47.4896 37.8959 46.6927 38.2448 46.2813 38.6094C46.0625 38.7969 45.9532 38.9896 45.9532 39.1875V44.0469C45.9375 44.0938 45.9323 44.1459 45.9323 44.1927V44.2188C45.948 44.4896 46.1719 44.7552 46.5834 45.0052C47.0209 45.2813 47.7761 45.5729 48.625 45.8229V47.8542ZM28.2032 31.4063C27.448 34.2709 24.0157 36.4636 24.0157 38.7709C24.0157 41.0781 25.8907 42.9531 28.2032 42.9531C30.5157 42.9531 32.3907 41.0781 32.3907 38.7709C32.3907 36.4636 28.2032 31.4063 28.2032 31.4063Z" fill="#18262E"/>
<mask id="mask24_22_6059" style="mask-type:luminance" maskUnits="userSpaceOnUse" x="0" y="45" width="50" height="9">
<path d="M0 45.5729H49.776V53.5729H0V45.5729Z" fill="white"/>
</mask>
<g mask="url(#mask24_22_6059)">
<path d="M0.072876 53.2813V49.9896C0.072876 49.9844 0.072876 49.9844 0.072876 49.9844V49.9792L0.078083 49.974C0.078083 49.9688 0.078083 49.9688 0.078083 49.9688C0.078083 49.9635 0.078083 49.9635 0.078083 49.9583C0.0885004 49.8385 0.156209 49.724 0.281209 49.6094C0.286417 49.6094 0.286416 49.6094 0.286416 49.6094C0.291626 49.6042 0.296835 49.599 0.302043 49.5938C0.151001 49.724 0.078083 49.8542 0.078083 49.9896V50.849C0.078083 49.9948 3.19788 49.2188 8.24996 48.6563V51.1875C9.84892 51.0104 11.6354 50.8542 13.5781 50.724C11.5364 50.8646 9.66663 51.026 8.00517 51.2188C5.30204 51.526 3.17183 51.8906 1.80204 52.3021H1.79683C0.776001 52.6094 0.171835 52.9375 0.072876 53.2813ZM48.625 51.2448C48.552 51.2344 48.4739 51.224 48.3958 51.2188C43.2812 50.6354 36.125 50.2708 28.2031 50.2708C24.125 50.2708 20.25 50.3698 16.7552 50.5417C18.6614 50.4479 20.6718 50.375 22.7708 50.3333V47.8021C24.5208 47.7604 26.3333 47.7448 28.1875 47.7448C36.2343 47.7448 43.4948 48.1146 48.625 48.7135V51.2448Z" fill="#18262E"/>
</g>
<mask id="mask25_22_6059" style="mask-type:luminance" maskUnits="userSpaceOnUse" x="0" y="45" width="50" height="6">
<path d="M0 45.5729H49.776V50.9063H0V45.5729Z" fill="white"/>
</mask>
<g mask="url(#mask25_22_6059)">
<path d="M0.078125 50.849V49.9896C0.078125 49.8542 0.151043 49.724 0.302085 49.5938L0.31771 49.5781L0.348961 49.5573C0.640628 49.3229 1.16146 49.1042 1.88021 48.8906C3.29688 48.4792 5.48438 48.1094 8.25 47.8021V48.6563C3.19792 49.2188 0.078125 49.9948 0.078125 50.849ZM48.625 48.7135C43.4948 48.1146 36.2344 47.7448 28.1875 47.7448C26.3333 47.7448 24.5208 47.7604 22.7708 47.8021V46.9427C24.5208 46.901 26.3333 46.8854 28.1875 46.8854C36.2344 46.8854 43.4948 47.2552 48.625 47.8542V48.7135Z" fill="#253946"/>
</g>
<mask id="mask26_22_6059" style="mask-type:luminance" maskUnits="userSpaceOnUse" x="0" y="49" width="50" height="6">
<path d="M0 49.5729H49.776V54.9063H0V49.5729Z" fill="white"/>
</mask>
<g mask="url(#mask26_22_6059)">
<path d="M1.88021 54.4844C1.875 54.4792 1.86979 54.4792 1.86458 54.4792C1.29688 54.3073 0.796875 54.1146 0.5 53.9323C0.5 53.9271 0.5 53.9271 0.49479 53.9271C0.218749 53.7552 0.067708 53.5781 0.0625 53.4011V53.3802L0.0729167 53.2865V53.2813C0.171875 52.9375 0.776042 52.6094 1.79688 52.3021H1.80208C3.17188 51.8906 5.30208 51.5261 8.00521 51.2188C9.66667 51.0261 11.5365 50.8646 13.5781 50.724C13.5833 50.724 13.5833 50.724 13.5885 50.724H13.5938C14.6094 50.6563 15.6615 50.5938 16.7552 50.5417C20.25 50.3698 24.125 50.2708 28.2031 50.2708C36.125 50.2708 43.2812 50.6354 48.3958 51.2188C48.474 51.224 48.5521 51.2344 48.625 51.2448V52.3386C48.5417 52.3281 48.4531 52.3177 48.3698 52.3073C43.2604 51.7344 36.1406 51.375 28.2708 51.375C26.0521 51.375 23.8906 51.4115 21.8229 51.4792C16.9635 51.6354 12.5833 51.9479 9.05729 52.3229C8.75521 52.3542 8.45833 52.3854 8.16667 52.4167C6.70833 52.5833 5.41146 52.7656 4.30729 52.9636C3.34896 53.1354 2.53125 53.3177 1.88542 53.5104H1.88021V54.4844Z" fill="#121B22"/>
</g>
<path d="M48.625 62.4011H38.573V56.7552H34.8802V62.4011H31.7865V56.7552H28.0938V62.4011H25.5365C25.2709 60.1354 24.2761 58.4636 22.7709 57.4896V51.4531C22.4532 51.4583 22.1355 51.4688 21.823 51.4792C23.8907 51.4115 26.0521 51.375 28.2709 51.375C36.1407 51.375 43.2605 51.7344 48.3698 52.3073C48.4532 52.3177 48.5417 52.3281 48.625 52.3386V62.4011ZM8.25004 62.4011H1.88025V53.5104H1.88546C2.53129 53.3177 3.349 53.1354 4.30733 52.9636C5.4115 52.7656 6.70837 52.5833 8.16671 52.4167C8.45837 52.3854 8.75525 52.3542 9.05733 52.3229C8.78129 52.349 8.51567 52.3802 8.25004 52.4115V62.4011Z" fill="#18262E"/>
<mask id="mask27_22_6059" style="mask-type:luminance" maskUnits="userSpaceOnUse" x="0" y="96" width="50" height="10">
<path d="M0 96.2396H49.776V105.573H0V96.2396Z" fill="white"/>
</mask>
<g mask="url(#mask27_22_6059)">
<path d="M28.2187 104.672C26.3541 104.672 24.5312 104.641 22.7708 104.583V101.177C24.526 101.24 26.3437 101.271 28.2031 101.271C36.125 101.271 43.2812 100.703 48.3958 99.7969C48.4739 99.7865 48.552 99.7708 48.625 99.7552V103.161C43.5052 104.094 36.2604 104.672 28.2187 104.672ZM8.24996 103.24C3.19788 102.365 0.072876 101.161 0.072876 99.8281V96.6719H0.0989189C0.244751 97.1771 0.843708 97.6615 1.82808 98.1198C3.19788 98.75 5.32288 99.3229 8.00517 99.7969C8.0885 99.8125 8.17183 99.8281 8.24996 99.8438V103.24Z" fill="#18262E"/>
</g>
<mask id="mask28_22_6059" style="mask-type:luminance" maskUnits="userSpaceOnUse" x="0" y="93" width="50" height="9">
<path d="M0 93.5729H49.776V101.573H0V93.5729Z" fill="white"/>
</mask>
<g mask="url(#mask28_22_6059)">
<path d="M28.2031 101.271C26.3438 101.271 24.526 101.24 22.7708 101.177V99.4635C24.5052 99.5208 26.3021 99.5521 28.1354 99.5521C36.0104 99.5521 43.1302 98.8229 48.2344 97.9219C48.3646 97.901 48.4948 97.875 48.625 97.8542V99.7552C48.5521 99.7708 48.474 99.7865 48.3958 99.7969C43.2812 100.703 36.125 101.271 28.2031 101.271ZM8.25 99.8438C8.17188 99.8281 8.08854 99.8125 8.00521 99.7969C5.32292 99.3229 3.19792 98.75 1.82812 98.1198C0.843749 97.6615 0.244792 97.1771 0.0989596 96.6719L0.0885417 96.6406C0.0677083 96.5677 0.0625 96.4948 0.0625 96.4219C0.0625 96.1302 0.213541 95.8437 0.5 95.5625C0.822916 95.2552 1.24479 94.9896 1.88021 94.7031V96.4531C2.51563 96.7344 3.29687 97 4.20312 97.2552C5.30208 97.5573 6.58854 97.8438 8.03646 98.0938C8.10938 98.1094 8.18229 98.1198 8.25 98.1354V99.8438Z" fill="#253946"/>
</g>
<path d="M28.1355 99.5521C26.3021 99.5521 24.5052 99.5208 22.7709 99.4635V81.1979C21.7136 81.1771 20.6823 81.1458 19.6719 81.1094C22.3646 81.2031 25.2344 81.2552 28.2188 81.2552C28.2761 81.2552 28.3334 81.2552 28.3907 81.2552C28.4167 81.2552 28.4428 81.2552 28.4688 81.2552C28.7969 81.2552 29.1302 81.2552 29.4584 81.2552C29.4688 81.2552 29.474 81.2552 29.4844 81.2552C29.5365 81.25 29.5834 81.25 29.6355 81.25C35.8073 81.2188 41.4584 80.9635 45.9532 80.5625V80.7917C45.9532 81.3594 46.8959 81.9115 48.625 82.4115V97.8542C48.4948 97.875 48.3646 97.901 48.2344 97.9219C43.1302 98.8229 36.0105 99.5521 28.1355 99.5521ZM8.25004 98.1354C8.18233 98.1198 8.10942 98.1094 8.0365 98.0938C6.58858 97.8438 5.30212 97.5573 4.20316 97.2552C3.29692 97 2.51567 96.7344 1.88025 96.4531V79.2448C3.29692 79.6615 5.48442 80.0313 8.25004 80.3385V98.1354Z" fill="#18262E"/>
<mask id="mask29_22_6059" style="mask-type:luminance" maskUnits="userSpaceOnUse" x="0" y="74" width="48" height="8">
<path d="M0 74.9062H47.1094V81.5729H0V74.9062Z" fill="white"/>
</mask>
<g mask="url(#mask29_22_6059)">
<path d="M28.2187 80.7656C12.7083 80.7656 0.130168 79.3802 0.072876 77.6719V74.9167H0.0989189C0.244751 75.2448 0.843708 75.5521 1.82808 75.8437C3.19788 76.25 5.32288 76.6198 8.00517 76.9219C8.0885 76.9323 8.17183 76.9427 8.24996 76.9531V79.8489C12.1302 80.2812 17.151 80.5833 22.7708 80.7083V77.8073C24.526 77.8489 26.3437 77.8698 28.2031 77.8698C34.9323 77.8698 41.1093 77.6042 45.9531 77.1719V80.0729C45.9531 80.0677 45.9531 80.0677 45.9531 80.0677V80.0729C41.1198 80.5052 34.9427 80.7656 28.2187 80.7656ZM1.26038 79.0469C1.22392 79.0312 1.18225 79.0156 1.14059 79C1.14059 79 1.14059 79 1.13538 79C1.13538 79 1.13538 79 1.13538 78.9948C0.723919 78.8385 0.427042 78.6719 0.255168 78.5C0.255168 78.5 0.255167 78.5 0.249959 78.5C0.249959 78.4948 0.249959 78.4948 0.249959 78.4948H0.24475C0.24475 78.4896 0.24475 78.4896 0.24475 78.4896C0.208292 78.4583 0.177042 78.4219 0.151001 78.3802C0.307252 78.6094 0.68746 78.8333 1.26038 79.0469Z" fill="#18262E"/>
</g>
<mask id="mask30_22_6059" style="mask-type:luminance" maskUnits="userSpaceOnUse" x="0" y="77" width="48" height="5">
<path d="M0 77.5729H47.1094V81.5729H0V77.5729Z" fill="white"/>
</mask>
<g mask="url(#mask30_22_6059)">
<path d="M28.2187 81.2552C25.2343 81.2552 22.3645 81.2031 19.6718 81.1094C15.3073 80.9583 11.4062 80.6875 8.24996 80.3386C5.48433 80.0313 3.29683 79.6615 1.88017 79.2448C1.65621 79.1823 1.44788 79.1146 1.26559 79.0469H1.26038C0.68746 78.8333 0.307252 78.6094 0.151001 78.3802C0.109334 78.3177 0.0832924 78.25 0.078083 78.1875V78.1823C0.078083 78.1823 0.078083 78.1823 0.078083 78.1771C0.078083 78.1719 0.078083 78.1719 0.078083 78.1719C0.078083 78.1667 0.078083 78.1667 0.078083 78.1667C0.078083 78.1667 0.078084 78.1667 0.072876 78.1667C0.072876 78.1667 0.072876 78.1667 0.072876 78.1615C0.072876 78.1615 0.072876 78.1615 0.072876 78.1563V78.1511V77.6615C0.072876 77.6615 0.072876 77.6667 0.072876 77.6719C0.130168 79.3802 12.7083 80.7656 28.2187 80.7656C34.9427 80.7656 41.1198 80.5052 45.9531 80.0729V80.5625C41.4583 80.9636 35.8073 81.2188 29.6354 81.25C29.5833 81.25 29.5364 81.25 29.4843 81.2552C29.4739 81.2552 29.4687 81.2552 29.4583 81.2552C29.1302 81.2552 28.7968 81.2552 28.4687 81.2552C28.4427 81.2552 28.4166 81.2552 28.3906 81.2552C28.3333 81.2552 28.276 81.2552 28.2187 81.2552ZM45.9531 80.0833C45.9531 80.0781 45.9531 80.0781 45.9531 80.0729V80.0833Z" fill="#121B22"/>
</g>
<mask id="mask31_22_6059" style="mask-type:luminance" maskUnits="userSpaceOnUse" x="0" y="73" width="48" height="6">
<path d="M0 73.5729H47.1094V78.9063H0V73.5729Z" fill="white"/>
</mask>
<g mask="url(#mask31_22_6059)">
<path d="M28.2031 77.8698C26.3438 77.8698 24.526 77.849 22.7708 77.8073V76.7083C24.5052 76.7448 26.3021 76.7656 28.1354 76.7656C34.901 76.7656 41.1094 76.4219 45.9635 75.9583C45.9635 75.9688 45.9688 75.9792 45.974 75.9896C45.9792 76 45.9844 76.0052 45.9844 76.0156H45.9531V77.1719C41.1094 77.6042 34.9323 77.8698 28.2031 77.8698ZM8.25 76.9531C8.17188 76.9427 8.08854 76.9323 8.00521 76.9219C5.32292 76.6198 3.19792 76.25 1.82812 75.8438C0.843749 75.5521 0.244792 75.2448 0.0989596 74.9167L0.0885417 74.901C0.0677083 74.8542 0.0625 74.8073 0.0625 74.7604C0.0625 74.5729 0.213541 74.3854 0.5 74.2083C0.822916 74.0104 1.24479 73.8385 1.88021 73.6562V74.7813C2.51563 74.9583 3.29687 75.1302 4.20312 75.2917C5.30208 75.4896 6.58854 75.6719 8.03646 75.8333C8.10938 75.8385 8.18229 75.849 8.25 75.8542V76.9531Z" fill="#253946"/>
</g>
<path d="M28.1355 76.7656C26.3021 76.7656 24.5052 76.7448 22.7709 76.7083V69.9167C24.5417 68.7344 25.6042 66.5781 25.6042 63.6563C25.6042 63.2188 25.5782 62.8021 25.5365 62.401H28.0938V70.6875H31.7865V62.401H34.8802V70.6875H43.8542V67.599H38.573V62.401H48.625V74.1563C47.6771 74.4219 47.0573 74.6771 46.5834 74.9688C46.1563 75.2344 45.9323 75.5052 45.9323 75.7813C45.9323 75.8438 45.9427 75.901 45.9636 75.9583C41.1094 76.4219 34.9011 76.7656 28.1355 76.7656ZM8.25004 75.8542C8.18233 75.849 8.10942 75.8385 8.0365 75.8333C6.58858 75.6719 5.30212 75.4896 4.20316 75.2917C3.29692 75.1302 2.51567 74.9583 1.88025 74.7813V62.401H8.25004V75.8542Z" fill="#18262E"/>
<path d="M28.2031 42.9531C25.8906 42.9531 24.0156 41.0781 24.0156 38.7708C24.0156 36.4635 27.4479 34.2708 28.2031 31.4062C28.2031 31.4062 32.3906 36.4635 32.3906 38.7708C32.3906 41.0781 30.5156 42.9531 28.2031 42.9531ZM27.8438 33.8385C27.6458 34.401 27.3802 34.8542 27.0677 35.2708C26.7656 35.6875 26.4115 36.0521 26.026 36.3906C25.9375 36.4688 25.8073 36.5729 25.6979 36.6875C25.5885 36.7969 25.4844 36.9167 25.3854 37.0417C25.1927 37.3021 25.0208 37.599 24.9375 37.9271C24.8437 38.2552 24.8437 38.6094 24.9219 38.9167C25.0052 39.2292 25.1406 39.4948 25.3229 39.7396C25.3698 39.4375 25.3854 39.151 25.4479 38.8958C25.5052 38.6406 25.5885 38.4271 25.7083 38.2292C25.8281 38.0365 25.974 37.8542 26.1406 37.6823C26.224 37.5938 26.3177 37.5104 26.4062 37.4219C26.5 37.3385 26.5885 37.2656 26.7135 37.151C27.1667 36.7396 27.5417 36.224 27.7656 35.6406C27.8802 35.349 27.9479 35.0469 27.9688 34.7396C27.9844 34.4323 27.9635 34.1198 27.8438 33.8385Z" fill="#A4A9AC"/>
<path d="M25.3229 39.7396C25.1406 39.4948 25.0052 39.2292 24.9219 38.9167C24.8438 38.6094 24.8438 38.2552 24.9375 37.9271C25.0208 37.599 25.1927 37.3021 25.3854 37.0417C25.4844 36.9167 25.5886 36.7969 25.6979 36.6875C25.8073 36.5729 25.9375 36.4688 26.0261 36.3906C26.4115 36.0521 26.7656 35.6875 27.0677 35.2709C27.3802 34.8542 27.6458 34.4011 27.8438 33.8386C27.9636 34.1198 27.9844 34.4323 27.9688 34.7396C27.9479 35.0469 27.8802 35.349 27.7656 35.6406C27.5417 36.224 27.1667 36.7396 26.7136 37.1511C26.5886 37.2656 26.5 37.3386 26.4063 37.4219C26.3177 37.5104 26.224 37.5938 26.1406 37.6823C25.974 37.8542 25.8281 38.0365 25.7083 38.2292C25.5886 38.4271 25.5052 38.6406 25.4479 38.8959C25.3854 39.1511 25.3698 39.4375 25.3229 39.7396Z" fill="#18262E"/>
<path d="M22.7709 69.9167V57.4896C24.2761 58.4635 25.2709 60.1354 25.5365 62.401C25.5782 62.8021 25.6042 63.2187 25.6042 63.6562C25.6042 66.5781 24.5417 68.7344 22.7709 69.9167Z" fill="#ABB0B3"/>
<path d="M31.7865 70.6875H28.0938V56.7552H31.7865V70.6875Z" fill="#ABB0B3"/>
<path d="M43.8542 70.6875H34.8802V56.7552H38.573V67.599H43.8542V70.6875Z" fill="#ABB0B3"/>
<path d="M8.25 28.2969V24.8959C8.42187 24.8646 8.58854 24.8386 8.76042 24.8073C9.59375 24.6719 10.4687 24.5417 11.3906 24.4271H11.3958C11.401 24.4271 11.4115 24.4219 11.4167 24.4219C11.4219 24.4219 11.4219 24.4219 11.4271 24.4219C11.4323 24.4219 11.4323 24.4219 11.4375 24.4219C11.4427 24.4167 11.4479 24.4167 11.4531 24.4167H11.4583C11.7448 24.3802 12.0365 24.3438 12.3281 24.3125C12.3333 24.3073 12.3333 24.3073 12.3333 24.3073C12.3385 24.3073 12.3437 24.3073 12.349 24.3073C12.3542 24.3073 12.3542 24.3073 12.3594 24.3073C12.3646 24.3073 12.3698 24.3073 12.3698 24.3073C12.375 24.3073 12.3802 24.3021 12.3906 24.3021C12.3906 24.3021 12.3906 24.3021 12.3958 24.3021C15.4687 23.9427 18.9844 23.6823 22.7708 23.5573V26.9636C20.5625 27.0365 18.4427 27.1563 16.4531 27.3125C13.3802 27.5573 10.6094 27.8906 8.25 28.2969Z" fill="#26333B"/>
<path d="M8.25 47.8021V30.2031C10.9167 29.7344 14.1146 29.3177 17.6771 29.026C17.6823 29.026 17.6823 29.0208 17.6823 29.0208C17.6875 29.0208 17.6927 29.0208 17.6979 29.0208C19.3177 28.8906 21.0156 28.7812 22.7708 28.7083V46.9427C18.6875 47.0312 14.9271 47.2135 11.6875 47.4739H11.6823C11.6667 47.4739 11.6562 47.4791 11.6406 47.4791C11.625 47.4791 11.6146 47.4791 11.599 47.4791C10.4062 47.5781 9.29167 47.6823 8.25 47.8021Z" fill="#26333B"/>
<path d="M8.25 51.1875V48.6562C12.1302 48.224 17.151 47.9219 22.7708 47.8021V50.3333C20.6719 50.375 18.6615 50.4479 16.7552 50.5417C15.6615 50.5937 14.6094 50.6562 13.5938 50.724H13.5885C13.5833 50.724 13.5833 50.724 13.5781 50.724C11.6354 50.8542 9.84896 51.0104 8.25 51.1875Z" fill="#26333B"/>
<path d="M8.25 48.6562V47.8021C9.29167 47.6823 10.4062 47.5781 11.599 47.4792C11.6146 47.4792 11.625 47.4792 11.6406 47.4792C11.6562 47.4792 11.6667 47.474 11.6823 47.474H11.6875C14.9271 47.2135 18.6875 47.0312 22.7708 46.9427V47.8021C17.151 47.9219 12.1302 48.224 8.25 48.6562Z" fill="#324450"/>
<path d="M22.7708 80.7083C17.151 80.5833 12.1302 80.2813 8.25 79.849V76.9531C12.1354 77.3802 17.151 77.6875 22.7708 77.8073V80.7083Z" fill="#26333B"/>
<path d="M21.7291 62.401H16.5104C16.802 60.651 17.7448 59.6667 19.1198 59.6667C20.4948 59.6667 21.4375 60.651 21.7291 62.401Z" fill="#26333B"/>
<path d="M12.7083 62.4011H8.25V52.4115C8.51563 52.3802 8.78125 52.349 9.05729 52.3229C12.5833 51.9479 16.9635 51.6354 21.8229 51.4792C22.1354 51.4688 22.4531 51.4583 22.7708 51.4531V57.4896C21.7604 56.8386 20.5208 56.4948 19.1198 56.4948C15.6198 56.4948 13.1458 58.6042 12.7083 62.4011Z" fill="#26333B"/>
<path d="M22.7708 77.8073C17.151 77.6875 12.1354 77.3802 8.25 76.9531V75.8542C12.1406 76.2865 17.1562 76.5885 22.7708 76.7083V77.8073Z" fill="#324450"/>
<path d="M22.7708 76.7083C17.1562 76.5885 12.1406 76.2865 8.25 75.8542V62.401H12.7083C12.6615 62.8021 12.6354 63.2188 12.6354 63.6563C12.6354 68.2448 15.2552 70.9427 19.1198 70.9427C20.5208 70.9427 21.7604 70.5885 22.7708 69.9167V76.7083ZM19.1198 67.7708C17.4479 67.7708 16.4167 66.1823 16.4167 63.6563C16.4167 63.2031 16.4479 62.7865 16.5104 62.401H21.7292C21.7917 62.7865 21.8281 63.2031 21.8281 63.6563C21.8281 66.1823 20.7969 67.7708 19.1198 67.7708Z" fill="#26333B"/>
<path d="M19.1198 70.9427C15.2552 70.9427 12.6354 68.2448 12.6354 63.6563C12.6354 63.2188 12.6614 62.8021 12.7083 62.401C13.1458 58.6042 15.6198 56.4948 19.1198 56.4948C20.5208 56.4948 21.7604 56.8385 22.7708 57.4896V69.9167C21.7604 70.5885 20.5208 70.9427 19.1198 70.9427ZM16.5104 62.401C16.4479 62.7865 16.4166 63.2031 16.4166 63.6563C16.4166 66.1823 17.4479 67.7708 19.1198 67.7708C20.7968 67.7708 21.8281 66.1823 21.8281 63.6563C21.8281 63.2031 21.7916 62.7865 21.7291 62.401C21.4375 60.651 20.4948 59.6667 19.1198 59.6667C17.7448 59.6667 16.802 60.651 16.5104 62.401Z" fill="#AAAFB2"/>
<path d="M19.4583 104.432H19.4531C19.2292 104.422 19.0052 104.406 18.7812 104.396H18.776C19 104.406 19.2292 104.422 19.4583 104.432ZM15.7188 104.172C15.6979 104.167 15.6771 104.167 15.6562 104.167C15.2708 104.13 14.8906 104.099 14.5208 104.063C14.474 104.057 14.4219 104.052 14.375 104.047C14.8177 104.089 15.2604 104.13 15.7188 104.172ZM8.46875 103.281L8.46354 103.276C8.39583 103.266 8.32292 103.255 8.25 103.24C8.32292 103.255 8.39583 103.266 8.46875 103.281Z" fill="#AAAFB2"/>
<path d="M22.7708 104.583C22.651 104.578 22.5313 104.573 22.4115 104.568C22.3542 104.568 22.3021 104.562 22.2448 104.562C21.8958 104.552 21.5521 104.536 21.2083 104.521C20.8646 104.505 20.5208 104.49 20.1823 104.474C19.9375 104.458 19.6979 104.448 19.4583 104.432C19.2292 104.422 19 104.406 18.776 104.396C17.75 104.333 16.75 104.255 15.7865 104.177C15.7604 104.172 15.7396 104.172 15.7188 104.172C15.2604 104.13 14.8177 104.089 14.375 104.047C14.0833 104.021 13.7969 103.99 13.5104 103.958C13.3646 103.943 13.2135 103.927 13.0677 103.911C11.9062 103.781 10.7969 103.641 9.76042 103.484C9.63021 103.464 9.5 103.448 9.375 103.427C9.11979 103.385 8.86458 103.344 8.61979 103.302C8.56771 103.297 8.52083 103.286 8.46875 103.281C8.39583 103.266 8.32292 103.255 8.25 103.24V99.8438C12.1354 100.51 17.151 100.99 22.7708 101.177V104.583Z" fill="#26333B"/>
<path d="M22.7708 101.177C17.151 100.99 12.1354 100.51 8.25 99.8438V98.1354C12.1406 98.8021 17.1562 99.276 22.7708 99.4635V101.177Z" fill="#324450"/>
<path d="M22.7708 99.4635C17.1562 99.276 12.1406 98.8021 8.25 98.1354V80.3385C11.4062 80.6875 15.3073 80.9583 19.6719 81.1094C20.6823 81.1458 21.7135 81.1771 22.7708 81.1979V99.4635Z" fill="#26333B"/>
<mask id="mask32_22_6059" style="mask-type:luminance" maskUnits="userSpaceOnUse" x="147" y="22" width="29" height="84">
<path d="M147.109 22.9062H176V105.573H147.109V22.9062Z" fill="white"/>
</mask>
<g mask="url(#mask32_22_6059)">
<path d="M147.786 104.672C147.781 104.672 147.781 104.672 147.781 104.672C149.646 104.672 151.464 104.641 153.229 104.583C158.844 104.391 163.865 103.917 167.745 103.24C172.802 102.365 175.922 101.161 175.922 99.8281V96.6719H175.927V99.8281C175.927 101.161 172.802 102.365 167.75 103.24C167.625 103.26 167.505 103.281 167.38 103.302C167.135 103.344 166.885 103.385 166.63 103.427C166.5 103.448 166.37 103.464 166.24 103.484C165.203 103.641 164.094 103.781 162.932 103.911C162.786 103.927 162.641 103.943 162.49 103.958C161.755 104.036 160.995 104.109 160.214 104.177C159.125 104.271 157.99 104.349 156.828 104.417C156.495 104.438 156.156 104.453 155.818 104.474C155.479 104.49 155.141 104.505 154.792 104.521C154.453 104.536 154.104 104.552 153.755 104.562C153.583 104.573 153.406 104.578 153.229 104.583C151.469 104.641 149.646 104.672 147.786 104.672ZM175.901 96.6719C175.901 96.6615 175.906 96.651 175.911 96.6406C175.927 96.5677 175.938 96.4948 175.938 96.4219C175.938 96.1302 175.786 95.8438 175.495 95.5625C175.177 95.2552 174.755 94.9896 174.115 94.7031V79.2448C175.281 78.9063 175.922 78.5365 175.922 78.151V77.6615C175.922 77.6615 175.922 77.6667 175.922 77.6771V74.9167H175.901C175.901 74.9115 175.906 74.9062 175.911 74.901C175.927 74.8542 175.938 74.8073 175.938 74.7604C175.938 74.5729 175.786 74.3854 175.495 74.2083C175.177 74.0104 174.755 73.8385 174.115 73.6562V54.4844C174.693 54.3125 175.198 54.1146 175.495 53.9323C175.776 53.7552 175.927 53.5781 175.938 53.401V53.3802C175.938 53.3698 175.938 53.3594 175.938 53.349L175.943 53.3802L175.938 53.401C175.932 53.5781 175.781 53.7552 175.5 53.9323C175.203 54.1146 174.693 54.3125 174.12 54.4844V73.6562C174.76 73.8385 175.182 74.0104 175.5 74.2083C175.792 74.3854 175.943 74.5729 175.943 74.7604C175.943 74.8073 175.932 74.8542 175.911 74.901L175.901 74.9167H175.927V78.151C175.927 78.5365 175.286 78.9063 174.12 79.2448V94.7031C174.76 94.9896 175.182 95.2552 175.5 95.5625C175.792 95.8438 175.943 96.1302 175.943 96.4219C175.943 96.4948 175.932 96.5677 175.911 96.6406L175.901 96.6719ZM175.932 53.3021C175.927 53.2969 175.927 53.2865 175.922 53.2812V49.9896C175.922 49.6042 175.281 49.2344 174.115 48.8906V33.4375C174.693 33.1719 175.198 32.8646 175.495 32.5781C175.776 32.3073 175.927 32.0313 175.938 31.7448V31.7188C175.938 31.6667 175.932 31.6146 175.922 31.5625V28.3125C175.922 26.9792 172.802 25.7708 167.745 24.8958C163.865 24.224 158.849 23.7448 153.229 23.5573C151.474 23.5 149.667 23.4688 147.812 23.4688C149.667 23.4688 151.479 23.5 153.229 23.5573C154.635 23.6042 156.005 23.6719 157.323 23.75C157.984 23.7917 158.635 23.8385 159.271 23.8854C159.75 23.9219 160.219 23.9635 160.682 24.0052C162.688 24.1823 164.552 24.401 166.24 24.651C166.76 24.7292 167.266 24.8125 167.75 24.8958C172.802 25.7708 175.927 26.9792 175.927 28.3125V31.5677C175.938 31.6198 175.943 31.6667 175.943 31.7188L175.938 31.7448C175.932 32.0313 175.781 32.3073 175.5 32.5781C175.203 32.8646 174.693 33.1719 174.12 33.4375V48.8906C174.844 49.1042 175.365 49.3229 175.651 49.5573L175.682 49.5781L175.703 49.5938C175.849 49.724 175.927 49.8594 175.927 49.9896V53.2865L175.932 53.3021Z" fill="#ABB0B3"/>
</g>
<mask id="mask33_22_6059" style="mask-type:luminance" maskUnits="userSpaceOnUse" x="125" y="22" width="51" height="11">
<path d="M125.776 22.9062H176V32.2396H125.776V22.9062Z" fill="white"/>
</mask>
<g mask="url(#mask33_22_6059)">
<path d="M175.922 31.5625C175.828 31.026 175.224 30.5104 174.198 30.0365C172.828 29.3958 170.693 28.8229 167.99 28.3438C167.906 28.3281 167.828 28.3125 167.745 28.2969V24.8958C163.865 24.224 158.849 23.7448 153.229 23.5573V26.9635C155.37 27.0312 157.422 27.1458 159.359 27.2969C155.833 27.026 151.917 26.8698 147.797 26.8698C139.87 26.8698 132.714 27.4323 127.599 28.3438C127.187 28.4167 126.786 28.4896 126.401 28.5677V25.1667C131.562 24.1302 139.24 23.4688 147.812 23.4688C149.667 23.4688 151.474 23.5 153.229 23.5573C158.849 23.7448 163.865 24.224 167.745 24.8958C172.802 25.7708 175.922 26.9792 175.922 28.3125V31.5625Z" fill="#18262E"/>
</g>
<mask id="mask34_22_6059" style="mask-type:luminance" maskUnits="userSpaceOnUse" x="125" y="25" width="51" height="9">
<path d="M125.776 25.5729H176V33.5729H125.776V25.5729Z" fill="white"/>
</mask>
<g mask="url(#mask34_22_6059)">
<path d="M174.115 33.4375V31.9167H174.109C173.464 31.6198 172.651 31.3334 171.687 31.0677C170.589 30.7604 169.292 30.474 167.828 30.2188C167.802 30.2136 167.771 30.2084 167.745 30.2031C165.182 29.7552 162.125 29.349 158.719 29.0573C158.719 29.0573 158.719 29.0573 158.714 29.0573C158.708 29.0573 158.698 29.0573 158.693 29.0573C158.682 29.0573 158.677 29.0521 158.672 29.0521C158.672 29.0521 158.672 29.0521 158.667 29.0521C155.307 28.7656 151.609 28.5886 147.729 28.5886C139.854 28.5886 132.734 29.1459 127.63 30.0417C127.203 30.1198 126.797 30.1979 126.401 30.2761V28.5677C126.786 28.4896 127.187 28.4167 127.599 28.3438C132.714 27.4323 139.87 26.8698 147.797 26.8698C151.917 26.8698 155.833 27.0261 159.359 27.2969C162.505 27.5417 165.344 27.8854 167.745 28.2969C167.828 28.3125 167.906 28.3281 167.99 28.3438C170.693 28.8229 172.828 29.3959 174.198 30.0365C175.224 30.5104 175.828 31.0261 175.922 31.5625C175.932 31.6146 175.937 31.6667 175.937 31.7188V31.7448C175.927 32.0313 175.776 32.3073 175.495 32.5781C175.198 32.8646 174.693 33.1719 174.115 33.4375Z" fill="#121B22"/>
</g>
<path d="M174.115 48.8906C172.703 48.4792 170.51 48.1094 167.745 47.8021V30.2031C167.771 30.2084 167.802 30.2136 167.828 30.2188C169.292 30.474 170.589 30.7604 171.687 31.0677C172.651 31.3334 173.464 31.6198 174.109 31.9167H174.115V48.8906ZM126.401 47.974V45.8229C127.344 45.5521 127.969 45.3021 128.443 45.0052C128.87 44.7448 129.094 44.474 129.094 44.1927C129.094 44.125 129.078 44.0521 129.052 43.9844C129.047 43.9792 129.042 43.9688 129.036 43.9584H129.073V40.4271C129.073 40.4375 129.073 40.4479 129.073 40.4531V39.1875C129.073 38.6146 128.125 38.0677 126.401 37.5625V30.2761C126.797 30.1979 127.203 30.1198 127.63 30.0417C132.734 29.1459 139.854 28.5886 147.729 28.5886C151.609 28.5886 155.307 28.7656 158.667 29.0521C156.937 28.9063 155.115 28.7865 153.229 28.7084V46.9427C151.474 46.9011 149.667 46.8854 147.812 46.8854C139.24 46.8854 131.562 47.3073 126.401 47.974ZM147.797 31.4063C147.042 34.2709 143.609 36.4636 143.609 38.7709C143.609 41.0781 145.484 42.9531 147.797 42.9531C150.109 42.9531 151.984 41.0781 151.984 38.7709C151.984 36.4636 147.797 31.4063 147.797 31.4063ZM158.719 29.0573H158.714C158.719 29.0573 158.719 29.0573 158.719 29.0573Z" fill="#18262E"/>
<mask id="mask35_22_6059" style="mask-type:luminance" maskUnits="userSpaceOnUse" x="125" y="45" width="51" height="9">
<path d="M125.776 45.5729H176V53.5729H125.776V45.5729Z" fill="white"/>
</mask>
<g mask="url(#mask35_22_6059)">
<path d="M175.922 53.2813C175.823 52.9375 175.224 52.6094 174.198 52.3021C172.828 51.8906 170.693 51.526 167.99 51.2188C166.427 51.0417 164.672 50.8802 162.76 50.75C164.568 50.875 166.24 51.0208 167.745 51.1875V48.6563C172.802 49.2188 175.922 49.9948 175.922 50.849V53.2813ZM126.401 51.3646V48.8333C131.562 48.1667 139.24 47.7448 147.812 47.7448C149.661 47.7448 151.474 47.7604 153.229 47.8021V50.3333C155.245 50.375 157.187 50.4427 159.021 50.5313C155.583 50.3646 151.786 50.2708 147.797 50.2708C139.87 50.2708 132.714 50.6354 127.599 51.2188C127.187 51.2656 126.786 51.3125 126.401 51.3646ZM153.229 46.9427C151.474 46.901 149.661 46.8854 147.812 46.8854C149.667 46.8854 151.474 46.901 153.229 46.9427Z" fill="#18262E"/>
</g>
<mask id="mask36_22_6059" style="mask-type:luminance" maskUnits="userSpaceOnUse" x="125" y="45" width="51" height="6">
<path d="M125.776 45.5729H176V50.9063H125.776V45.5729Z" fill="white"/>
</mask>
<g mask="url(#mask36_22_6059)">
<path d="M175.922 50.849C175.922 49.9948 172.802 49.2188 167.745 48.6563V47.8021C170.51 48.1094 172.703 48.4792 174.115 48.8906C175.281 49.2344 175.922 49.6042 175.922 49.9896V50.849ZM126.401 48.8333V47.974C131.562 47.3073 139.24 46.8854 147.812 46.8854C149.661 46.8854 151.474 46.901 153.229 46.9427V47.8021C151.474 47.7604 149.661 47.7448 147.812 47.7448C139.24 47.7448 131.562 48.1667 126.401 48.8333Z" fill="#253946"/>
</g>
<mask id="mask37_22_6059" style="mask-type:luminance" maskUnits="userSpaceOnUse" x="125" y="49" width="51" height="6">
<path d="M125.776 49.5729H176V54.9063H125.776V49.5729Z" fill="white"/>
</mask>
<g mask="url(#mask37_22_6059)">
<path d="M174.115 54.4844V53.5104H174.109C173.464 53.3177 172.651 53.1354 171.687 52.9636C170.589 52.7656 169.292 52.5833 167.828 52.4167C167.495 52.3802 167.151 52.3438 166.797 52.3073C163.302 51.9427 158.984 51.6302 154.198 51.4792C152.12 51.4115 149.953 51.375 147.729 51.375C139.854 51.375 132.734 51.7344 127.63 52.3073C127.203 52.3542 126.797 52.4063 126.401 52.4531V51.3646C126.786 51.3125 127.187 51.2656 127.599 51.2188C132.714 50.6354 139.87 50.2708 147.797 50.2708C151.786 50.2708 155.583 50.3646 159.021 50.5313C160.323 50.5938 161.568 50.6667 162.76 50.75C164.672 50.8802 166.427 51.0417 167.99 51.2188C170.693 51.5261 172.828 51.8906 174.198 52.3021C175.224 52.6094 175.823 52.9375 175.922 53.2813C175.927 53.2865 175.927 53.2969 175.932 53.3021L175.937 53.349C175.937 53.3594 175.937 53.3698 175.937 53.3802V53.4011C175.927 53.5781 175.776 53.7552 175.495 53.9323C175.198 54.1146 174.693 54.3125 174.115 54.4844Z" fill="#121B22"/>
</g>
<path d="M174.115 62.4011H167.745V52.4115C167.437 52.375 167.12 52.3386 166.797 52.3073C167.151 52.3438 167.495 52.3802 167.828 52.4167C169.292 52.5833 170.589 52.7656 171.687 52.9636C172.651 53.1354 173.464 53.3177 174.109 53.5104H174.115V62.4011ZM153.229 62.4011H151.38V56.7552H147.687V62.4011H145.125C144.687 58.6198 142.208 56.4948 138.714 56.4948C135.214 56.4948 132.74 58.6042 132.297 62.4011H126.401V52.4531C126.797 52.4063 127.203 52.3542 127.63 52.3073C132.734 51.7344 139.854 51.375 147.729 51.375C149.953 51.375 152.12 51.4115 154.198 51.4792C153.875 51.4688 153.552 51.4583 153.229 51.4531V62.4011ZM141.323 62.4011H136.104C136.396 60.6511 137.339 59.6667 138.714 59.6667C140.089 59.6667 141.026 60.6511 141.323 62.4011Z" fill="#18262E"/>
<mask id="mask38_22_6059" style="mask-type:luminance" maskUnits="userSpaceOnUse" x="125" y="96" width="51" height="10">
<path d="M125.776 96.2396H176V105.573H125.776V96.2396Z" fill="white"/>
</mask>
<g mask="url(#mask38_22_6059)">
<path d="M147.781 104.672C139.214 104.672 131.552 104.016 126.401 102.974V99.5729C126.786 99.6511 127.187 99.724 127.599 99.7969C132.714 100.703 139.87 101.271 147.797 101.271C149.656 101.271 151.469 101.24 153.229 101.177V104.583C151.464 104.641 149.646 104.672 147.781 104.672ZM167.745 103.24V99.8438C167.828 99.8281 167.906 99.8125 167.99 99.7969C170.677 99.3229 172.797 98.75 174.172 98.1198C175.156 97.6615 175.755 97.1771 175.901 96.6719H175.922V99.8281C175.922 101.161 172.802 102.365 167.745 103.24Z" fill="#18262E"/>
</g>
<mask id="mask39_22_6059" style="mask-type:luminance" maskUnits="userSpaceOnUse" x="125" y="93" width="51" height="9">
<path d="M125.776 93.5729H176V101.573H125.776V93.5729Z" fill="white"/>
</mask>
<g mask="url(#mask39_22_6059)">
<path d="M147.797 101.271C139.87 101.271 132.714 100.703 127.599 99.7969C127.187 99.724 126.786 99.651 126.401 99.5729V97.6667C126.839 97.7552 127.292 97.8385 127.76 97.9219C132.87 98.8229 139.99 99.5521 147.859 99.5521C149.698 99.5521 151.49 99.5208 153.229 99.4635V101.177C151.469 101.24 149.656 101.271 147.797 101.271ZM167.745 99.8438V98.1354C167.818 98.1198 167.891 98.1094 167.964 98.0938C169.411 97.8438 170.698 97.5573 171.792 97.2552C172.703 97 173.484 96.7344 174.115 96.4531V94.7031C174.755 94.9896 175.177 95.2552 175.495 95.5625C175.786 95.8437 175.937 96.1302 175.937 96.4219C175.937 96.4948 175.927 96.5677 175.911 96.6406C175.906 96.651 175.901 96.6615 175.901 96.6719C175.755 97.1771 175.156 97.6615 174.172 98.1198C172.797 98.75 170.677 99.3229 167.99 99.7969C167.906 99.8125 167.828 99.8281 167.745 99.8438Z" fill="#253946"/>
</g>
<path d="M147.859 99.5521C139.99 99.5521 132.87 98.8229 127.76 97.9219C127.292 97.8385 126.839 97.7552 126.401 97.6667V82.4167C128.125 81.9115 129.073 81.3646 129.073 80.7917V80.4688C133.349 80.8906 138.802 81.1719 144.823 81.2396C145.797 81.25 146.781 81.2552 147.781 81.2552C150.755 81.2552 153.62 81.2031 156.307 81.1094C155.302 81.1458 154.276 81.1771 153.229 81.1979V99.4635C151.49 99.5208 149.698 99.5521 147.859 99.5521ZM167.745 98.1354V80.3385C170.51 80.0313 172.703 79.6615 174.115 79.2448V96.4531C173.484 96.7344 172.703 97 171.792 97.2552C170.698 97.5573 169.411 97.8438 167.964 98.0938C167.891 98.1094 167.818 98.1198 167.745 98.1354Z" fill="#18262E"/>
<mask id="mask40_22_6059" style="mask-type:luminance" maskUnits="userSpaceOnUse" x="128" y="74" width="48" height="8">
<path d="M128.443 74.9062H176V81.5729H128.443V74.9062Z" fill="white"/>
</mask>
<g mask="url(#mask40_22_6059)">
<path d="M147.781 80.7656C140.594 80.7656 134.037 80.4687 129.073 79.9792V77.0781C134.047 77.5677 140.604 77.8698 147.797 77.8698C149.656 77.8698 151.469 77.8489 153.229 77.8073V80.7083C158.844 80.5833 163.865 80.2812 167.745 79.8489V76.9531C167.828 76.9427 167.906 76.9323 167.99 76.9219C170.677 76.6198 172.797 76.25 174.172 75.8437C175.151 75.5521 175.755 75.2448 175.901 74.9167H175.922V77.6771C175.849 79.3854 163.276 80.7656 147.781 80.7656Z" fill="#18262E"/>
</g>
<mask id="mask41_22_6059" style="mask-type:luminance" maskUnits="userSpaceOnUse" x="128" y="77" width="48" height="5">
<path d="M128.443 77.5729H176V81.5729H128.443V77.5729Z" fill="white"/>
</mask>
<g mask="url(#mask41_22_6059)">
<path d="M147.781 81.2552C146.781 81.2552 145.797 81.25 144.823 81.2396C138.802 81.1719 133.349 80.8906 129.073 80.4688V79.9792C134.037 80.4688 140.594 80.7656 147.781 80.7656C163.276 80.7656 175.849 79.3854 175.922 77.6771C175.922 77.6667 175.922 77.6615 175.922 77.6615V78.1511C175.922 78.5365 175.281 78.9063 174.115 79.2448C172.703 79.6615 170.51 80.0313 167.745 80.3386C164.589 80.6875 160.682 80.9583 156.307 81.1094C153.62 81.2031 150.755 81.2552 147.781 81.2552Z" fill="#121B22"/>
</g>
<mask id="mask42_22_6059" style="mask-type:luminance" maskUnits="userSpaceOnUse" x="128" y="73" width="48" height="6">
<path d="M128.443 73.5729H176V78.9063H128.443V73.5729Z" fill="white"/>
</mask>
<g mask="url(#mask42_22_6059)">
<path d="M147.797 77.8698C140.604 77.8698 134.047 77.5677 129.073 77.0781V75.9323C129.078 75.9115 129.083 75.8854 129.089 75.8646C134.068 76.3698 140.646 76.7656 147.859 76.7656C149.698 76.7656 151.49 76.7448 153.229 76.7083V77.8073C151.469 77.849 149.656 77.8698 147.797 77.8698ZM167.745 76.9531V75.8542C167.818 75.849 167.891 75.8385 167.964 75.8333C169.412 75.6719 170.698 75.4896 171.792 75.2917C172.703 75.1302 173.484 74.9583 174.115 74.7813V73.6562C174.755 73.8385 175.177 74.0104 175.495 74.2083C175.787 74.3854 175.938 74.5729 175.938 74.7604C175.938 74.8073 175.927 74.8542 175.912 74.901C175.906 74.9062 175.901 74.9115 175.901 74.9167C175.755 75.2448 175.151 75.5521 174.172 75.8438C172.797 76.25 170.677 76.6198 167.99 76.9219C167.906 76.9323 167.828 76.9427 167.745 76.9531Z" fill="#253946"/>
</g>
<path d="M147.859 76.7656C140.646 76.7656 134.068 76.3698 129.089 75.8646C129.089 75.8385 129.094 75.8073 129.094 75.7813L129.089 75.7552C129.078 75.4844 128.854 75.224 128.443 74.9688C128 74.6979 127.25 74.4063 126.401 74.151V62.401H132.297C132.25 62.8021 132.229 63.2188 132.229 63.6563C132.229 68.2448 134.849 70.9427 138.714 70.9427C142.578 70.9427 145.198 68.2448 145.198 63.6563C145.198 63.2188 145.172 62.8021 145.125 62.401H147.687V70.6875H151.38V62.401H153.229V76.7083C151.49 76.7448 149.698 76.7656 147.859 76.7656ZM167.745 75.8542V62.401H174.115V74.7813C173.484 74.9583 172.703 75.1302 171.792 75.2917C170.698 75.4896 169.411 75.6719 167.964 75.8333C167.891 75.8385 167.818 75.849 167.745 75.8542ZM138.714 67.7708C137.036 67.7708 136.01 66.1823 136.01 63.6563C136.01 63.2031 136.042 62.7865 136.104 62.401H141.323C141.385 62.7865 141.417 63.2031 141.417 63.6563C141.417 66.1823 140.385 67.7708 138.714 67.7708Z" fill="#18262E"/>
<path d="M147.797 42.9531C145.484 42.9531 143.609 41.0781 143.609 38.7708C143.609 36.4635 147.042 34.2708 147.797 31.4062C147.797 31.4062 151.984 36.4635 151.984 38.7708C151.984 41.0781 150.109 42.9531 147.797 42.9531ZM147.438 33.8385C147.24 34.401 146.974 34.8542 146.661 35.2708C146.354 35.6875 146.005 36.0521 145.62 36.3906C145.526 36.4688 145.401 36.5729 145.292 36.6875C145.182 36.7969 145.078 36.9167 144.979 37.0417C144.786 37.3021 144.615 37.599 144.531 37.9271C144.438 38.2552 144.437 38.6094 144.516 38.9167C144.594 39.2292 144.734 39.4948 144.917 39.7396C144.964 39.4375 144.979 39.151 145.036 38.8958C145.094 38.6406 145.182 38.4271 145.302 38.2292C145.417 38.0365 145.568 37.8542 145.734 37.6823C145.818 37.5938 145.906 37.5104 146 37.4219C146.094 37.3385 146.182 37.2656 146.307 37.151C146.76 36.7396 147.135 36.224 147.359 35.6406C147.469 35.349 147.542 35.0469 147.562 34.7396C147.578 34.4323 147.557 34.1198 147.438 33.8385Z" fill="#A4A9AC"/>
<path d="M144.917 39.7396C144.734 39.4948 144.594 39.2292 144.516 38.9167C144.438 38.6094 144.438 38.2552 144.531 37.9271C144.615 37.599 144.786 37.3021 144.979 37.0417C145.078 36.9167 145.182 36.7969 145.292 36.6875C145.401 36.5729 145.526 36.4688 145.62 36.3906C146.005 36.0521 146.354 35.6875 146.661 35.2709C146.974 34.8542 147.24 34.4011 147.438 33.8386C147.557 34.1198 147.578 34.4323 147.563 34.7396C147.542 35.0469 147.469 35.349 147.359 35.6406C147.135 36.224 146.76 36.7396 146.307 37.1511C146.182 37.2656 146.094 37.3386 146 37.4219C145.906 37.5104 145.818 37.5938 145.734 37.6823C145.568 37.8542 145.417 38.0365 145.302 38.2292C145.182 38.4271 145.094 38.6406 145.036 38.8959C144.979 39.1511 144.964 39.4375 144.917 39.7396Z" fill="#18262E"/>
<path d="M138.714 70.9427C134.849 70.9427 132.229 68.2448 132.229 63.6563C132.229 63.2188 132.25 62.8021 132.297 62.401C132.74 58.6042 135.214 56.4948 138.714 56.4948C142.208 56.4948 144.687 58.6198 145.125 62.401C145.172 62.8021 145.198 63.2188 145.198 63.6563C145.198 68.2448 142.578 70.9427 138.714 70.9427ZM136.104 62.401C136.042 62.7865 136.01 63.2031 136.01 63.6563C136.01 66.1823 137.036 67.7708 138.714 67.7708C140.385 67.7708 141.417 66.1823 141.417 63.6563C141.417 63.2031 141.385 62.7865 141.323 62.401C141.026 60.651 140.089 59.6667 138.714 59.6667C137.339 59.6667 136.396 60.651 136.104 62.401Z" fill="#ABB0B3"/>
<path d="M151.38 70.6875H147.688V56.7552H151.38V70.6875Z" fill="#ABB0B3"/>
<path d="M167.745 28.2969C165.344 27.8854 162.505 27.5417 159.359 27.2969C157.422 27.1459 155.37 27.0313 153.229 26.9636V23.5573C158.849 23.7448 163.865 24.224 167.745 24.8959V28.2969Z" fill="#26333B"/>
<path d="M167.745 47.8021C166.302 47.6406 164.698 47.4948 162.964 47.375C160.042 47.1666 156.75 47.0156 153.229 46.9427V28.7083C155.115 28.7864 156.937 28.9062 158.667 29.0521C158.672 29.0521 158.672 29.0521 158.672 29.0521C158.677 29.0521 158.682 29.0573 158.693 29.0573C158.698 29.0573 158.708 29.0573 158.714 29.0573H158.719C162.125 29.3489 165.182 29.7552 167.745 30.2031V47.8021Z" fill="#26333B"/>
<path d="M167.745 51.1875C166.24 51.0208 164.568 50.875 162.76 50.75C161.568 50.6667 160.323 50.5937 159.021 50.5312C157.187 50.4427 155.245 50.375 153.229 50.3333V47.8021C158.849 47.9219 163.865 48.224 167.745 48.6562V51.1875ZM162.964 47.375C160.042 47.1667 156.755 47.0156 153.229 46.9427C156.75 47.0156 160.042 47.1667 162.964 47.375Z" fill="#26333B"/>
<path d="M167.745 48.6562C163.865 48.224 158.849 47.9219 153.229 47.8021V46.9427C156.755 47.0156 160.042 47.1667 162.964 47.375C164.698 47.4948 166.302 47.6406 167.745 47.8021V48.6562Z" fill="#324450"/>
<path d="M153.229 80.7083V77.8073C158.844 77.6875 163.865 77.3802 167.745 76.9531V79.849C163.865 80.2813 158.844 80.5833 153.229 80.7083Z" fill="#26333B"/>
<path d="M167.745 62.4011H158.167V56.7552H154.474V62.4011H153.229V51.4531C153.552 51.4583 153.875 51.4688 154.198 51.4792C158.984 51.6302 163.302 51.9427 166.797 52.3073C167.12 52.3386 167.437 52.375 167.745 52.4115V62.4011Z" fill="#26333B"/>
<path d="M153.229 77.8073V76.7083C158.839 76.5885 163.859 76.2865 167.745 75.8542V76.9531C163.865 77.3802 158.844 77.6875 153.229 77.8073Z" fill="#324450"/>
<path d="M153.229 76.7083V62.401H154.474V70.6875H163.448V67.599H158.167V62.401H167.745V75.8542C163.859 76.2865 158.839 76.5885 153.229 76.7083Z" fill="#26333B"/>
<path d="M163.448 70.6875H154.474V56.7552H158.167V67.599H163.448V70.6875Z" fill="#AAAFB2"/>
<path d="M153.229 104.583V101.177C158.844 100.99 163.865 100.51 167.745 99.8438V103.24C163.865 103.917 158.844 104.391 153.229 104.583Z" fill="#26333B"/>
<path d="M153.229 101.177V99.4635C158.839 99.276 163.859 98.8021 167.745 98.1354V99.8438C163.865 100.51 158.844 100.99 153.229 101.177Z" fill="#324450"/>
<path d="M153.229 99.4635V81.1979C154.276 81.1771 155.302 81.1458 156.307 81.1094C160.682 80.9583 164.589 80.6875 167.745 80.3385V98.1354C163.859 98.8021 158.839 99.276 153.229 99.4635Z" fill="#26333B"/>
<mask id="mask43_22_6059" style="mask-type:luminance" maskUnits="userSpaceOnUse" x="45" y="0" width="85" height="13">
<path d="M45.776 0H129.776V12.2396H45.776V0Z" fill="white"/>
</mask>
<g mask="url(#mask43_22_6059)">
<path d="M129.073 7.15624V11.8177H129.036L125.661 11.8333L87.6146 12H87.4792L79.4896 12.0364L58.0365 12.1302L49.3542 12.1719L45.9531 12.1875V7.15624C45.9531 5.18749 50.5677 3.40103 58.0365 2.10416C63.7708 1.11457 71.1823 0.40624 79.4896 0.130198C82.0729 0.0416555 84.75 -0.00521851 87.4896 -0.00521851C110.453 -0.00521851 129.073 3.20311 129.073 7.15624Z" fill="#243742"/>
</g>
<path d="M126.401 14.724C127.344 14.3073 127.969 13.9115 128.443 13.4584C128.87 13.0417 129.094 12.6198 129.094 12.1875C129.094 12.0781 129.078 11.9688 129.052 11.8594C128.854 11.099 127.964 10.3646 126.484 9.68231C124.453 8.74481 121.318 7.90106 117.349 7.19794C109.797 5.8594 99.2187 5.02606 87.5104 5.02606C75.8073 5.02606 65.2291 5.8594 57.6718 7.19794C53.677 7.90627 50.526 8.75523 48.5 9.70315C46.8385 10.474 45.9323 11.3125 45.9323 12.1875V12.2292C45.9479 12.6459 46.1718 13.0573 46.5833 13.4584C47.0208 13.8802 47.776 14.3334 48.625 14.7292L126.401 14.724Z" fill="#1A2830"/>
<path d="M48.625 12.4844H48.6302C49.5833 12.0417 50.7865 11.6198 52.2083 11.224C53.8385 10.7708 55.7552 10.349 57.9115 9.96875C65.4583 8.64062 75.9792 7.5625 87.6094 7.5625C99.2448 7.5625 109.76 8.38542 117.312 9.71354C119.448 10.0885 121.349 10.5052 122.969 10.9583C124.318 11.3281 125.469 11.724 126.401 12.1406V40.6615H48.625V12.4844Z" fill="#243742"/>
<path d="M45.9531 44.1927L129.073 43.9583V39.1875C129.073 36.651 110.453 34.5938 87.4896 34.5938C64.526 34.5938 45.9531 36.651 45.9531 39.1875V44.1927Z" fill="#243742"/>
<path d="M129.073 39.1875V40.4531C129.073 37.9167 110.458 35.8646 87.4896 35.8646C64.526 35.8646 45.9531 37.9167 45.9531 40.4531V39.1875C45.9531 36.651 64.526 34.5938 87.4896 34.5938C110.458 34.5938 129.073 36.651 129.073 39.1875Z" fill="#375263"/>
<path d="M126.401 45.8229C127.344 45.5521 127.969 45.3021 128.443 45.0052C128.87 44.7448 129.094 44.474 129.094 44.1927C129.094 44.125 129.078 44.0521 129.052 43.9844C128.854 43.4948 127.964 43.026 126.484 42.5885C124.453 41.9896 121.318 41.4479 117.349 41C109.797 40.1354 99.2187 39.6042 87.5104 39.6042C75.8073 39.6042 65.2291 40.1354 57.6718 41C53.677 41.4531 50.526 41.9948 48.5 42.6042C46.8385 43.099 45.9323 43.6354 45.9323 44.1927V44.2188C45.9479 44.4896 46.1718 44.7552 46.5833 45.0052C47.0208 45.2813 47.776 45.5729 48.625 45.8229H126.401Z" fill="#1A2830"/>
<path d="M48.625 44.3854H48.6302C49.5833 44.099 50.7865 43.8333 52.2083 43.5781C53.8385 43.2865 55.7552 43.0156 57.9115 42.7708C65.4583 41.9219 75.9792 41.2344 87.6094 41.2344C99.2448 41.2344 109.76 41.7604 117.312 42.6094C119.448 42.849 121.349 43.1198 122.969 43.4062C124.318 43.6458 125.469 43.901 126.401 44.1667V62.4531H48.625V44.3854Z" fill="#243742"/>
<mask id="mask44_22_6059" style="mask-type:luminance" maskUnits="userSpaceOnUse" x="45" y="107" width="85" height="13">
<path d="M45.8959 107.474H129.396V119.979H45.8959V107.474Z" fill="white"/>
</mask>
<g mask="url(#mask44_22_6059)">
<path d="M129.073 107.792V112.823C129.073 116.776 110.5 119.979 87.5365 119.979C84.7812 119.979 82.0885 119.932 79.4896 119.849C71.1875 119.568 63.7708 118.859 58.0365 117.865C50.5677 116.573 45.9531 114.792 45.9531 112.823V108.156H45.9844L49.3646 108.141L58.0365 108.104L79.4896 108.01L125.672 107.807L129.073 107.792Z" fill="#243742"/>
</g>
<path d="M48.625 105.25C47.677 105.672 47.0573 106.068 46.5833 106.521C46.1562 106.932 45.9323 107.359 45.9323 107.792C45.9323 107.901 45.9479 108.005 45.9739 108.115C46.1718 108.88 47.0625 109.609 48.5416 110.297C50.5729 111.229 53.7083 112.073 57.6718 112.776C65.2291 114.12 75.8073 114.953 87.5104 114.953C99.2187 114.953 109.797 114.12 117.349 112.776C121.344 112.068 124.495 111.219 126.526 110.276C128.187 109.5 129.094 108.661 129.094 107.792L129.089 107.75C129.078 107.328 128.854 106.917 128.443 106.521C128 106.099 127.25 105.641 126.401 105.25H48.625Z" fill="#375263"/>
<path d="M126.401 107.49L126.396 107.495C125.438 107.932 124.24 108.359 122.818 108.75C121.188 109.208 119.271 109.63 117.115 110.005C109.568 111.333 99.0469 112.411 87.4167 112.411C75.7812 112.411 65.2604 111.589 57.7135 110.26C55.5729 109.885 53.6771 109.469 52.0573 109.021H52.0521C50.7083 108.646 49.5573 108.25 48.625 107.833V79.3125H126.401V107.49Z" fill="#243742"/>
<path d="M129.073 75.7812L45.9531 76.0156V80.7917C45.9531 83.3281 64.5677 85.3802 87.5365 85.3802C110.5 85.3802 129.073 83.3281 129.073 80.7917V75.7812Z" fill="#243742"/>
<path d="M129.073 80.0677V80.7917C129.073 83.3281 110.5 85.3802 87.5365 85.3802C64.5677 85.3802 45.9531 83.3281 45.9531 80.7917V80.0677C45.9531 82.599 64.5677 84.6563 87.5365 84.6563C110.5 84.6563 129.073 82.599 129.073 80.0677Z" fill="#1A2830"/>
<path d="M48.625 74.1563C47.677 74.4219 47.0573 74.6771 46.5833 74.9688C46.1562 75.2344 45.9323 75.5052 45.9323 75.7813C45.9323 75.8542 45.9479 75.9219 45.9739 75.9896C46.1718 76.4792 47.0625 76.9479 48.5416 77.3854C50.5729 77.9896 53.7083 78.526 57.6718 78.9792C65.2291 79.8385 75.8073 80.375 87.5104 80.375C99.2187 80.375 109.797 79.8385 117.349 78.9792C121.344 78.526 124.495 77.9792 126.526 77.375C128.187 76.8802 129.094 76.3438 129.094 75.7813L129.089 75.7552C129.078 75.4844 128.854 75.224 128.443 74.9688C128 74.6979 127.25 74.4063 126.401 74.151L48.625 74.1563Z" fill="#375263"/>
<path d="M126.401 75.5885L126.396 75.5938C125.438 75.875 124.24 76.1458 122.818 76.401C121.188 76.6927 119.271 76.9635 117.115 77.2031C109.568 78.0521 99.0469 78.7448 87.4167 78.7448C75.7812 78.7448 65.2604 78.2188 57.7135 77.3646C55.5729 77.125 53.6771 76.8594 52.0573 76.5729H52.0521C50.7083 76.3333 49.5573 76.0781 48.625 75.8125V57.526H126.401V75.5885Z" fill="#243742"/>
<path d="M93.6979 22.6094C93.6979 26.0208 90.927 28.7864 87.5104 28.7864C84.0937 28.7864 81.3229 26.0208 81.3229 22.6094C81.3229 19.1927 86.401 15.9583 87.5104 11.7239C87.5104 11.7239 93.6979 19.1927 93.6979 22.6094Z" fill="#F5F5F5"/>
<path d="M86.9844 15.3229C87.0782 15.5261 87.1198 15.75 87.1511 15.974C87.1771 16.1979 87.1823 16.4219 87.1667 16.6511C87.1355 17.1042 87.0313 17.5521 86.8698 17.9844C86.5417 18.8438 85.9792 19.6094 85.3125 20.2188L84.8594 20.6198C84.724 20.7448 84.5886 20.8698 84.4688 21C84.2188 21.2552 84 21.5209 83.8282 21.8073C83.6511 22.099 83.5209 22.4219 83.4375 22.7969C83.3959 22.9844 83.3698 23.1823 83.3386 23.3906C83.3125 23.599 83.2917 23.8177 83.2552 24.0417C83.1198 23.8594 83.0052 23.6719 82.9063 23.4688C82.8073 23.2656 82.724 23.0521 82.6667 22.8229C82.6407 22.7084 82.6198 22.5938 82.6042 22.4688C82.5886 22.3542 82.5834 22.2292 82.5834 22.1042C82.5886 21.8594 82.6198 21.6042 82.6875 21.3646C82.8125 20.875 83.0573 20.4323 83.349 20.0573C83.4948 19.8646 83.6511 19.6927 83.8177 19.5261C83.8959 19.4479 83.9792 19.3646 84.0677 19.2917L84.2969 19.0938C84.8646 18.5886 85.3855 18.0469 85.8386 17.4375C86.0677 17.1354 86.2761 16.8073 86.474 16.4584C86.6615 16.1094 86.8386 15.7396 86.9844 15.3229Z" fill="#243742"/>
<path d="M78.0885 59.375C78.0885 55.6354 76.5677 53.4844 74.0937 53.4844C71.6198 53.4844 70.0937 55.6354 70.0937 59.375C70.0937 63.1094 71.6198 65.4583 74.0937 65.4583C76.5677 65.4583 78.0885 63.1094 78.0885 59.375ZM64.5104 59.375C64.5104 52.599 68.3854 48.7969 74.0937 48.7969C79.8073 48.7969 83.6718 52.6302 83.6718 59.375C83.6718 66.151 79.8073 70.1458 74.0937 70.1458C68.3854 70.1458 64.5104 66.151 64.5104 59.375Z" fill="white"/>
<path d="M87.3541 49.1771H92.8073V69.7604H87.3541V49.1771Z" fill="white"/>
<path d="M97.3802 49.1771H102.839V65.2031H110.641V69.7604H97.3802V49.1771Z" fill="white"/>
<mask id="mask45_22_6059" style="mask-type:luminance" maskUnits="userSpaceOnUse" x="57" y="0" width="23" height="8">
<path d="M57.9791 0H79.651V7.44792H57.9791V0Z" fill="white"/>
</mask>
<g mask="url(#mask45_22_6059)">
<mask id="mask46_22_6059" style="mask-type:luminance" maskUnits="userSpaceOnUse" x="58" y="0" width="22" height="8">
<path d="M58.0364 7.13543V2.10418C63.7708 1.11459 71.1822 0.40626 79.4895 0.130219V5.16147C75.4999 5.29168 71.7135 5.52605 68.2239 5.83855C64.4478 6.1823 61.0155 6.6198 58.0364 7.13543Z" fill="white"/>
</mask>
<g mask="url(#mask46_22_6059)">
<path d="M58.0364 7.13543H79.4895V0.130219H58.0364V7.13543Z" fill="#394A54"/>
</g>
</g>
<path d="M58.0365 35.9479V9.9479C62.2448 9.21352 67.3646 8.55727 73.0782 8.11977C75.1407 7.95831 77.2813 7.83331 79.4896 7.73956V34.6823C78.4323 34.7031 77.3907 34.7291 76.3594 34.7604C76.3438 34.7604 76.3334 34.7604 76.3177 34.7604C69.2969 34.9791 63.0313 35.3906 58.0365 35.9479Z" fill="#394A54"/>
<path d="M58.0365 40.9584V37.2188C63.7709 36.5781 71.1823 36.125 79.4896 35.9479V39.6875C76.6302 39.75 73.875 39.8438 71.2605 39.9688C68.7136 40.0886 66.2969 40.2344 64.0417 40.4063C64.0417 40.4063 64.0417 40.4063 64.0365 40.4063C64.0313 40.4063 64.0313 40.4063 64.0261 40.4063C61.875 40.5677 59.8698 40.75 58.0365 40.9584Z" fill="#394A54"/>
<path d="M58.0365 37.2188V35.9479C63.0313 35.3906 69.2969 34.9792 76.3177 34.7604C76.3334 34.7604 76.3438 34.7604 76.3594 34.7604C77.3907 34.7292 78.4323 34.7031 79.4896 34.6823V35.9479C71.1823 36.125 63.7709 36.5781 58.0365 37.2188Z" fill="#4A6372"/>
<path d="M79.4896 84.5729C77.2552 84.5208 75.0938 84.4531 73.0052 84.3698C67.323 84.1354 62.2292 83.7656 58.0365 83.3021V79.0208C63.7709 79.6563 71.1875 80.1094 79.4896 80.2865V84.5729Z" fill="#394A54"/>
<path d="M79.4896 84.5729C77.2552 84.5208 75.0886 84.4531 73.0052 84.3698C75.0938 84.4531 77.2552 84.5208 79.4896 84.5729Z" fill="#303D44"/>
<path d="M77.948 57.5261H70.2396C70.6719 54.9375 72.0625 53.4844 74.0938 53.4844C76.125 53.4844 77.5157 54.9375 77.948 57.5261Z" fill="#394A54"/>
<path d="M64.6146 57.526H58.0365V42.7604C58.9948 42.651 60.0052 42.5469 61.0573 42.4479C66.1355 41.9583 72.2344 41.5521 78.9271 41.3594C79.1146 41.3542 79.3021 41.349 79.4896 41.3438V50.2656C77.9948 49.3021 76.1667 48.7969 74.0938 48.7969C68.9271 48.7969 65.2657 51.9115 64.6146 57.526Z" fill="#394A54"/>
<path d="M79.4896 80.2865C71.1875 80.1094 63.7709 79.6563 58.0365 79.0208V77.401C63.7813 78.0365 71.198 78.4844 79.4896 78.6615V80.2865Z" fill="#4A6372"/>
<path d="M79.4896 78.6615C71.198 78.4844 63.7813 78.0365 58.0365 77.401V57.526H64.6146C64.5469 58.1146 64.5105 58.7292 64.5105 59.375C64.5105 66.151 68.3855 70.1458 74.0938 70.1458C76.1667 70.1458 77.9948 69.6198 79.4896 68.625V78.6615ZM74.0938 65.4583C71.6198 65.4583 70.0938 63.1094 70.0938 59.375C70.0938 58.7083 70.1459 58.0885 70.2396 57.526H77.948C78.0417 58.0885 78.0886 58.7083 78.0886 59.375C78.0886 63.1094 76.5677 65.4583 74.0938 65.4583Z" fill="#394A54"/>
<path d="M74.0937 70.1458C68.3854 70.1458 64.5104 66.151 64.5104 59.375C64.5104 58.7292 64.5468 58.1146 64.6145 57.526C65.2656 51.9115 68.927 48.7969 74.0937 48.7969C76.1666 48.7969 77.9948 49.3021 79.4895 50.2656V68.625C77.9948 69.6198 76.1666 70.1458 74.0937 70.1458ZM70.2395 57.526C70.1458 58.0885 70.0937 58.7083 70.0937 59.375C70.0937 63.1094 71.6198 65.4583 74.0937 65.4583C76.5677 65.4583 78.0885 63.1094 78.0885 59.375C78.0885 58.7083 78.0416 58.0885 77.9479 57.526C77.5156 54.9375 76.125 53.4844 74.0937 53.4844C72.0625 53.4844 70.6718 54.9375 70.2395 57.526Z" fill="#FEFEFE"/>
<mask id="mask47_22_6059" style="mask-type:luminance" maskUnits="userSpaceOnUse" x="57" y="112" width="24" height="8">
<path d="M57.776 112.24H80.4427V120H57.776V112.24Z" fill="white"/>
</mask>
<g mask="url(#mask47_22_6059)">
<path d="M79.4895 119.849C71.1874 119.568 63.7708 118.859 58.0364 117.865V112.844C63.7708 113.833 71.1874 114.536 79.4895 114.818V119.849Z" fill="#394A54"/>
</g>
<path d="M79.4896 114.818C71.1875 114.536 63.7709 113.833 58.0365 112.844V110.318C63.7813 111.307 71.198 112.005 79.4896 112.281V114.818Z" fill="#4A6372"/>
<path d="M79.4896 112.281C71.198 112.005 63.7813 111.307 58.0365 110.318V84.026C62.9948 84.5781 69.2136 84.9896 76.1719 85.2083C77.2605 85.2448 78.3646 85.2708 79.4896 85.2969V112.281Z" fill="#394A54"/>
</svg>
