<svg width="161" height="160" viewBox="0 0 161 160" fill="none" xmlns="http://www.w3.org/2000/svg">
<mask id="mask0_22_6067" style="mask-type:luminance" maskUnits="userSpaceOnUse" x="23" y="0" width="72" height="51">
<path d="M23.5366 0H94.2033V50.25H23.5366V0Z" fill="white"/>
</mask>
<g mask="url(#mask0_22_6067)">
<path d="M65.0575 0C42.2502 0 23.8335 10.3073 23.8335 25.7656C23.8335 38.6458 32.4689 36.9479 34.1408 48.9531C41.87 36.0677 54.7502 48.9531 70.2085 28.3385C78.9533 16.6823 78.5939 15.1302 93.396 10.3073C93.396 10.3073 88.245 0 65.0575 0Z" fill="#5F8C55"/>
</g>
<path d="M33.3386 66.2865C28.3803 53.9427 31.3699 39.1927 39.1355 28.8229C46.6147 18.7656 58.2032 12.6771 70.2084 10.3073C64.4428 12.099 58.9793 14.75 54.1772 18.2187C40.3126 27.6458 32.6511 47.0104 40.0938 62.5312C43.0574 67.2031 35.7501 71.2812 33.3386 66.2865Z" fill="#AABC6E"/>
<mask id="mask1_22_6067" style="mask-type:luminance" maskUnits="userSpaceOnUse" x="118" y="60" width="43" height="72">
<path d="M118.203 60.9167H160.38V131.583H118.203V60.9167Z" fill="white"/>
</mask>
<g mask="url(#mask1_22_6067)">
<path d="M142.344 61.8333C134.615 61.8333 132.042 64.4115 124.313 61.8333C129.464 77.2917 111.432 77.2917 121.735 97.901C128.031 110.49 132.042 121.089 132.042 131.396C132.042 131.396 160.38 118.51 160.38 90.1719C160.38 78.1146 155.485 61.8333 142.344 61.8333Z" fill="#5F8C55"/>
</g>
<path d="M107.125 50.3333C134.406 57.3698 150.813 83.9271 139.771 110.786C141.464 104.755 142.042 98.4427 141.25 92.3594C139.307 73.9167 123.083 60.4688 105.427 57.875C100.188 56.8125 101.906 49.0521 107.125 50.3333Z" fill="#AABC6E"/>
<mask id="mask2_22_6067" style="mask-type:luminance" maskUnits="userSpaceOnUse" x="0" y="110" width="67" height="50">
<path d="M0.645996 110.25H66.2033V159.734H0.645996V110.25Z" fill="white"/>
</mask>
<g mask="url(#mask2_22_6067)">
<path d="M36.7137 121.089C23.8335 118.51 14.5575 121.448 3.22412 110.786C3.22412 110.786 0.645996 116.349 0.645996 123.667C0.645996 149.427 23.8335 159.734 39.2918 159.734C59.9012 159.734 57.3283 152.005 65.0575 144.276C52.172 136.547 63.922 126.531 36.7137 121.089Z" fill="#5F8C55"/>
</g>
<path d="M85.7761 136.75C65.3907 155.49 33.8907 151.427 16.1042 131.396C20.6772 135.625 26.0574 138.828 31.724 141.099C48.2292 148.286 68.422 144.802 80.4011 131.193C84.1303 127.339 89.7657 133.135 85.7761 136.75Z" fill="#AABC6E"/>
<path d="M105.521 72.8906L102.948 70.3177C102.464 69.8333 101.807 69.5625 101.125 69.5625H86.1929L93.3492 31.3906C93.5783 30.1823 92.9169 28.9792 91.7762 28.526C90.6304 28.0625 89.3283 28.4792 88.6564 29.5104L55.1669 81.0417C54.5054 82.0625 54.646 83.4062 55.5054 84.2656L58.0783 86.8438C58.5627 87.3229 59.2189 87.599 59.9012 87.599H74.8648L67.6721 128.37C67.4533 129.589 68.1356 130.786 69.2919 131.224C69.5887 131.339 69.9012 131.396 70.2085 131.396C71.0783 131.396 71.9169 130.953 72.396 130.177L105.891 76.0729C106.521 75.0521 106.37 73.7396 105.521 72.8906Z" fill="#F5BB2D"/>
</svg>
